<svg xmlns="http://www.w3.org/2000/svg" xmlns:xlink="http://www.w3.org/1999/xlink" xmlns:lucid="lucid" width="2048.57" height="1383.08"><g transform="translate(276.5033392240616 -7459.706590527647)" lucid:page-tab-id="0_0"><path d="M-500 7000h2500v2000H-500z" fill="#fff"/><path d="M-237.93 7993.8a6 6 0 0 1 6-6h348a6 6 0 0 1 6 6v214a6 6 0 0 1-6 6h-348a6 6 0 0 1-6-6z" stroke="#3a414a" stroke-width="2" fill="#dedeff"/><path d="M-237.93 8030.72h360m-360 91.37h360" stroke="#3a414a" stroke-width="2" fill="none"/><use xlink:href="#a" transform="matrix(1,0,0,1,-229.93331322194,7995.785757701984) translate(86.67993827160495 17.988888888888887)"/><use xlink:href="#b" transform="matrix(1,0,0,1,-225.93331322194,8038.719091035317) translate(16.7182098765432 29.022222222222222)"/><use xlink:href="#c" transform="matrix(1,0,0,1,-225.93331322194,8038.719091035317) translate(41.65648148148149 55.95555555555555)"/><use xlink:href="#d" transform="matrix(1,0,0,1,-225.93331322194,8130.085757701984) translate(19.523765432098827 29.022222222222222)"/><use xlink:href="#e" transform="matrix(1,0,0,1,-225.93331322194,8130.085757701984) translate(80.43549382716054 29.022222222222222)"/><use xlink:href="#f" transform="matrix(1,0,0,1,-225.93331322194,8130.085757701984) translate(146.4595679012346 29.022222222222222)"/><use xlink:href="#g" transform="matrix(1,0,0,1,-225.93331322194,8130.085757701984) translate(170.0885802469136 29.022222222222222)"/><use xlink:href="#h" transform="matrix(1,0,0,1,-225.93331322194,8130.085757701984) translate(201.13672839506174 29.022222222222222)"/><use xlink:href="#i" transform="matrix(1,0,0,1,-225.93331322194,8130.085757701984) translate(240.5391975308642 29.022222222222222)"/><use xlink:href="#j" transform="matrix(1,0,0,1,-225.93331322194,8130.085757701984) translate(300.3287037037037 29.022222222222222)"/><use xlink:href="#k" transform="matrix(1,0,0,1,-225.93331322194,8130.085757701984) translate(141.22253086419755 55.95555555555555)"/><path d="M543.33 7486.7a6 6 0 0 1 6-6h348a6 6 0 0 1 6 6v160a6 6 0 0 1-6 6h-348a6 6 0 0 1-6-6z" stroke="#3a414a" stroke-width="2" fill="#f8f8fa"/><path d="M543.33 7523.64h360m-360 64.43h360" stroke="#3a414a" stroke-width="2" fill="none"/><use xlink:href="#l" transform="matrix(1,0,0,1,551.3315818270625,7488.706590527647) translate(60.12067901234572 17.988888888888887)"/><use xlink:href="#m" transform="matrix(1,0,0,1,555.3315818270625,7531.63992386098) translate(16.7182098765432 28.988888888888887)"/><use xlink:href="#d" transform="matrix(1,0,0,1,555.3315818270625,7596.073257194314) translate(107.64938271604939 28.988888888888887)"/><use xlink:href="#n" transform="matrix(1,0,0,1,555.3315818270625,7596.073257194314) translate(168.5611111111111 28.988888888888887)"/><path d="M543.33 7993.8a6 6 0 0 1 6-6h348a6 6 0 0 1 6 6v241a6 6 0 0 1-6 6h-348a6 6 0 0 1-6-6z" stroke="#3a414a" stroke-width="2" fill="#dedeff"/><path d="M543.33 8030.72h360m-360 91.37h360" stroke="#3a414a" stroke-width="2" fill="none"/><use xlink:href="#a" transform="matrix(1,0,0,1,551.3315818270625,7995.785757701984) translate(86.67993827160495 17.988888888888887)"/><use xlink:href="#b" transform="matrix(1,0,0,1,555.3315818270625,8038.719091035317) translate(16.7182098765432 29.022222222222222)"/><use xlink:href="#c" transform="matrix(1,0,0,1,555.3315818270625,8038.719091035317) translate(41.65648148148149 55.95555555555555)"/><use xlink:href="#d" transform="matrix(1,0,0,1,555.3315818270625,8130.085757701984) translate(95.83487654320989 29.05555555555556)"/><use xlink:href="#e" transform="matrix(1,0,0,1,555.3315818270625,8130.085757701984) translate(156.74660493827162 29.05555555555556)"/><use xlink:href="#o" transform="matrix(1,0,0,1,555.3315818270625,8130.085757701984) translate(222.77067901234568 29.05555555555556)"/><use xlink:href="#p" transform="matrix(1,0,0,1,555.3315818270625,8130.085757701984) translate(67.12469135802472 55.988888888888894)"/><use xlink:href="#q" transform="matrix(1,0,0,1,555.3315818270625,8130.085757701984) translate(128.03641975308642 55.988888888888894)"/><use xlink:href="#r" transform="matrix(1,0,0,1,555.3315818270625,8130.085757701984) translate(194.06049382716049 55.988888888888894)"/><use xlink:href="#s" transform="matrix(1,0,0,1,555.3315818270625,8130.085757701984) translate(237.70246913580246 55.988888888888894)"/><use xlink:href="#t" transform="matrix(1,0,0,1,555.3315818270625,8130.085757701984) translate(68.71450617283952 82.92222222222222)"/><use xlink:href="#u" transform="matrix(1,0,0,1,555.3315818270625,8130.085757701984) translate(208.68055555555554 82.92222222222222)"/><path d="M1382.07 7993.8a6 6 0 0 1 6-6h348a6 6 0 0 1 6 6v241a6 6 0 0 1-6 6h-348a6 6 0 0 1-6-6z" stroke="#3a414a" stroke-width="2" fill="#dedeff"/><path d="M1382.07 8030.72h360m-360 91.37h360" stroke="#3a414a" stroke-width="2" fill="none"/><use xlink:href="#a" transform="matrix(1,0,0,1,1390.06668677806,7995.785757701984) translate(86.67993827160495 17.988888888888887)"/><use xlink:href="#b" transform="matrix(1,0,0,1,1394.06668677806,8038.719091035317) translate(16.7182098765432 29.022222222222222)"/><use xlink:href="#c" transform="matrix(1,0,0,1,1394.06668677806,8038.719091035317) translate(41.65648148148149 55.95555555555555)"/><use xlink:href="#d" transform="matrix(1,0,0,1,1394.06668677806,8130.085757701984) translate(95.83487654320989 29.05555555555556)"/><use xlink:href="#e" transform="matrix(1,0,0,1,1394.06668677806,8130.085757701984) translate(156.74660493827162 29.05555555555556)"/><use xlink:href="#o" transform="matrix(1,0,0,1,1394.06668677806,8130.085757701984) translate(222.77067901234568 29.05555555555556)"/><use xlink:href="#p" transform="matrix(1,0,0,1,1394.06668677806,8130.085757701984) translate(5.495987654321027 55.988888888888894)"/><use xlink:href="#q" transform="matrix(1,0,0,1,1394.06668677806,8130.085757701984) translate(66.40771604938274 55.988888888888894)"/><use xlink:href="#r" transform="matrix(1,0,0,1,1394.06668677806,8130.085757701984) translate(132.4317901234568 55.988888888888894)"/><use xlink:href="#v" transform="matrix(1,0,0,1,1394.06668677806,8130.085757701984) translate(176.07376543209875 55.988888888888894)"/><use xlink:href="#w" transform="matrix(1,0,0,1,1394.06668677806,8130.085757701984) translate(213.48117283950614 55.988888888888894)"/><use xlink:href="#x" transform="matrix(1,0,0,1,1394.06668677806,8130.085757701984) translate(311.8003086419753 55.988888888888894)"/><use xlink:href="#y" transform="matrix(1,0,0,1,1394.06668677806,8130.085757701984) translate(130.00030864197532 82.92222222222222)"/><path d="M693.76 7970.4h-.95v-42.52h.96zm-.1-150.44l.1.08v80.9h-.96v-80.44l-.1-.08v-41.38h.95zm0-67.85h-.96v-97.9h.95z" stroke="#333" stroke-width=".05" fill="#333"/><path d="M693.65 7654.22h-.95v-.5h.95z" fill="#333"/><path stroke="#333" stroke-width=".05" fill="#333"/><path d="M693.28 7985.17l-4.63-14.27h9.27z" fill="#333"/><path d="M693.28 7986.7l-5.3-16.27h10.6zm-3.98-15.32l3.98 12.25 4-12.25z" stroke="#333" stroke-width=".05" fill="#333"/><use xlink:href="#z" transform="matrix(1,0,0,1,496.42667713229946,7900.949223242186) translate(0.0049999999999954525 17.955555555555552)"/><path d="M754.35 7986.3h-.95v-58.42h.95zm.1-165.85l-.1.08v80.42h-.95v-80.88l.1-.08v-40.96h.96zm.02-150.36v82h-.96l.02-82z" stroke="#333" stroke-width=".05" fill="#333"/><path d="M754.35 7986.8h-.95v-.53h.95z" fill="#333"/><path stroke="#333" stroke-width=".05" fill="#333"/><path d="M758.63 7669.6h-9.27l4.63-14.28z" fill="#333"/><path d="M759.28 7670.06H748.7l5.3-16.27zm-9.27-.95h7.97l-3.98-12.24z" stroke="#333" stroke-width=".05" fill="#333"/><use xlink:href="#A" transform="matrix(1,0,0,1,605.7327228793527,7752.106069903395) translate(0.0049999999999954525 17.955555555555552)"/><path d="M87.67 7820.72h-133.6l-1.8.14-1.76.43-1.66.68-1.55.94-1.38 1.18-1.18 1.37-.94 1.55-.7 1.66-.4 1.76-.16 1.83v138.13h-.95v-138.17l.14-1.94.46-1.9.75-1.82 1.02-1.67 1.27-1.48 1.5-1.27 1.66-1.02 1.8-.75 1.9-.46 1.95-.15H87.67zm539.8-12.45l-.16 1.93-.45 1.9-.75 1.8-1.02 1.68-1.27 1.5-1.48 1.26-1.67 1.02-1.8.75-1.9.47-1.94.15H481.4v-.95h133.6l1.8-.14 1.77-.42 1.67-.7 1.54-.93 1.38-1.17 1.17-1.38.96-1.54.7-1.67.4-1.75.15-1.82v-29.2h.96zm0-56.16h-.96v-97.9h.96z" stroke="#333" stroke-width=".05" fill="#333"/><path d="M627.46 7654.22h-.95v-.5h.96z" fill="#333"/><path stroke="#333" stroke-width=".05" fill="#333"/><path d="M-57.93 7985.17l-4.64-14.27h9.27z" fill="#333"/><path d="M-57.93 7986.7l-5.3-16.27h10.6zm-3.98-15.32l3.97 12.25 3.98-12.25z" stroke="#333" stroke-width=".05" fill="#333"/><use xlink:href="#z" transform="matrix(1,0,0,1,87.67048417770874,7806.779509339813) translate(0.0049999999999954525 17.955555555555552)"/><path d="M32.36 7898.26H3.86l-1.83.14-1.76.43-1.67.7-1.54.93-1.38 1.18-1.17 1.37-.93 1.55-.7 1.68-.42 1.75-.14 1.82v76.5h-.94v-76.53l.15-1.94.47-1.9.75-1.8 1.02-1.68 1.27-1.5 1.5-1.26 1.67-1.03 1.8-.75 1.9-.46 1.94-.15h28.56zm627.3-12.46l-.15 1.94-.45 1.9-.75 1.8-1.02 1.68-1.27 1.5-1.48 1.26-1.67 1.02-1.8.75-1.9.46-1.95.16H328.88v-.95h318.3l1.8-.13 1.77-.43 1.67-.7 1.54-.93 1.37-1.17 1.18-1.37.95-1.54.7-1.67.42-1.76.14-1.83v-106.73h.96zm0-133.7h-.95v-82h.96z" stroke="#333" stroke-width=".05" fill="#333"/><path d="M-7.7 7986.8h-.94v-.53h.95z" fill="#333"/><path stroke="#333" stroke-width=".05" fill="#333"/><path d="M663.82 7669.6h-9.27l4.63-14.28z" fill="#333"/><path d="M664.47 7670.06H653.9l5.28-16.27zm-9.27-.95h7.97l-4-12.24z" stroke="#333" stroke-width=".05" fill="#333"/><use xlink:href="#A" transform="matrix(1,0,0,1,32.35958762385624,7884.319091035318) translate(0.0049999999999954525 17.955555555555552)"/><path d="M1550.1 7819.77l1.92.15 1.9.46 1.8.75 1.68 1.02 1.5 1.27 1.26 1.5 1.02 1.66.75 1.8.46 1.9.14 1.95v138.17h-.95v-138.13l-.15-1.83-.42-1.75-.7-1.68-.94-1.55-1.2-1.37-1.36-1.18-1.54-.94-1.67-.7-1.76-.4-1.82-.16h-236.42v-.95zm-756.14-9.72l.42 1.76.7 1.68.94 1.54 1.18 1.38 1.37 1.17 1.54.94 1.68.7 1.76.43 1.82.14H919.9v.95H805.34l-1.94-.15-1.9-.46-1.82-.74-1.67-1.02-1.48-1.27-1.27-1.5-1.02-1.66-.75-1.8-.46-1.9-.15-1.93v-29.23h.95v29.2zm-.14-57.94h-.95v-97.9h.95z" stroke="#333" stroke-width=".05" fill="#333"/><path d="M793.82 7654.22h-.95v-.5h.95z" fill="#333"/><path stroke="#333" stroke-width=".05" fill="#333"/><path d="M1562.07 7985.17l-4.64-14.27h9.27z" fill="#333"/><path d="M1562.07 7986.7l-5.3-16.27h10.6zm-3.98-15.32l3.97 12.25 3.98-12.25z" stroke="#333" stroke-width=".05" fill="#333"/><use xlink:href="#z" transform="matrix(1,0,0,1,919.912739737899,7806.779497388903) translate(0.0049999999999954525 17.955555555555552)"/><path d="M1516.67 7897.3l1.94.16 1.9.46 1.82.75 1.67 1.02 1.48 1.26 1.27 1.5 1.02 1.66.75 1.8.46 1.9.15 1.95v76.52h-.95v-76.5l-.14-1.82-.42-1.75-.7-1.68-.94-1.54-1.17-1.36-1.37-1.18-1.54-.94-1.68-.7-1.76-.42-1.82-.14h-269.72v-.95zm-692.3-9.7l.42 1.75.7 1.67.93 1.54 1.18 1.37 1.38 1.18 1.54.95 1.67.7 1.75.42 1.82.14H950.4v.96H835.75l-1.94-.15-1.9-.45-1.8-.75-1.68-1.02-1.5-1.27-1.26-1.48-1.02-1.67-.75-1.8-.47-1.9-.15-1.95v-106.76h.95v106.73zm-.14-135.5h-.95v-82h.95z" stroke="#333" stroke-width=".05" fill="#333"/><path d="M1529.13 7986.8h-.95v-.53h.95z" fill="#333"/><path stroke="#333" stroke-width=".05" fill="#333"/><path d="M828.4 7669.6h-9.28l4.63-14.28z" fill="#333"/><path d="M829.04 7670.06h-10.58l5.3-16.27zm-9.27-.95h7.97l-4-12.24z" stroke="#333" stroke-width=".05" fill="#333"/><use xlink:href="#A" transform="matrix(1,0,0,1,950.4072219690129,7884.319091035318) translate(0.0049999999999954525 17.955555555555552)"/><path d="M668.88 8386.48h-.95v-21.62h.95zm1.46-64.87v.18l-.06.2-.08.18-.2.3-.3.2-.2.08-.18.05H669.04v.02l-.1.06-.05.08v.02l-.02.04v14.91h-.95v-15.06l.06-.2.07-.18.2-.3.3-.2.2-.1.18-.04h.22l.04-.02h.03l.08-.07.07-.08v-.03l.02-.04v-79.35h.94z" stroke="#333" stroke-width=".05" fill="#333"/><path d="M670.34 8242.3h-.95v-.5h.94z" fill="#333"/><path stroke="#333" stroke-width=".05" fill="#333"/><path d="M668.4 8401.25l-4.63-14.27h9.27z" fill="#333"/><path d="M668.4 8402.78l-5.3-16.27h10.6zm-3.98-15.32l3.98 12.25 3.98-12.24z" stroke="#333" stroke-width=".05" fill="#333"/><use xlink:href="#B" transform="matrix(1,0,0,1,593.6815349954508,8337.92859842096) translate(0.0049999999999954525 17.955555555555552)"/><path d="M776.92 8321.83l-.04.27-.14.3-.23.2-.27.16-.24.03h-.1l-.02.02-.02.02v79.53h-.96v-79.55l.05-.27.14-.3.22-.2.28-.16.24-.04.1-.02.02-.02v-4.42h.96zm0-31.36h-.95v-32.3h.95z" stroke="#333" stroke-width=".05" fill="#333"/><path d="M775.86 8402.86h-.96v-.5h.96z" fill="#333"/><path stroke="#333" stroke-width=".05" fill="#333"/><path d="M781.08 8257.67h-9.27l4.65-14.27z" fill="#333"/><path d="M781.74 8258.15h-10.58l5.3-16.28zm-9.27-.95h7.96l-3.98-12.26z" stroke="#333" stroke-width=".05" fill="#333"/><use xlink:href="#C" transform="matrix(1,0,0,1,705.530922809488,8290.465999021457) translate(0.0049999999999954525 17.955555555555552)"/><path d="M542.07 8409.86a6 6 0 0 1 6-6h348a6 6 0 0 1 6 6v160a6 6 0 0 1-6 6h-348a6 6 0 0 1-6-6z" stroke="#3a414a" stroke-width="2" fill="#e3fae3"/><path d="M542.07 8446.8h360m-360 64.43h360" stroke="#3a414a" stroke-width="2" fill="none"/><use xlink:href="#D" transform="matrix(1,0,0,1,550.06668677806,8411.864924876321) translate(41.853395061728406 17.988888888888887)"/><use xlink:href="#E" transform="matrix(1,0,0,1,554.06668677806,8454.798258209654) translate(117.59351851851854 28.988888888888887)"/><use xlink:href="#F" transform="matrix(1,0,0,1,554.06668677806,8519.231591542986) translate(130.65493827160495 28.988888888888887)"/><path d="M-228.93 8700.8a6 6 0 0 1 6-6h348a6 6 0 0 1 6 6v88a6 6 0 0 1-6 6h-348a6 6 0 0 1-6-6z" stroke="#3a414a" stroke-width="2" fill="#edf5ff"/><path d="M-228.93 8737.72h360" stroke="#3a414a" stroke-width="2" fill="none"/><use xlink:href="#G" transform="matrix(1,0,0,1,-220.93323370642736,8702.785946086839) translate(108.18919753086422 17.988888888888887)"/><use xlink:href="#H" transform="matrix(1,0,0,1,-216.93323370642736,8745.719279420171) translate(64.91141975308643 24.988888888888887)"/><use xlink:href="#I" transform="matrix(1,0,0,1,-216.93323370642736,8745.719279420171) translate(95.95956790123458 24.988888888888887)"/><use xlink:href="#i" transform="matrix(1,0,0,1,-216.93323370642736,8745.719279420171) translate(135.36203703703706 24.988888888888887)"/><use xlink:href="#J" transform="matrix(1,0,0,1,-216.93323370642736,8745.719279420171) translate(195.15154320987654 24.988888888888887)"/><use xlink:href="#k" transform="matrix(1,0,0,1,-216.93323370642736,8745.719279420171) translate(217.53364197530863 24.988888888888887)"/><path d="M-57.46 8477.85l.15 1.82.4 1.76.7 1.67.94 1.54 1.18 1.37 1.37 1.2 1.54.93 1.67.7 1.76.42 1.83.14H99.9v.94H-45.96l-1.93-.15-1.9-.47-1.82-.75-1.67-1.02-1.5-1.27-1.26-1.5-1.02-1.67-.75-1.8-.46-1.9-.15-1.95v-262.6h.94zm582.14 11.54v.94H249.33v-.95z" stroke="#333" stroke-width=".05" fill="#333"/><path d="M-57.46 8215.3h-.95v-.5h.94z" fill="#333"/><path stroke="#333" stroke-width=".05" fill="#333"/><path d="M539.45 8489.86l-14.27 4.64v-9.27z" fill="#333"/><path d="M541 8489.86l-16.3 5.3v-10.58zm-15.34 4l12.25-4-12.24-3.98z" stroke="#333" stroke-width=".05" fill="#333"/><use xlink:href="#B" transform="matrix(1,0,0,1,99.8909627943718,8476.398258209654) translate(0.0049999999999954525 17.955555555555552)"/><path d="M540.57 8459.92v.95H89.1v-.95zm-559.88-13h-.96v-215.75h.95z" stroke="#333" stroke-width=".05" fill="#333"/><path d="M541.07 8460.87h-.52v-.95h.52z" fill="#333"/><path stroke="#333" stroke-width=".05" fill="#333"/><path d="M-15.14 8230.67h-9.28l4.64-14.27z" fill="#333"/><path d="M-14.5 8231.15h-10.57l5.3-16.28zm-9.26-.95h7.96l-3.98-12.26z" stroke="#333" stroke-width=".05" fill="#333"/><use xlink:href="#C" transform="matrix(1,0,0,1,-52.74666512063415,8446.929603659693) translate(0.0049999999999954525 17.955555555555552)"/><path d="M1003.4 8490.34h-83.95v-.95h83.95zm559.14-12.46l-.15 1.94-.47 1.9-.75 1.8-1.02 1.68-1.27 1.5-1.5 1.26-1.67 1.02-1.8.75-1.9.46-1.94.14h-397.26v-.95h397.2l1.83-.15 1.76-.43 1.67-.7 1.54-.93 1.38-1.2 1.17-1.36.93-1.54.7-1.67.42-1.76.14-1.82V8242.3h.94z" stroke="#333" stroke-width=".05" fill="#333"/><path d="M1562.54 8242.3h-.95v-.5h.94z" fill="#333"/><path stroke="#333" stroke-width=".05" fill="#333"/><path d="M918.95 8494.5l-14.27-4.64 14.27-4.63z" fill="#333"/><path d="M919.43 8495.15l-16.28-5.28 16.28-5.3zm-13.2-5.28l12.25 3.98v-7.97z" stroke="#333" stroke-width=".05" fill="#333"/><use xlink:href="#B" transform="matrix(1,0,0,1,1003.3986327037546,8476.398258209654) translate(0.0049999999999954525 17.955555555555552)"/><path d="M1259.36 8468.58h-355.8v-.95h355.8zm272.28-12.46l-.16 1.94-.45 1.9-.75 1.8-1.03 1.68-1.27 1.5-1.5 1.26-1.66 1.02-1.8.75-1.9.46-1.94.15h-118v-.95h117.96l1.82-.14 1.76-.44 1.67-.7 1.53-.93 1.38-1.18 1.18-1.37.95-1.54.7-1.67.4-1.76.15-1.8v-197.93h.95z" stroke="#333" stroke-width=".05" fill="#333"/><path d="M903.58 8468.58h-.5v-.95h.5z" fill="#333"/><path stroke="#333" stroke-width=".05" fill="#333"/><path d="M1535.8 8257.67h-9.27l4.63-14.27z" fill="#333"/><path d="M1536.45 8258.15h-10.58l5.3-16.28zm-9.27-.95h7.96l-3.98-12.26z" stroke="#333" stroke-width=".05" fill="#333"/><use xlink:href="#C" transform="matrix(1,0,0,1,1259.3546533842532,8454.638246151075) translate(0.0049999999999954525 17.955555555555552)"/><path d="M-48.46 8677.4h-.95v-96.65h.94zm-69.34-123.58h-.95V8215.3h.95z" stroke="#333" stroke-width=".05" fill="#333"/><path d="M-117.8 8215.3h-.95v-.5h.95z" fill="#333"/><path stroke="#333" stroke-width=".05" fill="#333"/><path d="M-48.93 8692.17l-4.64-14.27h9.27z" fill="#333"/><path d="M-48.93 8693.7l-5.3-16.27h10.6zm-3.98-15.32l3.97 12.25 3.98-12.25z" stroke="#333" stroke-width=".05" fill="#333"/><use xlink:href="#K" transform="matrix(1,0,0,1,-177.2449290363541,8553.81930876684) translate(0.0049999999999954525 17.955555555555552)"/><path d="M551.07 8700.8a6 6 0 0 1 6-6h348a6 6 0 0 1 6 6v115a6 6 0 0 1-6 6h-348a6 6 0 0 1-6-6z" stroke="#3a414a" stroke-width="2" fill="#edf5ff"/><path d="M551.07 8737.72h360" stroke="#3a414a" stroke-width="2" fill="none"/><use xlink:href="#G" transform="matrix(1,0,0,1,559.0667662935726,8702.785946086839) translate(108.18919753086422 17.988888888888887)"/><use xlink:href="#p" transform="matrix(1,0,0,1,563.0667662935726,8745.719279420171) translate(67.12469135802472 25.022222222222222)"/><use xlink:href="#q" transform="matrix(1,0,0,1,563.0667662935726,8745.719279420171) translate(128.03641975308642 25.022222222222222)"/><use xlink:href="#r" transform="matrix(1,0,0,1,563.0667662935726,8745.719279420171) translate(194.06049382716049 25.022222222222222)"/><use xlink:href="#s" transform="matrix(1,0,0,1,563.0667662935726,8745.719279420171) translate(237.70246913580246 25.022222222222222)"/><use xlink:href="#t" transform="matrix(1,0,0,1,563.0667662935726,8745.719279420171) translate(68.71450617283952 51.95555555555555)"/><use xlink:href="#u" transform="matrix(1,0,0,1,563.0667662935726,8745.719279420171) translate(208.68055555555554 51.95555555555555)"/><path d="M673.8 8672.3l.78.07.78.2.73.3.68.4.6.53.52.6.42.7.3.73.2.77.05.76-.95.08-.05-.7-.15-.62-.25-.6-.34-.55-.42-.5-.5-.42-.54-.34-.6-.24-.63-.15-.67-.04h-147.6v-.95zM640 8269.8l-.15 1.94-.46 1.9-.76 1.8-1.02 1.68-1.27 1.5-1.5 1.26-1.66 1.02-1.82.75-1.9.46-1.94.16H454.72l-1.82.14-1.76.43-1.67.7-1.54.93-1.38 1.18-1.17 1.37-.95 1.55-.7 1.68-.4 1.75-.16 1.82v359.08h-.95v-359.1l.16-1.95.45-1.9.75-1.8 1.03-1.68 1.28-1.5 1.5-1.26 1.66-1.03 1.8-.75 1.9-.46 1.94-.15H627.5l1.83-.13 1.76-.42 1.66-.7 1.54-.94 1.38-1.17 1.17-1.37.94-1.54.7-1.67.4-1.76.15-1.83v-27.48h.95z" stroke="#333" stroke-width=".05" fill="#333"/><path d="M640 8242.3h-.95v-.5h.95z" fill="#333"/><path stroke="#333" stroke-width=".05" fill="#333"/><path d="M678.4 8692.17l-4.64-14.27h9.27z" fill="#333"/><path d="M678.4 8693.7l-5.3-16.27h10.6zm-3.98-15.32l3.98 12.25 3.98-12.25z" stroke="#333" stroke-width=".05" fill="#333"/><use xlink:href="#K" transform="matrix(1,0,0,1,359.24950872720603,8652.880911268558) translate(0.0049999999999954525 17.955555555555552)"/><path d="M1391.07 8700.8a6 6 0 0 1 6-6h348a6 6 0 0 1 6 6v115a6 6 0 0 1-6 6h-348a6 6 0 0 1-6-6z" stroke="#3a414a" stroke-width="2" fill="#edf5ff"/><path d="M1391.07 8737.72h360" stroke="#3a414a" stroke-width="2" fill="none"/><use xlink:href="#G" transform="matrix(1,0,0,1,1399.0667662935725,8702.785946086839) translate(108.18919753086422 17.988888888888887)"/><use xlink:href="#p" transform="matrix(1,0,0,1,1403.0667662935725,8745.719279420171) translate(5.495987654321027 25.022222222222222)"/><use xlink:href="#q" transform="matrix(1,0,0,1,1403.0667662935725,8745.719279420171) translate(66.40771604938274 25.022222222222222)"/><use xlink:href="#r" transform="matrix(1,0,0,1,1403.0667662935725,8745.719279420171) translate(132.4317901234568 25.022222222222222)"/><use xlink:href="#v" transform="matrix(1,0,0,1,1403.0667662935725,8745.719279420171) translate(176.07376543209875 25.022222222222222)"/><use xlink:href="#w" transform="matrix(1,0,0,1,1403.0667662935725,8745.719279420171) translate(213.48117283950614 25.022222222222222)"/><use xlink:href="#x" transform="matrix(1,0,0,1,1403.0667662935725,8745.719279420171) translate(311.8003086419753 25.022222222222222)"/><use xlink:href="#y" transform="matrix(1,0,0,1,1403.0667662935725,8745.719279420171) translate(130.00030864197532 51.95555555555555)"/><path d="M1619.5 8660.8l-.14 1.94-.45 1.9-.74 1.8-1.03 1.68-1.27 1.5-1.5 1.26-1.66 1.02-1.8.75-1.9.46-1.94.16h-31.36l-.66.05-.64.17-.6.24-.55.35-.5.43-.42.5-.34.54-.25.6-.16.63-.06.7-.95-.1.05-.75.2-.77.3-.74.4-.7.53-.6.6-.52.7-.42.73-.3.8-.2.76-.05h31.36l1.82-.13 1.76-.42 1.67-.7 1.54-.94 1.4-1.17 1.16-1.37.95-1.54.7-1.67.42-1.76.14-1.83v-112.52h.95zm0-139.48h-.94V8242.3h.95z" stroke="#333" stroke-width=".05" fill="#333"/><path d="M1619.5 8242.3h-.94v-.5h.95z" fill="#333"/><path stroke="#333" stroke-width=".05" fill="#333"/><path d="M1571.07 8692.17l-4.64-14.27h9.27z" fill="#333"/><path d="M1571.07 8693.7l-5.3-16.27h10.6zm-3.98-15.32l3.97 12.25 3.98-12.25z" stroke="#333" stroke-width=".05" fill="#333"/><use xlink:href="#K" transform="matrix(1,0,0,1,1535.5895267572525,8521.316298252272) translate(0.0049999999999954525 17.955555555555552)"/><path d="M1373.68 8721.77v.95h-154.95v-.95zm-461.1.95v-.95h73.36v.95z" stroke="#333" stroke-width=".05" fill="#333"/><path d="M912.58 8722.72h-.5v-.95h.5z" fill="#333"/><path stroke="#333" stroke-width=".05" fill="#333"/><path d="M1388.45 8722.24l-14.27 4.64v-9.27z" fill="#333"/><path d="M1389.98 8722.24l-16.27 5.3v-10.6zm-15.32 3.98l12.25-3.98-12.24-3.98z" stroke="#333" stroke-width=".05" fill="#333"/><use xlink:href="#L" transform="matrix(1,0,0,1,985.9357689534465,8708.776313817067) translate(0.0049999999999954525 17.955555555555552)"/><path d="M993.6 8791.92h-65.15v-.95h65.16zm395.97 0h-81.05v-.95h81.05z" stroke="#333" stroke-width=".05" fill="#333"/><path d="M1390.07 8791.92h-.52v-.95h.52z" fill="#333"/><path stroke="#333" stroke-width=".05" fill="#333"/><path d="M927.95 8796.08l-14.26-4.63 14.25-4.64z" fill="#333"/><path d="M928.43 8796.74l-16.28-5.3 16.28-5.28zm-13.2-5.3l12.25 4v-7.98z" stroke="#333" stroke-width=".05" fill="#333"/><use xlink:href="#M" transform="matrix(1,0,0,1,993.612782783396,8777.980107434072) translate(0.0049999999999954525 17.955555555555552)"/><path d="M1382.07 7522.7a6 6 0 0 1 6-6h348a6 6 0 0 1 6 6v88a6 6 0 0 1-6 6h-348a6 6 0 0 1-6-6z" stroke="#3a414a" stroke-width="2" fill="#fcfcca"/><path d="M1382.07 7559.64h360" stroke="#3a414a" stroke-width="2" fill="none"/><use xlink:href="#N" transform="matrix(1,0,0,1,1390.06668677806,7524.706590527647) translate(99.77253086419753 17.988888888888887)"/><use xlink:href="#O" transform="matrix(1,0,0,1,1394.06668677806,7567.63992386098) translate(82.80462962962964 24.988888888888887)"/><path d="M-237.93 7522.7a6 6 0 0 1 6-6h348a6 6 0 0 1 6 6v88a6 6 0 0 1-6 6h-348a6 6 0 0 1-6-6z" stroke="#3a414a" stroke-width="2" fill="#fcfcca"/><path d="M-237.93 7559.64h360" stroke="#3a414a" stroke-width="2" fill="none"/><use xlink:href="#N" transform="matrix(1,0,0,1,-229.93331322194,7524.706590527647) translate(99.77253086419753 17.988888888888887)"/><use xlink:href="#P" transform="matrix(1,0,0,1,-225.93331322194,7567.63992386098) translate(74.0138888888889 24.988888888888887)"/><path d="M-133.28 7986.3h-.95v-170.6h.95zm-.2-197.52h-.94v-59.1h.94zm0-86.02h-.95v-70.56h.94z" stroke="#333" stroke-width=".05" fill="#333"/><path d="M-133.28 7986.8h-.95v-.53h.95z" fill="#333"/><path stroke="#333" stroke-width=".05" fill="#333"/><path d="M-126.47 7631.7h-15l7.5-13z" fill="#333"/><path d="M-125.64 7632.17h-16.65l8.34-14.4zm-15-.95h13.35l-6.67-11.56z" stroke="#333" stroke-width=".05" fill="#333"/><g><use xlink:href="#Q" transform="matrix(1,0,0,1,-221.18638642033045,7702.760369398924) translate(0.0049999999999954525 17.955555555555552)"/></g><path d="M-178.6 7972.3h-.95v-156.6h.95zm-.33-183.52h-.95v-59.1h.95zm0-86.02h-.95v-84.55h.95z" stroke="#333" stroke-width=".05" fill="#333"/><path d="M-178.93 7618.22h-.95v-.5h.95z" fill="#333"/><path stroke="#333" stroke-width=".05" fill="#333"/><path d="M-179.07 7985.8l-7.5-13h15z" fill="#333"/><path d="M-179.07 7986.74l-8.33-14.42h16.65zm-6.68-13.47l6.68 11.57 6.67-11.57z" stroke="#333" stroke-width=".05" fill="#333"/><g><use xlink:href="#R" transform="matrix(1,0,0,1,-274.5033392240616,7788.779542306146) translate(0.0049999999999954525 17.955555555555552)"/></g><path d="M1143.17 8062.88l-.15 1.94-.45 1.9-.75 1.8-1.03 1.68-1.28 1.5-1.5 1.26-1.66 1.02-1.8.75-1.9.46-1.94.14h-211.9v-.95h211.86l1.82-.15 1.76-.43 1.67-.7 1.54-.93 1.38-1.2 1.17-1.36.95-1.54.7-1.67.4-1.76.15-1.82v-151.6h.95zm0-178.56h-.95v-50.6h.95zm0-77.54h-.95v-89.6h.95zm0-116.55h-.95v-107.97h.95zm237.4-123.05h-142.6v-.95h142.6z" stroke="#333" stroke-width=".05" fill="#333"/><path d="M918.32 8082.36l-13-7.5 13-7.5z" fill="#333"/><path d="M918.8 8083.2l-14.42-8.34 14.42-8.32zm-12.52-8.34l11.57 6.68v-13.35z" stroke="#333" stroke-width=".05" fill="#333"/><path d="M1381.07 7567.18h-.52v-.95h.52z" fill="#333"/><path stroke="#333" stroke-width=".05" fill="#333"/><g><use xlink:href="#R" transform="matrix(1,0,0,1,1047.4349285931007,7555.323501375823) translate(0.0049999999999954525 17.955555555555552)"/></g><path d="M1183.54 8102.3l-.15 1.94-.47 1.9-.75 1.8-1.02 1.68-1.27 1.5-1.5 1.26-1.67 1.02-1.8.75-1.9.46-1.94.16H904.82v-.95h266.22l1.82-.13 1.76-.43 1.67-.7 1.54-.93 1.38-1.17 1.17-1.37.93-1.54.7-1.67.42-1.76.14-1.83v-191.02h.94zm0-217.98h-.95v-50.6h.94zm0-77.54h-.95v-89.6h.94zm183.04-209.93h-171.5l-1.82.15-1.75.42-1.66.7-1.55.94-1.38 1.17-1.18 1.37-.94 1.55-.7 1.67-.4 1.76-.16 1.82v81.84h-.95v-81.88l.14-1.93.46-1.9.75-1.82 1.02-1.66 1.27-1.48 1.5-1.28 1.66-1.02 1.8-.75 1.9-.44 1.95-.16h171.53z" stroke="#333" stroke-width=".05" fill="#333"/><path d="M1380.07 7596.38l-13 7.5v-15z" fill="#333"/><path d="M1381.02 7596.38l-14.42 8.32v-16.64zm-13.47 6.68l11.57-6.68-11.57-6.68z" stroke="#333" stroke-width=".05" fill="#333"/><path d="M904.84 8114.76h-.5v-.95h.5z" fill="#333"/><path stroke="#333" stroke-width=".05" fill="#333"/><g><use xlink:href="#Q" transform="matrix(1,0,0,1,1095.8450318397888,7690.235390597234) translate(0.0049999999999954525 17.955555555555552)"/></g><path d="M1613.9 7986.3h-.94l.08-170.6h.94zm.2-197.52h-.95v-66.5h.95zm0-93.44h-.95v-63.14h.95z" stroke="#333" stroke-width=".05" fill="#333"/><path d="M1621.13 7631.7h-15l7.5-13z" fill="#333"/><path d="M1621.95 7632.17h-16.65l8.33-14.4zm-15-.95h13.35l-6.67-11.56z" stroke="#333" stroke-width=".05" fill="#333"/><path d="M1613.9 7986.8h-.94v-.53h.95z" fill="#333"/><path stroke="#333" stroke-width=".05" fill="#333"/><g><use xlink:href="#Q" transform="matrix(1,0,0,1,1526.3094476484519,7788.779492659538) translate(0.0049999999999954525 17.955555555555552)"/></g><path d="M1640.32 7972.3h-.95v-156.6h.95zm.3-183.52h-.96v-66.5h.95zm0-93.44h-.96v-77.13h.95z" stroke="#333" stroke-width=".05" fill="#333"/><path d="M1639.85 7985.8l-7.5-13h15z" fill="#333"/><path d="M1639.85 7986.74l-8.33-14.42h16.65zm-6.68-13.47l6.68 11.57 6.67-11.57z" stroke="#333" stroke-width=".05" fill="#333"/><path d="M1640.6 7618.22h-.94v-.5h.95z" fill="#333"/><path stroke="#333" stroke-width=".05" fill="#333"/><g><use xlink:href="#R" transform="matrix(1,0,0,1,1544.8690602458369,7695.341411367655) translate(0.0049999999999954525 17.955555555555552)"/></g><path d="M982.07 8246.8a6 6 0 0 1 6-6h348a6 6 0 0 1 6 6v88a6 6 0 0 1-6 6h-348a6 6 0 0 1-6-6z" stroke="#3a414a" stroke-width="2" fill="#ffd9d9"/><path d="M982.07 8283.72h360" stroke="#3a414a" stroke-width="2" fill="none"/><g><use xlink:href="#N" transform="matrix(1,0,0,1,990.06668677806,8248.785757701984) translate(99.77253086419753 17.988888888888887)"/></g><g><use xlink:href="#S" transform="matrix(1,0,0,1,994.06668677806,8291.719091035317) translate(55.902469135802505 24.988888888888887)"/><use xlink:href="#T" transform="matrix(1,0,0,1,994.06668677806,8291.719091035317) translate(199.11049382716047 24.988888888888887)"/></g><path d="M1161.18 8425.82l-1.02 1.66-1.27 1.5-1.5 1.26-1.67 1.03-1.8.75-1.9.45-1.94.16H903.56v-.95h246.48l1.82-.15 1.76-.42 1.67-.68 1.54-.95 1.38-1.17 1.17-1.38.93-1.54.5-1.2h1.03zm1.36-28.56h-.95v-40.98h.94z" stroke="#333" stroke-width=".05" fill="#333"/><path d="M903.58 8432.63h-.5v-.95h.5z" fill="#333"/><path stroke="#333" stroke-width=".05" fill="#333"/><path d="M1169.57 8355.78h-15l7.5-13z" fill="#333"/><path d="M1170.4 8356.25h-16.66l8.33-14.4zm-15-.95h13.34l-6.67-11.56z" stroke="#333" stroke-width=".05" fill="#333"/><g><use xlink:href="#Q" transform="matrix(1,0,0,1,1074.8450818397885,8397.257537709002) translate(0.0049999999999954525 17.955555555555552)"/></g><defs><path fill="#282c33" d="M177-190C167-65 218 103 67 71c-23-6-38-20-44-43l32-5c15 47 100 32 89-28v-30C133-14 115 1 83 1 29 1 15-40 15-95c0-56 16-97 71-98 29-1 48 16 59 35 1-10 0-23 2-32h30zM94-22c36 0 50-32 50-73 0-42-14-75-50-75-39 0-46 34-46 75s6 73 46 73" id="U"/><path fill="#282c33" d="M96-169c-40 0-48 33-48 73s9 75 48 75c24 0 41-14 43-38l32 2c-6 37-31 61-74 61-59 0-76-41-82-99-10-93 101-131 147-64 4 7 5 14 7 22l-32 3c-4-21-16-35-41-35" id="V"/><path fill="#282c33" d="M33-154v-36h34v36H33zM33 0v-36h34V0H33" id="W"/><path fill="#282c33" d="M143 4C61 4 22-44 18-125c-5-107 100-154 193-111 17 8 29 25 37 43l-32 9c-13-25-37-40-76-40-61 0-88 39-88 99 0 61 29 100 91 101 35 0 62-11 79-27v-45h-74v-28h105v86C228-13 192 4 143 4" id="X"/><path fill="#282c33" d="M27 0v-27h64v-190l-56 39v-29l58-41h29v221h61V0H27" id="Y"/><path fill="#282c33" d="M-5 72V49h209v23H-5" id="Z"/><path fill="#282c33" d="M212-179c-10-28-35-45-73-45-59 0-87 40-87 99 0 60 29 101 89 101 43 0 62-24 78-52l27 14C228-24 195 4 139 4 59 4 22-46 18-125c-6-104 99-153 187-111 19 9 31 26 39 46" id="aa"/><path fill="#282c33" d="M106-169C34-169 62-67 57 0H25v-261h32l-1 103c12-21 28-36 61-36 89 0 53 116 60 194h-32v-121c2-32-8-49-39-48" id="ab"/><path fill="#282c33" d="M141-36C126-15 110 5 73 4 37 3 15-17 15-53c-1-64 63-63 125-63 3-35-9-54-41-54-24 1-41 7-42 31l-33-3c5-37 33-52 76-52 45 0 72 20 72 64v82c-1 20 7 32 28 27v20c-31 9-61-2-59-35zM48-53c0 20 12 33 32 33 41-3 63-29 60-74-43 2-92-5-92 41" id="ac"/><path fill="#282c33" d="M114-163C36-179 61-72 57 0H25l-1-190h30c1 12-1 29 2 39 6-27 23-49 58-41v29" id="ad"/><path fill="#282c33" d="M59-47c-2 24 18 29 38 22v24C64 9 27 4 27-40v-127H5v-23h24l9-43h21v43h35v23H59v120" id="ae"/><path fill="#282c33" d="M100-194c63 0 86 42 84 106H49c0 40 14 67 53 68 26 1 43-12 49-29l28 8c-11 28-37 45-77 45C44 4 14-33 15-96c1-61 26-98 85-98zm52 81c6-60-76-77-97-28-3 7-6 17-6 28h103" id="af"/><g id="a"><use transform="matrix(0.06234567901234567,0,0,0.06234567901234567,0,0)" xlink:href="#U"/><use transform="matrix(0.06234567901234567,0,0,0.06234567901234567,12.469135802469133,0)" xlink:href="#V"/><use transform="matrix(0.06234567901234567,0,0,0.06234567901234567,23.691358024691354,0)" xlink:href="#W"/><use transform="matrix(0.06234567901234567,0,0,0.06234567901234567,29.92592592592592,0)" xlink:href="#X"/><use transform="matrix(0.06234567901234567,0,0,0.06234567901234567,47.38271604938271,0)" xlink:href="#Y"/><use transform="matrix(0.06234567901234567,0,0,0.06234567901234567,59.85185185185184,0)" xlink:href="#Z"/><use transform="matrix(0.06234567901234567,0,0,0.06234567901234567,72.32098765432097,0)" xlink:href="#aa"/><use transform="matrix(0.06234567901234567,0,0,0.06234567901234567,88.4685185185185,0)" xlink:href="#ab"/><use transform="matrix(0.06234567901234567,0,0,0.06234567901234567,100.93765432098763,0)" xlink:href="#ac"/><use transform="matrix(0.06234567901234567,0,0,0.06234567901234567,113.40679012345677,0)" xlink:href="#ad"/><use transform="matrix(0.06234567901234567,0,0,0.06234567901234567,120.8259259259259,0)" xlink:href="#ac"/><use transform="matrix(0.06234567901234567,0,0,0.06234567901234567,133.29506172839504,0)" xlink:href="#V"/><use transform="matrix(0.06234567901234567,0,0,0.06234567901234567,144.51728395061727,0)" xlink:href="#ae"/><use transform="matrix(0.06234567901234567,0,0,0.06234567901234567,150.75185185185182,0)" xlink:href="#af"/><use transform="matrix(0.06234567901234567,0,0,0.06234567901234567,163.22098765432096,0)" xlink:href="#ad"/></g><path fill="#282c33" d="M210-169c-67 3-38 105-44 169h-31v-121c0-29-5-50-35-48C34-165 62-65 56 0H25l-1-190h30c1 10-1 24 2 32 10-44 99-50 107 0 11-21 27-35 58-36 85-2 47 119 55 194h-31v-121c0-29-5-49-35-48" id="ag"/><path fill="#282c33" d="M30 0v-248h187v28H63v79h144v27H63v87h162V0H30" id="ah"/><path fill="#282c33" d="M134-131c28 9 52 24 51 62-1 50-34 73-85 73S17-19 16-69c0-36 21-54 49-61-75-25-45-126 34-121 46 3 78 18 79 63 0 33-17 51-44 57zm-34-11c31 1 46-15 46-44 0-28-17-43-47-42-29 0-46 13-45 42 1 28 16 44 46 44zm1 122c35 0 51-18 51-52 0-30-18-46-53-46-33 0-51 17-51 47 0 34 19 51 53 51" id="ai"/><path fill="#282c33" d="M99-251c64 0 84 50 84 122C183-37 130 33 47-8c-14-7-20-23-25-40l30-5c6 39 69 39 84 7 9-19 16-44 16-74-10 22-31 35-62 35-49 0-73-33-73-83 0-54 28-83 82-83zm-1 141c31-1 51-18 51-49 0-36-14-67-51-67-34 0-49 23-49 58 0 34 15 58 49 58" id="aj"/><path fill="#282c33" d="M30-248c87 1 191-15 191 75 0 78-77 80-158 76V0H30v-248zm33 125c57 0 124 11 124-50 0-59-68-47-124-48v98" id="ak"/><path fill="#282c33" d="M100-194c62-1 85 37 85 99 1 63-27 99-86 99S16-35 15-95c0-66 28-99 85-99zM99-20c44 1 53-31 53-75 0-43-8-75-51-75s-53 32-53 75 10 74 51 75" id="al"/><path fill="#282c33" d="M115-194c55 1 70 41 70 98S169 2 115 4C84 4 66-9 55-30l1 105H24l-1-265h31l2 30c10-21 28-34 59-34zm-8 174c40 0 45-34 45-75s-6-73-45-74c-42 0-51 32-51 76 0 43 10 73 51 73" id="am"/><path fill="#282c33" d="M135-143c-3-34-86-38-87 0 15 53 115 12 119 90S17 21 10-45l28-5c4 36 97 45 98 0-10-56-113-15-118-90-4-57 82-63 122-42 12 7 21 19 24 35" id="an"/><path fill="#282c33" d="M24-231v-30h32v30H24zM24 0v-190h32V0H24" id="ao"/><path fill="#282c33" d="M117-194c89-4 53 116 60 194h-32v-121c0-31-8-49-39-48C34-167 62-67 57 0H25l-1-190h30c1 10-1 24 2 32 11-22 29-35 61-36" id="ap"/><path fill="#282c33" d="M24 0v-261h32V0H24" id="aq"/><path fill="#282c33" d="M140-251c81 0 123 46 123 126C263-46 219 4 140 4 59 4 17-45 17-125s42-126 123-126zm0 227c63 0 89-41 89-101s-29-99-89-99c-61 0-89 39-89 99S79-25 140-24" id="ar"/><path fill="#282c33" d="M115-194c53 0 69 39 70 98 0 66-23 100-70 100C84 3 66-7 56-30L54 0H23l1-261h32v101c10-23 28-34 59-34zm-8 174c40 0 45-34 45-75 0-40-5-75-45-74-42 0-51 32-51 76 0 43 10 73 51 73" id="as"/><path fill="#282c33" d="M24-231v-30h32v30H24zM-9 49c24 4 33-6 33-30v-209h32V24c2 40-23 58-65 49V49" id="at"/><g id="b"><use transform="matrix(0.06234567901234567,0,0,0.06234567901234567,0,0)" xlink:href="#V"/><use transform="matrix(0.06234567901234567,0,0,0.06234567901234567,11.22222222222222,0)" xlink:href="#ad"/><use transform="matrix(0.06234567901234567,0,0,0.06234567901234567,18.641358024691353,0)" xlink:href="#ag"/><use transform="matrix(0.06234567901234567,0,0,0.06234567901234567,37.28271604938271,0)" xlink:href="#W"/><use transform="matrix(0.06234567901234567,0,0,0.06234567901234567,43.51728395061727,0)" xlink:href="#ah"/><use transform="matrix(0.06234567901234567,0,0,0.06234567901234567,58.48024691358023,0)" xlink:href="#ai"/><use transform="matrix(0.06234567901234567,0,0,0.06234567901234567,70.94938271604937,0)" xlink:href="#aj"/><use transform="matrix(0.06234567901234567,0,0,0.06234567901234567,83.41851851851851,0)" xlink:href="#Z"/><use transform="matrix(0.06234567901234567,0,0,0.06234567901234567,95.88765432098765,0)" xlink:href="#ak"/><use transform="matrix(0.06234567901234567,0,0,0.06234567901234567,110.85061728395061,0)" xlink:href="#ad"/><use transform="matrix(0.06234567901234567,0,0,0.06234567901234567,118.26975308641974,0)" xlink:href="#al"/><use transform="matrix(0.06234567901234567,0,0,0.06234567901234567,130.73888888888888,0)" xlink:href="#am"/><use transform="matrix(0.06234567901234567,0,0,0.06234567901234567,143.20802469135802,0)" xlink:href="#al"/><use transform="matrix(0.06234567901234567,0,0,0.06234567901234567,155.67716049382716,0)" xlink:href="#an"/><use transform="matrix(0.06234567901234567,0,0,0.06234567901234567,166.8993827160494,0)" xlink:href="#ao"/><use transform="matrix(0.06234567901234567,0,0,0.06234567901234567,171.8246913580247,0)" xlink:href="#ae"/><use transform="matrix(0.06234567901234567,0,0,0.06234567901234567,178.05925925925925,0)" xlink:href="#ao"/><use transform="matrix(0.06234567901234567,0,0,0.06234567901234567,182.98456790123456,0)" xlink:href="#al"/><use transform="matrix(0.06234567901234567,0,0,0.06234567901234567,195.4537037037037,0)" xlink:href="#ap"/><use transform="matrix(0.06234567901234567,0,0,0.06234567901234567,207.92283950617283,0)" xlink:href="#ac"/><use transform="matrix(0.06234567901234567,0,0,0.06234567901234567,220.39197530864197,0)" xlink:href="#aq"/><use transform="matrix(0.06234567901234567,0,0,0.06234567901234567,225.31728395061728,0)" xlink:href="#Z"/><use transform="matrix(0.06234567901234567,0,0,0.06234567901234567,237.78641975308642,0)" xlink:href="#ar"/><use transform="matrix(0.06234567901234567,0,0,0.06234567901234567,255.2432098765432,0)" xlink:href="#as"/><use transform="matrix(0.06234567901234567,0,0,0.06234567901234567,267.71234567901234,0)" xlink:href="#at"/><use transform="matrix(0.06234567901234567,0,0,0.06234567901234567,272.6376543209877,0)" xlink:href="#af"/><use transform="matrix(0.06234567901234567,0,0,0.06234567901234567,285.1067901234568,0)" xlink:href="#V"/><use transform="matrix(0.06234567901234567,0,0,0.06234567901234567,296.329012345679,0)" xlink:href="#ae"/></g><path fill="#282c33" d="M85-194c31 0 48 13 60 33l-1-100h32l1 261h-30c-2-10 0-23-3-31C134-8 116 4 85 4 32 4 16-35 15-94c0-66 23-100 70-100zm9 24c-40 0-46 34-46 75 0 40 6 74 45 74 42 0 51-32 51-76 0-42-9-74-50-73" id="au"/><path fill="#282c33" d="M108 0H70L1-190h34L89-25l56-165h34" id="av"/><path fill="#282c33" d="M16-82v-28h88v28H16" id="aw"/><g id="c"><use transform="matrix(0.06234567901234567,0,0,0.06234567901234567,0,0)" xlink:href="#au"/><use transform="matrix(0.06234567901234567,0,0,0.06234567901234567,12.469135802469133,0)" xlink:href="#aq"/><use transform="matrix(0.06234567901234567,0,0,0.06234567901234567,17.39444444444444,0)" xlink:href="#am"/><use transform="matrix(0.06234567901234567,0,0,0.06234567901234567,29.86358024691357,0)" xlink:href="#W"/><use transform="matrix(0.06234567901234567,0,0,0.06234567901234567,36.09814814814814,0)" xlink:href="#ac"/><use transform="matrix(0.06234567901234567,0,0,0.06234567901234567,48.56728395061727,0)" xlink:href="#U"/><use transform="matrix(0.06234567901234567,0,0,0.06234567901234567,61.036419753086406,0)" xlink:href="#af"/><use transform="matrix(0.06234567901234567,0,0,0.06234567901234567,73.50555555555553,0)" xlink:href="#ap"/><use transform="matrix(0.06234567901234567,0,0,0.06234567901234567,85.97469135802467,0)" xlink:href="#ae"/><use transform="matrix(0.06234567901234567,0,0,0.06234567901234567,92.20925925925924,0)" xlink:href="#ao"/><use transform="matrix(0.06234567901234567,0,0,0.06234567901234567,97.13456790123455,0)" xlink:href="#av"/><use transform="matrix(0.06234567901234567,0,0,0.06234567901234567,108.35679012345676,0)" xlink:href="#af"/><use transform="matrix(0.06234567901234567,0,0,0.06234567901234567,120.8259259259259,0)" xlink:href="#aw"/><use transform="matrix(0.06234567901234567,0,0,0.06234567901234567,128.24506172839503,0)" xlink:href="#an"/><use transform="matrix(0.06234567901234567,0,0,0.06234567901234567,139.46728395061726,0)" xlink:href="#al"/><use transform="matrix(0.06234567901234567,0,0,0.06234567901234567,151.9364197530864,0)" xlink:href="#V"/><use transform="matrix(0.06234567901234567,0,0,0.06234567901234567,163.15864197530863,0)" xlink:href="#ao"/><use transform="matrix(0.06234567901234567,0,0,0.06234567901234567,168.08395061728393,0)" xlink:href="#ac"/><use transform="matrix(0.06234567901234567,0,0,0.06234567901234567,180.55308641975307,0)" xlink:href="#aq"/><use transform="matrix(0.06234567901234567,0,0,0.06234567901234567,185.47839506172838,0)" xlink:href="#aw"/><use transform="matrix(0.06234567901234567,0,0,0.06234567901234567,192.8975308641975,0)" xlink:href="#al"/><use transform="matrix(0.06234567901234567,0,0,0.06234567901234567,205.36666666666665,0)" xlink:href="#as"/><use transform="matrix(0.06234567901234567,0,0,0.06234567901234567,217.83580246913579,0)" xlink:href="#at"/><use transform="matrix(0.06234567901234567,0,0,0.06234567901234567,222.7611111111111,0)" xlink:href="#af"/><use transform="matrix(0.06234567901234567,0,0,0.06234567901234567,235.23024691358023,0)" xlink:href="#V"/><use transform="matrix(0.06234567901234567,0,0,0.06234567901234567,246.45246913580246,0)" xlink:href="#ae"/></g><path fill="#282c33" d="M197 0v-115H63V0H30v-248h33v105h134v-105h34V0h-34" id="ax"/><path fill="#282c33" d="M179-190L93 31C79 59 56 82 12 73V49c39 6 53-20 64-50L1-190h34L92-34l54-156h33" id="ay"/><g id="d"><use transform="matrix(0.06234567901234567,0,0,0.06234567901234567,0,0)" xlink:href="#ax"/><use transform="matrix(0.06234567901234567,0,0,0.06234567901234567,16.147530864197527,0)" xlink:href="#ac"/><use transform="matrix(0.06234567901234567,0,0,0.06234567901234567,28.61666666666666,0)" xlink:href="#ad"/><use transform="matrix(0.06234567901234567,0,0,0.06234567901234567,36.035802469135795,0)" xlink:href="#ad"/><use transform="matrix(0.06234567901234567,0,0,0.06234567901234567,43.45493827160493,0)" xlink:href="#ay"/></g><g id="e"><use transform="matrix(0.06234567901234567,0,0,0.06234567901234567,0,0)" xlink:href="#ak"/><use transform="matrix(0.06234567901234567,0,0,0.06234567901234567,14.96296296296296,0)" xlink:href="#al"/><use transform="matrix(0.06234567901234567,0,0,0.06234567901234567,27.432098765432094,0)" xlink:href="#ae"/><use transform="matrix(0.06234567901234567,0,0,0.06234567901234567,33.66666666666666,0)" xlink:href="#ae"/><use transform="matrix(0.06234567901234567,0,0,0.06234567901234567,39.90123456790123,0)" xlink:href="#af"/><use transform="matrix(0.06234567901234567,0,0,0.06234567901234567,52.37037037037036,0)" xlink:href="#ad"/></g><g id="f"><use transform="matrix(0.06234567901234567,0,0,0.06234567901234567,0,0)" xlink:href="#ao"/><use transform="matrix(0.06234567901234567,0,0,0.06234567901234567,4.925308641975308,0)" xlink:href="#ap"/></g><path fill="#282c33" d="M187 0l-14-72H61L19 0h-37l149-248h38L221 0h-34zm-19-99l-22-123L76-99h92" id="az"/><path fill="#282c33" d="M6 0l50-261h32L37 0H6" id="aA"/><g id="g"><use transform="matrix(0.06234567901234567,0,0,0.06234567901234567,0,0)" xlink:href="#az"/><use transform="matrix(0.06234567901234567,0,0,0.06234567901234567,14.96296296296296,0)" xlink:href="#aA"/><use transform="matrix(0.06234567901234567,0,0,0.06234567901234567,19.888271604938268,0)" xlink:href="#aA"/></g><path fill="#282c33" d="M247 0h-39l-15-214-24 57L95 0H56L31-248h35L82-30l101-218h33l16 218 101-218h35" id="aB"/><path fill="#282c33" d="M111-194c62-3 86 47 72 106H45c-7 38 6 69 45 68 27-1 43-14 53-32l24 11C152-15 129 4 87 4 38 3 12-23 12-71c0-70 32-119 99-123zm44 81c14-66-71-72-95-28-4 8-8 17-11 28h106" id="aC"/><g id="h"><use transform="matrix(0.06234567901234567,0,0,0.06234567901234567,0,0)" xlink:href="#aB"/><use transform="matrix(0.06234567901234567,0,0,0.06234567901234567,20.698765432098764,0)" xlink:href="#aC"/></g><path fill="#282c33" d="M173 0L80-213 41 0H11l48-248h37l94 214 40-214h30L212 0h-39" id="aD"/><path fill="#282c33" d="M133-28C103 26-5 8 13-77c13-62 24-115 90-117 29-1 46 15 56 35l19-102h32L160 0h-30zM45-64c-2 27 10 43 35 43 54-1 69-50 69-103 0-29-15-46-42-46-53-1-58 58-62 106" id="aE"/><g id="i"><use transform="matrix(0.06234567901234567,0,0,0.06234567901234567,0,0)" xlink:href="#aD"/><use transform="matrix(0.06234567901234567,0,0,0.06234567901234567,16.147530864197527,0)" xlink:href="#aC"/><use transform="matrix(0.06234567901234567,0,0,0.06234567901234567,28.61666666666666,0)" xlink:href="#aC"/><use transform="matrix(0.06234567901234567,0,0,0.06234567901234567,41.08580246913579,0)" xlink:href="#aE"/></g><path fill="#282c33" d="M50-231l6-30h32l-6 30H50zM6 0l37-190h31L37 0H6" id="aF"/><path fill="#282c33" d="M55-144c13 50 104 24 104 88C159 21 15 23 1-39l26-10c6 40 102 42 102-4-13-50-104-23-104-87 0-71 143-71 148-8l-29 4c-5-35-85-37-89 0" id="aG"/><g id="j"><use transform="matrix(0.06234567901234567,0,0,0.06234567901234567,0,0)" xlink:href="#aF"/><use transform="matrix(0.06234567901234567,0,0,0.06234567901234567,4.925308641975308,0)" xlink:href="#aG"/></g><path fill="#282c33" d="M179 0l23-115H67L45 0H11l48-248h34L72-143h135l21-105h32L212 0h-33" id="aH"/><path fill="#282c33" d="M30-147c31-64 166-65 159 27C183-49 158 1 86 4 9 8 1-88 30-147zM88-20c53 0 68-48 68-100 0-31-11-51-44-50-52 1-68 46-68 97 0 32 13 53 44 53" id="aI"/><path fill="#282c33" d="M67-162c32-53 139-36 121 50C175-51 163 2 97 4 68 4 52-11 42-31 38 6 28 39 22 75H-9l50-265h29c-1 10 0 20-3 28zm89 36c0-26-10-43-35-43-54 0-67 50-69 103-1 29 14 45 42 46 53 0 62-58 62-106" id="aJ"/><g id="k"><use transform="matrix(0.06234567901234567,0,0,0.06234567901234567,0,0)" xlink:href="#aH"/><use transform="matrix(0.06234567901234567,0,0,0.06234567901234567,16.147530864197527,0)" xlink:href="#aI"/><use transform="matrix(0.06234567901234567,0,0,0.06234567901234567,28.61666666666666,0)" xlink:href="#aJ"/><use transform="matrix(0.06234567901234567,0,0,0.06234567901234567,41.08580246913579,0)" xlink:href="#aC"/></g><path fill="#282c33" d="M101-251c68 0 85 55 85 127S166 4 100 4C33 4 14-52 14-124c0-73 17-127 87-127zm-1 229c47 0 54-49 54-102s-4-102-53-102c-51 0-55 48-55 102 0 53 5 102 54 102" id="aK"/><path fill="#282c33" d="M185-189c-5-48-123-54-124 2 14 75 158 14 163 119 3 78-121 87-175 55-17-10-28-26-33-46l33-7c5 56 141 63 141-1 0-78-155-14-162-118-5-82 145-84 179-34 5 7 8 16 11 25" id="aL"/><path fill="#282c33" d="M101-234c-31-9-42 10-38 44h38v23H63V0H32v-167H5v-23h27c-7-52 17-82 69-68v24" id="aM"/><g id="l"><use transform="matrix(0.06234567901234567,0,0,0.06234567901234567,0,0)" xlink:href="#U"/><use transform="matrix(0.06234567901234567,0,0,0.06234567901234567,12.469135802469133,0)" xlink:href="#V"/><use transform="matrix(0.06234567901234567,0,0,0.06234567901234567,23.691358024691354,0)" xlink:href="#W"/><use transform="matrix(0.06234567901234567,0,0,0.06234567901234567,29.92592592592592,0)" xlink:href="#X"/><use transform="matrix(0.06234567901234567,0,0,0.06234567901234567,47.38271604938271,0)" xlink:href="#aK"/><use transform="matrix(0.06234567901234567,0,0,0.06234567901234567,59.85185185185184,0)" xlink:href="#Z"/><use transform="matrix(0.06234567901234567,0,0,0.06234567901234567,72.32098765432097,0)" xlink:href="#aa"/><use transform="matrix(0.06234567901234567,0,0,0.06234567901234567,88.4685185185185,0)" xlink:href="#ab"/><use transform="matrix(0.06234567901234567,0,0,0.06234567901234567,100.93765432098763,0)" xlink:href="#ac"/><use transform="matrix(0.06234567901234567,0,0,0.06234567901234567,113.40679012345677,0)" xlink:href="#ad"/><use transform="matrix(0.06234567901234567,0,0,0.06234567901234567,120.8259259259259,0)" xlink:href="#ac"/><use transform="matrix(0.06234567901234567,0,0,0.06234567901234567,133.29506172839504,0)" xlink:href="#V"/><use transform="matrix(0.06234567901234567,0,0,0.06234567901234567,144.51728395061727,0)" xlink:href="#ae"/><use transform="matrix(0.06234567901234567,0,0,0.06234567901234567,150.75185185185182,0)" xlink:href="#af"/><use transform="matrix(0.06234567901234567,0,0,0.06234567901234567,163.22098765432096,0)" xlink:href="#ad"/><use transform="matrix(0.06234567901234567,0,0,0.06234567901234567,170.6401234567901,0)" xlink:href="#aw"/><use transform="matrix(0.06234567901234567,0,0,0.06234567901234567,178.05925925925922,0)" xlink:href="#aL"/><use transform="matrix(0.06234567901234567,0,0,0.06234567901234567,193.02222222222218,0)" xlink:href="#ae"/><use transform="matrix(0.06234567901234567,0,0,0.06234567901234567,199.25679012345674,0)" xlink:href="#al"/><use transform="matrix(0.06234567901234567,0,0,0.06234567901234567,211.72592592592588,0)" xlink:href="#aM"/><use transform="matrix(0.06234567901234567,0,0,0.06234567901234567,217.524074074074,0)" xlink:href="#aM"/></g><g id="m"><use transform="matrix(0.06234567901234567,0,0,0.06234567901234567,0,0)" xlink:href="#V"/><use transform="matrix(0.06234567901234567,0,0,0.06234567901234567,11.22222222222222,0)" xlink:href="#ad"/><use transform="matrix(0.06234567901234567,0,0,0.06234567901234567,18.641358024691353,0)" xlink:href="#ag"/><use transform="matrix(0.06234567901234567,0,0,0.06234567901234567,37.28271604938271,0)" xlink:href="#W"/><use transform="matrix(0.06234567901234567,0,0,0.06234567901234567,43.51728395061727,0)" xlink:href="#ah"/><use transform="matrix(0.06234567901234567,0,0,0.06234567901234567,58.48024691358023,0)" xlink:href="#ai"/><use transform="matrix(0.06234567901234567,0,0,0.06234567901234567,70.94938271604937,0)" xlink:href="#aj"/><use transform="matrix(0.06234567901234567,0,0,0.06234567901234567,83.41851851851851,0)" xlink:href="#Z"/><use transform="matrix(0.06234567901234567,0,0,0.06234567901234567,95.88765432098765,0)" xlink:href="#ak"/><use transform="matrix(0.06234567901234567,0,0,0.06234567901234567,110.85061728395061,0)" xlink:href="#ad"/><use transform="matrix(0.06234567901234567,0,0,0.06234567901234567,118.26975308641974,0)" xlink:href="#al"/><use transform="matrix(0.06234567901234567,0,0,0.06234567901234567,130.73888888888888,0)" xlink:href="#am"/><use transform="matrix(0.06234567901234567,0,0,0.06234567901234567,143.20802469135802,0)" xlink:href="#al"/><use transform="matrix(0.06234567901234567,0,0,0.06234567901234567,155.67716049382716,0)" xlink:href="#an"/><use transform="matrix(0.06234567901234567,0,0,0.06234567901234567,166.8993827160494,0)" xlink:href="#ao"/><use transform="matrix(0.06234567901234567,0,0,0.06234567901234567,171.8246913580247,0)" xlink:href="#ae"/><use transform="matrix(0.06234567901234567,0,0,0.06234567901234567,178.05925925925925,0)" xlink:href="#ao"/><use transform="matrix(0.06234567901234567,0,0,0.06234567901234567,182.98456790123456,0)" xlink:href="#al"/><use transform="matrix(0.06234567901234567,0,0,0.06234567901234567,195.4537037037037,0)" xlink:href="#ap"/><use transform="matrix(0.06234567901234567,0,0,0.06234567901234567,207.92283950617283,0)" xlink:href="#ac"/><use transform="matrix(0.06234567901234567,0,0,0.06234567901234567,220.39197530864197,0)" xlink:href="#aq"/><use transform="matrix(0.06234567901234567,0,0,0.06234567901234567,225.31728395061728,0)" xlink:href="#Z"/><use transform="matrix(0.06234567901234567,0,0,0.06234567901234567,237.78641975308642,0)" xlink:href="#ar"/><use transform="matrix(0.06234567901234567,0,0,0.06234567901234567,255.2432098765432,0)" xlink:href="#as"/><use transform="matrix(0.06234567901234567,0,0,0.06234567901234567,267.71234567901234,0)" xlink:href="#at"/><use transform="matrix(0.06234567901234567,0,0,0.06234567901234567,272.6376543209877,0)" xlink:href="#af"/><use transform="matrix(0.06234567901234567,0,0,0.06234567901234567,285.1067901234568,0)" xlink:href="#V"/><use transform="matrix(0.06234567901234567,0,0,0.06234567901234567,296.329012345679,0)" xlink:href="#ae"/></g><g id="n"><use transform="matrix(0.06234567901234567,0,0,0.06234567901234567,0,0)" xlink:href="#ak"/><use transform="matrix(0.06234567901234567,0,0,0.06234567901234567,14.96296296296296,0)" xlink:href="#al"/><use transform="matrix(0.06234567901234567,0,0,0.06234567901234567,27.432098765432094,0)" xlink:href="#ae"/><use transform="matrix(0.06234567901234567,0,0,0.06234567901234567,33.66666666666666,0)" xlink:href="#ae"/><use transform="matrix(0.06234567901234567,0,0,0.06234567901234567,39.90123456790123,0)" xlink:href="#af"/><use transform="matrix(0.06234567901234567,0,0,0.06234567901234567,52.37037037037036,0)" xlink:href="#ad"/></g><g id="o"><use transform="matrix(0.06234567901234567,0,0,0.06234567901234567,0,0)" xlink:href="#ao"/><use transform="matrix(0.06234567901234567,0,0,0.06234567901234567,4.925308641975308,0)" xlink:href="#ap"/></g><path fill="#282c33" d="M165-48c-4 18 1 34 23 27l-3 20c-29 8-62 0-52-35h-2C116-14 99 4 63 4 30 4 8-16 8-49c0-68 71-67 138-67 10-26 0-56-31-54-26 1-42 9-47 31l-32-5c8-67 160-71 144 15-5 28-9 54-15 81zM42-50c3 52 80 24 89-6 7-12 7-24 11-38-47 1-103-4-100 44" id="aN"/><path fill="#282c33" d="M66-151c12-25 30-51 66-40l-6 26C45-176 58-65 38 0H6l36-190h30" id="aO"/><path fill="#282c33" d="M198-190L69 30C53 58 25 83-20 72c4-11-1-27 19-22 33-1 43-29 59-52L20-190h32L79-34l84-156h35" id="aP"/><g id="p"><use transform="matrix(0.06234567901234567,0,0,0.06234567901234567,0,0)" xlink:href="#aH"/><use transform="matrix(0.06234567901234567,0,0,0.06234567901234567,16.147530864197527,0)" xlink:href="#aN"/><use transform="matrix(0.06234567901234567,0,0,0.06234567901234567,28.61666666666666,0)" xlink:href="#aO"/><use transform="matrix(0.06234567901234567,0,0,0.06234567901234567,36.035802469135795,0)" xlink:href="#aO"/><use transform="matrix(0.06234567901234567,0,0,0.06234567901234567,43.45493827160493,0)" xlink:href="#aP"/></g><path fill="#282c33" d="M238-179c0 84-86 86-175 82L45 0H11l48-248c82 0 179-12 179 69zm-34 1c0-53-64-42-116-43l-19 98c63 0 135 9 135-55" id="aQ"/><path fill="#282c33" d="M51-54c-9 22 5 41 31 30L79-1C43 14 10-4 19-52l22-115H19l5-23h22l19-43h21l-9 43h35l-4 23H73" id="aR"/><g id="q"><use transform="matrix(0.06234567901234567,0,0,0.06234567901234567,0,0)" xlink:href="#aQ"/><use transform="matrix(0.06234567901234567,0,0,0.06234567901234567,14.96296296296296,0)" xlink:href="#aI"/><use transform="matrix(0.06234567901234567,0,0,0.06234567901234567,27.432098765432094,0)" xlink:href="#aR"/><use transform="matrix(0.06234567901234567,0,0,0.06234567901234567,33.66666666666666,0)" xlink:href="#aR"/><use transform="matrix(0.06234567901234567,0,0,0.06234567901234567,39.90123456790123,0)" xlink:href="#aC"/><use transform="matrix(0.06234567901234567,0,0,0.06234567901234567,52.37037037037036,0)" xlink:href="#aO"/></g><path fill="#282c33" d="M67-158c22-48 132-52 116 29L158 0h-32l25-140c3-38-53-32-70-12C52-117 51-52 38 0H6l36-190h30" id="aS"/><g id="r"><use transform="matrix(0.06234567901234567,0,0,0.06234567901234567,0,0)" xlink:href="#aN"/><use transform="matrix(0.06234567901234567,0,0,0.06234567901234567,12.469135802469133,0)" xlink:href="#aS"/><use transform="matrix(0.06234567901234567,0,0,0.06234567901234567,24.938271604938265,0)" xlink:href="#aE"/></g><path fill="#282c33" d="M67-158c15-20 31-36 64-36 94 0 33 127 27 194h-32l25-140c3-38-53-32-70-12C52-117 51-51 37 0H6l51-261h31" id="aT"/><g id="s"><use transform="matrix(0.06234567901234567,0,0,0.06234567901234567,0,0)" xlink:href="#aR"/><use transform="matrix(0.06234567901234567,0,0,0.06234567901234567,6.234567901234566,0)" xlink:href="#aT"/><use transform="matrix(0.06234567901234567,0,0,0.06234567901234567,18.7037037037037,0)" xlink:href="#aC"/></g><path fill="#282c33" d="M60-170H36l11-78h32" id="aU"/><g id="t"><use transform="matrix(0.06234567901234567,0,0,0.06234567901234567,0,0)" xlink:href="#aQ"/><use transform="matrix(0.06234567901234567,0,0,0.06234567901234567,14.96296296296296,0)" xlink:href="#aT"/><use transform="matrix(0.06234567901234567,0,0,0.06234567901234567,27.432098765432094,0)" xlink:href="#aF"/><use transform="matrix(0.06234567901234567,0,0,0.06234567901234567,32.3574074074074,0)" xlink:href="#aA"/><use transform="matrix(0.06234567901234567,0,0,0.06234567901234567,37.28271604938271,0)" xlink:href="#aI"/><use transform="matrix(0.06234567901234567,0,0,0.06234567901234567,49.75185185185184,0)" xlink:href="#aG"/><use transform="matrix(0.06234567901234567,0,0,0.06234567901234567,60.97407407407406,0)" xlink:href="#aI"/><use transform="matrix(0.06234567901234567,0,0,0.06234567901234567,73.4432098765432,0)" xlink:href="#aJ"/><use transform="matrix(0.06234567901234567,0,0,0.06234567901234567,85.91234567901233,0)" xlink:href="#aT"/><use transform="matrix(0.06234567901234567,0,0,0.06234567901234567,98.38148148148147,0)" xlink:href="#aC"/><use transform="matrix(0.06234567901234567,0,0,0.06234567901234567,110.85061728395061,0)" xlink:href="#aO"/><use transform="matrix(0.06234567901234567,0,0,0.06234567901234567,118.26975308641974,0)" xlink:href="#aU"/><use transform="matrix(0.06234567901234567,0,0,0.06234567901234567,122.50925925925924,0)" xlink:href="#aG"/></g><path fill="#282c33" d="M194-120c59 52 2 134-86 124-53-6-90-18-98-63l31-7c8 30 29 43 70 43 46 0 84-17 71-62-32-43-135-20-137-98-3-89 178-90 191-16l-30 9c-8-48-127-53-127 5 0 53 81 35 115 65" id="aV"/><g id="u"><use transform="matrix(0.06234567901234567,0,0,0.06234567901234567,0,0)" xlink:href="#aV"/><use transform="matrix(0.06234567901234567,0,0,0.06234567901234567,14.96296296296296,0)" xlink:href="#aR"/><use transform="matrix(0.06234567901234567,0,0,0.06234567901234567,21.197530864197525,0)" xlink:href="#aI"/><use transform="matrix(0.06234567901234567,0,0,0.06234567901234567,33.66666666666666,0)" xlink:href="#aS"/><use transform="matrix(0.06234567901234567,0,0,0.06234567901234567,46.13580246913579,0)" xlink:href="#aC"/></g><g id="v"><use transform="matrix(0.06234567901234567,0,0,0.06234567901234567,0,0)" xlink:href="#aR"/><use transform="matrix(0.06234567901234567,0,0,0.06234567901234567,6.234567901234566,0)" xlink:href="#aT"/><use transform="matrix(0.06234567901234567,0,0,0.06234567901234567,18.7037037037037,0)" xlink:href="#aC"/></g><path fill="#282c33" d="M125-24c46 0 70-25 89-51l25 16C214-24 183 4 123 4 8 4-5-146 60-208c32-50 158-61 191-5 5 7 9 14 11 22l-32 10c-9-28-33-43-69-43-74 0-108 51-108 125 0 46 24 75 72 75" id="aW"/><path fill="#282c33" d="M248-111c6-24 9-61-24-58-72 9-57 108-77 169h-31l26-142c3-37-50-30-64-10C52-115 50-51 37 0H6l36-190h30c-1 10-6 24-4 32 13-43 101-52 105 5 13-22 29-41 61-41 90 0 28 129 23 194h-31" id="aX"/><path fill="#282c33" d="M68-162c25-46 127-43 121 31C183-60 169 1 98 4 69 5 53-11 43-31L36 0H5l52-261h31zm88 36c2-27-9-43-34-43-55 0-70 51-70 103 0 29 15 45 43 46 52 0 58-58 61-106" id="aY"/><g id="w"><use transform="matrix(0.06234567901234567,0,0,0.06234567901234567,0,0)" xlink:href="#aW"/><use transform="matrix(0.06234567901234567,0,0,0.06234567901234567,16.147530864197527,0)" xlink:href="#aT"/><use transform="matrix(0.06234567901234567,0,0,0.06234567901234567,28.61666666666666,0)" xlink:href="#aN"/><use transform="matrix(0.06234567901234567,0,0,0.06234567901234567,41.08580246913579,0)" xlink:href="#aX"/><use transform="matrix(0.06234567901234567,0,0,0.06234567901234567,59.72716049382714,0)" xlink:href="#aY"/><use transform="matrix(0.06234567901234567,0,0,0.06234567901234567,72.19629629629628,0)" xlink:href="#aC"/><use transform="matrix(0.06234567901234567,0,0,0.06234567901234567,84.66543209876542,0)" xlink:href="#aO"/></g><path fill="#282c33" d="M76-167L44 0H12l33-167H18l4-23h27c3-47 25-81 82-69l-4 24c-35-8-44 15-46 45h37l-5 23H76" id="aZ"/><g id="x"><use transform="matrix(0.06234567901234567,0,0,0.06234567901234567,0,0)" xlink:href="#aI"/><use transform="matrix(0.06234567901234567,0,0,0.06234567901234567,12.469135802469133,0)" xlink:href="#aZ"/></g><path fill="#282c33" d="M44-68c0 29 11 47 38 47 30 0 42-19 51-41l28 9C148-21 126 4 82 4 31 4 10-29 12-85c3-77 74-140 146-93 12 8 15 23 18 40l-31 5c-1-22-13-36-36-36-52 0-65 49-65 101" id="ba"/><g id="y"><use transform="matrix(0.06234567901234567,0,0,0.06234567901234567,0,0)" xlink:href="#aV"/><use transform="matrix(0.06234567901234567,0,0,0.06234567901234567,14.96296296296296,0)" xlink:href="#aC"/><use transform="matrix(0.06234567901234567,0,0,0.06234567901234567,27.432098765432094,0)" xlink:href="#ba"/><use transform="matrix(0.06234567901234567,0,0,0.06234567901234567,38.654320987654316,0)" xlink:href="#aO"/><use transform="matrix(0.06234567901234567,0,0,0.06234567901234567,46.07345679012345,0)" xlink:href="#aC"/><use transform="matrix(0.06234567901234567,0,0,0.06234567901234567,58.542592592592584,0)" xlink:href="#aR"/><use transform="matrix(0.06234567901234567,0,0,0.06234567901234567,64.77716049382715,0)" xlink:href="#aG"/></g><path fill="#282c33" d="M126-127c33 6 58 20 58 59 0 88-139 92-164 29-3-8-5-16-6-25l32-3c6 27 21 44 54 44 32 0 52-15 52-46 0-38-36-46-79-43v-28c39 1 72-4 72-42 0-27-17-43-46-43-28 0-47 15-49 41l-32-3c6-42 35-63 81-64 48-1 79 21 79 65 0 36-21 52-52 59" id="bb"/><path fill="#282c33" d="M84 4C-5 8 30-112 23-190h32v120c0 31 7 50 39 49 72-2 45-101 50-169h31l1 190h-30c-1-10 1-25-2-33-11 22-28 36-60 37" id="bc"/><g id="z"><use transform="matrix(0.06234567901234567,0,0,0.06234567901234567,0,0)" xlink:href="#V"/><use transform="matrix(0.06234567901234567,0,0,0.06234567901234567,11.22222222222222,0)" xlink:href="#ad"/><use transform="matrix(0.06234567901234567,0,0,0.06234567901234567,18.641358024691353,0)" xlink:href="#ag"/><use transform="matrix(0.06234567901234567,0,0,0.06234567901234567,37.28271604938271,0)" xlink:href="#W"/><use transform="matrix(0.06234567901234567,0,0,0.06234567901234567,43.51728395061727,0)" xlink:href="#ak"/><use transform="matrix(0.06234567901234567,0,0,0.06234567901234567,58.48024691358023,0)" xlink:href="#Y"/><use transform="matrix(0.06234567901234567,0,0,0.06234567901234567,70.94938271604937,0)" xlink:href="#bb"/><use transform="matrix(0.06234567901234567,0,0,0.06234567901234567,83.41851851851851,0)" xlink:href="#aK"/><use transform="matrix(0.06234567901234567,0,0,0.06234567901234567,95.88765432098765,0)" xlink:href="#Z"/><use transform="matrix(0.06234567901234567,0,0,0.06234567901234567,108.35679012345679,0)" xlink:href="#aM"/><use transform="matrix(0.06234567901234567,0,0,0.06234567901234567,114.59135802469136,0)" xlink:href="#af"/><use transform="matrix(0.06234567901234567,0,0,0.06234567901234567,127.06049382716049,0)" xlink:href="#ac"/><use transform="matrix(0.06234567901234567,0,0,0.06234567901234567,139.52962962962962,0)" xlink:href="#ae"/><use transform="matrix(0.06234567901234567,0,0,0.06234567901234567,145.76419753086418,0)" xlink:href="#bc"/><use transform="matrix(0.06234567901234567,0,0,0.06234567901234567,158.23333333333332,0)" xlink:href="#ad"/><use transform="matrix(0.06234567901234567,0,0,0.06234567901234567,165.65246913580245,0)" xlink:href="#af"/><use transform="matrix(0.06234567901234567,0,0,0.06234567901234567,178.1216049382716,0)" xlink:href="#an"/><use transform="matrix(0.06234567901234567,0,0,0.06234567901234567,189.34382716049382,0)" xlink:href="#Z"/><use transform="matrix(0.06234567901234567,0,0,0.06234567901234567,201.81296296296296,0)" xlink:href="#ac"/><use transform="matrix(0.06234567901234567,0,0,0.06234567901234567,214.2820987654321,0)" xlink:href="#ad"/><use transform="matrix(0.06234567901234567,0,0,0.06234567901234567,221.70123456790122,0)" xlink:href="#af"/><use transform="matrix(0.06234567901234567,0,0,0.06234567901234567,234.17037037037036,0)" xlink:href="#Z"/><use transform="matrix(0.06234567901234567,0,0,0.06234567901234567,246.6395061728395,0)" xlink:href="#ac"/><use transform="matrix(0.06234567901234567,0,0,0.06234567901234567,259.1086419753086,0)" xlink:href="#aq"/><use transform="matrix(0.06234567901234567,0,0,0.06234567901234567,264.03395061728395,0)" xlink:href="#an"/><use transform="matrix(0.06234567901234567,0,0,0.06234567901234567,275.2561728395062,0)" xlink:href="#al"/><use transform="matrix(0.06234567901234567,0,0,0.06234567901234567,287.7253086419753,0)" xlink:href="#Z"/><use transform="matrix(0.06234567901234567,0,0,0.06234567901234567,300.1944444444444,0)" xlink:href="#aM"/><use transform="matrix(0.06234567901234567,0,0,0.06234567901234567,306.429012345679,0)" xlink:href="#al"/><use transform="matrix(0.06234567901234567,0,0,0.06234567901234567,318.8981481481481,0)" xlink:href="#bc"/><use transform="matrix(0.06234567901234567,0,0,0.06234567901234567,331.3672839506172,0)" xlink:href="#ap"/><use transform="matrix(0.06234567901234567,0,0,0.06234567901234567,343.8364197530863,0)" xlink:href="#au"/><use transform="matrix(0.06234567901234567,0,0,0.06234567901234567,356.30555555555543,0)" xlink:href="#Z"/><use transform="matrix(0.06234567901234567,0,0,0.06234567901234567,368.77469135802454,0)" xlink:href="#al"/><use transform="matrix(0.06234567901234567,0,0,0.06234567901234567,381.24382716049365,0)" xlink:href="#ap"/></g><path fill="#282c33" d="M206 0h-36l-40-164L89 0H53L-1-190h32L70-26l43-164h34l41 164 42-164h31" id="bd"/><g id="A"><use transform="matrix(0.06234567901234567,0,0,0.06234567901234567,0,0)" xlink:href="#V"/><use transform="matrix(0.06234567901234567,0,0,0.06234567901234567,11.22222222222222,0)" xlink:href="#ad"/><use transform="matrix(0.06234567901234567,0,0,0.06234567901234567,18.641358024691353,0)" xlink:href="#ag"/><use transform="matrix(0.06234567901234567,0,0,0.06234567901234567,37.28271604938271,0)" xlink:href="#W"/><use transform="matrix(0.06234567901234567,0,0,0.06234567901234567,43.51728395061727,0)" xlink:href="#ak"/><use transform="matrix(0.06234567901234567,0,0,0.06234567901234567,58.48024691358023,0)" xlink:href="#Y"/><use transform="matrix(0.06234567901234567,0,0,0.06234567901234567,70.94938271604937,0)" xlink:href="#bb"/><use transform="matrix(0.06234567901234567,0,0,0.06234567901234567,83.41851851851851,0)" xlink:href="#aK"/><use transform="matrix(0.06234567901234567,0,0,0.06234567901234567,95.88765432098765,0)" xlink:href="#Z"/><use transform="matrix(0.06234567901234567,0,0,0.06234567901234567,108.35679012345679,0)" xlink:href="#an"/><use transform="matrix(0.06234567901234567,0,0,0.06234567901234567,119.579012345679,0)" xlink:href="#ab"/><use transform="matrix(0.06234567901234567,0,0,0.06234567901234567,132.04814814814813,0)" xlink:href="#al"/><use transform="matrix(0.06234567901234567,0,0,0.06234567901234567,144.51728395061727,0)" xlink:href="#bd"/><use transform="matrix(0.06234567901234567,0,0,0.06234567901234567,160.6648148148148,0)" xlink:href="#an"/><use transform="matrix(0.06234567901234567,0,0,0.06234567901234567,171.88703703703703,0)" xlink:href="#Z"/><use transform="matrix(0.06234567901234567,0,0,0.06234567901234567,184.35617283950617,0)" xlink:href="#aM"/><use transform="matrix(0.06234567901234567,0,0,0.06234567901234567,190.59074074074073,0)" xlink:href="#af"/><use transform="matrix(0.06234567901234567,0,0,0.06234567901234567,203.05987654320987,0)" xlink:href="#ac"/><use transform="matrix(0.06234567901234567,0,0,0.06234567901234567,215.529012345679,0)" xlink:href="#ae"/><use transform="matrix(0.06234567901234567,0,0,0.06234567901234567,221.76358024691356,0)" xlink:href="#bc"/><use transform="matrix(0.06234567901234567,0,0,0.06234567901234567,234.2327160493827,0)" xlink:href="#ad"/><use transform="matrix(0.06234567901234567,0,0,0.06234567901234567,241.65185185185183,0)" xlink:href="#af"/><use transform="matrix(0.06234567901234567,0,0,0.06234567901234567,254.12098765432097,0)" xlink:href="#an"/><use transform="matrix(0.06234567901234567,0,0,0.06234567901234567,265.3432098765432,0)" xlink:href="#Z"/><use transform="matrix(0.06234567901234567,0,0,0.06234567901234567,277.8123456790123,0)" xlink:href="#al"/><use transform="matrix(0.06234567901234567,0,0,0.06234567901234567,290.2814814814814,0)" xlink:href="#aM"/></g><path fill="#282c33" d="M145-31C134-9 116 4 85 4 32 4 16-35 15-94c0-59 17-99 70-100 32-1 48 14 60 33 0-11-1-24 2-32h30l-1 268h-32zM93-21c41 0 51-33 51-76s-8-73-50-73c-40 0-46 35-46 75s5 74 45 74" id="be"/><g id="B"><use transform="matrix(0.06234567901234567,0,0,0.06234567901234567,0,0)" xlink:href="#au"/><use transform="matrix(0.06234567901234567,0,0,0.06234567901234567,12.469135802469133,0)" xlink:href="#aq"/><use transform="matrix(0.06234567901234567,0,0,0.06234567901234567,17.39444444444444,0)" xlink:href="#am"/><use transform="matrix(0.06234567901234567,0,0,0.06234567901234567,29.86358024691357,0)" xlink:href="#W"/><use transform="matrix(0.06234567901234567,0,0,0.06234567901234567,36.09814814814814,0)" xlink:href="#ab"/><use transform="matrix(0.06234567901234567,0,0,0.06234567901234567,48.56728395061727,0)" xlink:href="#ac"/><use transform="matrix(0.06234567901234567,0,0,0.06234567901234567,61.036419753086406,0)" xlink:href="#an"/><use transform="matrix(0.06234567901234567,0,0,0.06234567901234567,72.25864197530862,0)" xlink:href="#Z"/><use transform="matrix(0.06234567901234567,0,0,0.06234567901234567,84.72777777777776,0)" xlink:href="#be"/><use transform="matrix(0.06234567901234567,0,0,0.06234567901234567,97.1969135802469,0)" xlink:href="#bc"/><use transform="matrix(0.06234567901234567,0,0,0.06234567901234567,109.66604938271604,0)" xlink:href="#ac"/><use transform="matrix(0.06234567901234567,0,0,0.06234567901234567,122.13518518518518,0)" xlink:href="#aq"/><use transform="matrix(0.06234567901234567,0,0,0.06234567901234567,127.06049382716049,0)" xlink:href="#ao"/><use transform="matrix(0.06234567901234567,0,0,0.06234567901234567,131.9858024691358,0)" xlink:href="#ae"/><use transform="matrix(0.06234567901234567,0,0,0.06234567901234567,138.22037037037035,0)" xlink:href="#ay"/></g><g id="C"><use transform="matrix(0.06234567901234567,0,0,0.06234567901234567,0,0)" xlink:href="#au"/><use transform="matrix(0.06234567901234567,0,0,0.06234567901234567,12.469135802469133,0)" xlink:href="#aq"/><use transform="matrix(0.06234567901234567,0,0,0.06234567901234567,17.39444444444444,0)" xlink:href="#am"/><use transform="matrix(0.06234567901234567,0,0,0.06234567901234567,29.86358024691357,0)" xlink:href="#W"/><use transform="matrix(0.06234567901234567,0,0,0.06234567901234567,36.09814814814814,0)" xlink:href="#ao"/><use transform="matrix(0.06234567901234567,0,0,0.06234567901234567,41.02345679012345,0)" xlink:href="#ap"/><use transform="matrix(0.06234567901234567,0,0,0.06234567901234567,53.49259259259258,0)" xlink:href="#ab"/><use transform="matrix(0.06234567901234567,0,0,0.06234567901234567,65.96172839506171,0)" xlink:href="#af"/><use transform="matrix(0.06234567901234567,0,0,0.06234567901234567,78.43086419753084,0)" xlink:href="#ad"/><use transform="matrix(0.06234567901234567,0,0,0.06234567901234567,85.84999999999997,0)" xlink:href="#af"/><use transform="matrix(0.06234567901234567,0,0,0.06234567901234567,98.3191358024691,0)" xlink:href="#ap"/><use transform="matrix(0.06234567901234567,0,0,0.06234567901234567,110.78827160493825,0)" xlink:href="#ae"/><use transform="matrix(0.06234567901234567,0,0,0.06234567901234567,117.02283950617282,0)" xlink:href="#aw"/><use transform="matrix(0.06234567901234567,0,0,0.06234567901234567,124.44197530864194,0)" xlink:href="#ao"/><use transform="matrix(0.06234567901234567,0,0,0.06234567901234567,129.36728395061726,0)" xlink:href="#ap"/></g><path fill="#282c33" d="M101-251c82-7 93 87 43 132L82-64C71-53 59-42 53-27h129V0H18c2-99 128-94 128-182 0-28-16-43-45-43s-46 15-49 41l-32-3c6-41 34-60 81-64" id="bf"/><path fill="#282c33" d="M63-220v92h138v28H63V0H30v-248h175v28H63" id="bg"/><g id="D"><use transform="matrix(0.06234567901234567,0,0,0.06234567901234567,0,0)" xlink:href="#U"/><use transform="matrix(0.06234567901234567,0,0,0.06234567901234567,12.469135802469133,0)" xlink:href="#V"/><use transform="matrix(0.06234567901234567,0,0,0.06234567901234567,23.691358024691354,0)" xlink:href="#W"/><use transform="matrix(0.06234567901234567,0,0,0.06234567901234567,29.92592592592592,0)" xlink:href="#X"/><use transform="matrix(0.06234567901234567,0,0,0.06234567901234567,47.38271604938271,0)" xlink:href="#bf"/><use transform="matrix(0.06234567901234567,0,0,0.06234567901234567,59.85185185185184,0)" xlink:href="#Z"/><use transform="matrix(0.06234567901234567,0,0,0.06234567901234567,72.32098765432097,0)" xlink:href="#aa"/><use transform="matrix(0.06234567901234567,0,0,0.06234567901234567,88.4685185185185,0)" xlink:href="#ab"/><use transform="matrix(0.06234567901234567,0,0,0.06234567901234567,100.93765432098763,0)" xlink:href="#ac"/><use transform="matrix(0.06234567901234567,0,0,0.06234567901234567,113.40679012345677,0)" xlink:href="#ad"/><use transform="matrix(0.06234567901234567,0,0,0.06234567901234567,120.8259259259259,0)" xlink:href="#ac"/><use transform="matrix(0.06234567901234567,0,0,0.06234567901234567,133.29506172839504,0)" xlink:href="#V"/><use transform="matrix(0.06234567901234567,0,0,0.06234567901234567,144.51728395061727,0)" xlink:href="#ae"/><use transform="matrix(0.06234567901234567,0,0,0.06234567901234567,150.75185185185182,0)" xlink:href="#af"/><use transform="matrix(0.06234567901234567,0,0,0.06234567901234567,163.22098765432096,0)" xlink:href="#ad"/><use transform="matrix(0.06234567901234567,0,0,0.06234567901234567,170.6401234567901,0)" xlink:href="#Z"/><use transform="matrix(0.06234567901234567,0,0,0.06234567901234567,183.10925925925923,0)" xlink:href="#bg"/><use transform="matrix(0.06234567901234567,0,0,0.06234567901234567,196.76296296296294,0)" xlink:href="#af"/><use transform="matrix(0.06234567901234567,0,0,0.06234567901234567,209.23209876543208,0)" xlink:href="#ac"/><use transform="matrix(0.06234567901234567,0,0,0.06234567901234567,221.70123456790122,0)" xlink:href="#ae"/><use transform="matrix(0.06234567901234567,0,0,0.06234567901234567,227.93580246913578,0)" xlink:href="#bc"/><use transform="matrix(0.06234567901234567,0,0,0.06234567901234567,240.40493827160492,0)" xlink:href="#ad"/><use transform="matrix(0.06234567901234567,0,0,0.06234567901234567,247.82407407407405,0)" xlink:href="#af"/></g><g id="E"><use transform="matrix(0.06234567901234567,0,0,0.06234567901234567,0,0)" xlink:href="#au"/><use transform="matrix(0.06234567901234567,0,0,0.06234567901234567,12.469135802469133,0)" xlink:href="#aq"/><use transform="matrix(0.06234567901234567,0,0,0.06234567901234567,17.39444444444444,0)" xlink:href="#am"/><use transform="matrix(0.06234567901234567,0,0,0.06234567901234567,29.86358024691357,0)" xlink:href="#W"/><use transform="matrix(0.06234567901234567,0,0,0.06234567901234567,36.09814814814814,0)" xlink:href="#be"/><use transform="matrix(0.06234567901234567,0,0,0.06234567901234567,48.56728395061727,0)" xlink:href="#bc"/><use transform="matrix(0.06234567901234567,0,0,0.06234567901234567,61.036419753086406,0)" xlink:href="#ac"/><use transform="matrix(0.06234567901234567,0,0,0.06234567901234567,73.50555555555553,0)" xlink:href="#aq"/><use transform="matrix(0.06234567901234567,0,0,0.06234567901234567,78.43086419753084,0)" xlink:href="#ao"/><use transform="matrix(0.06234567901234567,0,0,0.06234567901234567,83.35617283950614,0)" xlink:href="#ae"/><use transform="matrix(0.06234567901234567,0,0,0.06234567901234567,89.59074074074071,0)" xlink:href="#ay"/></g><g id="F"><use transform="matrix(0.06234567901234567,0,0,0.06234567901234567,0,0)" xlink:href="#as"/><use transform="matrix(0.06234567901234567,0,0,0.06234567901234567,12.469135802469133,0)" xlink:href="#ad"/><use transform="matrix(0.06234567901234567,0,0,0.06234567901234567,19.888271604938268,0)" xlink:href="#ac"/><use transform="matrix(0.06234567901234567,0,0,0.06234567901234567,32.3574074074074,0)" xlink:href="#av"/><use transform="matrix(0.06234567901234567,0,0,0.06234567901234567,43.57962962962962,0)" xlink:href="#af"/><use transform="matrix(0.06234567901234567,0,0,0.06234567901234567,56.048765432098755,0)" xlink:href="#ad"/><use transform="matrix(0.06234567901234567,0,0,0.06234567901234567,63.46790123456789,0)" xlink:href="#ay"/></g><path fill="#282c33" d="M266 0h-40l-56-210L115 0H75L2-248h35L96-30l15-64 43-154h32l59 218 59-218h35" id="bh"/><path fill="#282c33" d="M143 0L79-87 56-68V0H24v-261h32v163l83-92h37l-77 82L181 0h-38" id="bi"/><g id="G"><use transform="matrix(0.06234567901234567,0,0,0.06234567901234567,0,0)" xlink:href="#aq"/><use transform="matrix(0.06234567901234567,0,0,0.06234567901234567,4.925308641975308,0)" xlink:href="#ad"/><use transform="matrix(0.06234567901234567,0,0,0.06234567901234567,12.344444444444441,0)" xlink:href="#ag"/><use transform="matrix(0.06234567901234567,0,0,0.06234567901234567,30.985802469135795,0)" xlink:href="#W"/><use transform="matrix(0.06234567901234567,0,0,0.06234567901234567,37.22037037037036,0)" xlink:href="#bg"/><use transform="matrix(0.06234567901234567,0,0,0.06234567901234567,50.87407407407406,0)" xlink:href="#Y"/><use transform="matrix(0.06234567901234567,0,0,0.06234567901234567,63.34320987654319,0)" xlink:href="#Z"/><use transform="matrix(0.06234567901234567,0,0,0.06234567901234567,75.81234567901232,0)" xlink:href="#bh"/><use transform="matrix(0.06234567901234567,0,0,0.06234567901234567,96.51111111111108,0)" xlink:href="#al"/><use transform="matrix(0.06234567901234567,0,0,0.06234567901234567,108.9802469135802,0)" xlink:href="#ad"/><use transform="matrix(0.06234567901234567,0,0,0.06234567901234567,116.39938271604933,0)" xlink:href="#bi"/></g><g id="H"><use transform="matrix(0.06234567901234567,0,0,0.06234567901234567,0,0)" xlink:href="#az"/><use transform="matrix(0.06234567901234567,0,0,0.06234567901234567,14.96296296296296,0)" xlink:href="#aA"/><use transform="matrix(0.06234567901234567,0,0,0.06234567901234567,19.888271604938268,0)" xlink:href="#aA"/></g><g id="I"><use transform="matrix(0.06234567901234567,0,0,0.06234567901234567,0,0)" xlink:href="#aB"/><use transform="matrix(0.06234567901234567,0,0,0.06234567901234567,20.698765432098764,0)" xlink:href="#aC"/></g><g id="J"><use transform="matrix(0.06234567901234567,0,0,0.06234567901234567,0,0)" xlink:href="#aF"/><use transform="matrix(0.06234567901234567,0,0,0.06234567901234567,4.925308641975308,0)" xlink:href="#aG"/></g><path fill="#282c33" d="M33 0v-248h34V0H33" id="bj"/><g id="K"><use transform="matrix(0.06234567901234567,0,0,0.06234567901234567,0,0)" xlink:href="#U"/><use transform="matrix(0.06234567901234567,0,0,0.06234567901234567,12.469135802469133,0)" xlink:href="#al"/><use transform="matrix(0.06234567901234567,0,0,0.06234567901234567,24.938271604938265,0)" xlink:href="#aq"/><use transform="matrix(0.06234567901234567,0,0,0.06234567901234567,29.86358024691357,0)" xlink:href="#af"/><use transform="matrix(0.06234567901234567,0,0,0.06234567901234567,42.332716049382704,0)" xlink:href="#ag"/><use transform="matrix(0.06234567901234567,0,0,0.06234567901234567,60.97407407407405,0)" xlink:href="#W"/><use transform="matrix(0.06234567901234567,0,0,0.06234567901234567,67.20864197530862,0)" xlink:href="#ac"/><use transform="matrix(0.06234567901234567,0,0,0.06234567901234567,79.67777777777775,0)" xlink:href="#am"/><use transform="matrix(0.06234567901234567,0,0,0.06234567901234567,92.14691358024689,0)" xlink:href="#am"/><use transform="matrix(0.06234567901234567,0,0,0.06234567901234567,104.61604938271603,0)" xlink:href="#af"/><use transform="matrix(0.06234567901234567,0,0,0.06234567901234567,117.08518518518517,0)" xlink:href="#ac"/><use transform="matrix(0.06234567901234567,0,0,0.06234567901234567,129.5543209876543,0)" xlink:href="#ad"/><use transform="matrix(0.06234567901234567,0,0,0.06234567901234567,136.97345679012344,0)" xlink:href="#an"/><use transform="matrix(0.06234567901234567,0,0,0.06234567901234567,148.19567901234566,0)" xlink:href="#bj"/><use transform="matrix(0.06234567901234567,0,0,0.06234567901234567,154.43024691358022,0)" xlink:href="#ap"/></g><path fill="#282c33" d="M233-177c-1 41-23 64-60 70L243 0h-38l-65-103H63V0H30v-248c88 3 205-21 203 71zM63-129c60-2 137 13 137-47 0-61-80-42-137-45v92" id="bk"/><g id="L"><use transform="matrix(0.06234567901234567,0,0,0.06234567901234567,0,0)" xlink:href="#aq"/><use transform="matrix(0.06234567901234567,0,0,0.06234567901234567,4.925308641975308,0)" xlink:href="#ad"/><use transform="matrix(0.06234567901234567,0,0,0.06234567901234567,12.344444444444441,0)" xlink:href="#ag"/><use transform="matrix(0.06234567901234567,0,0,0.06234567901234567,30.985802469135795,0)" xlink:href="#W"/><use transform="matrix(0.06234567901234567,0,0,0.06234567901234567,37.22037037037036,0)" xlink:href="#bk"/><use transform="matrix(0.06234567901234567,0,0,0.06234567901234567,53.36790123456789,0)" xlink:href="#Y"/><use transform="matrix(0.06234567901234567,0,0,0.06234567901234567,65.83703703703702,0)" xlink:href="#ao"/><use transform="matrix(0.06234567901234567,0,0,0.06234567901234567,70.76234567901233,0)" xlink:href="#Z"/><use transform="matrix(0.06234567901234567,0,0,0.06234567901234567,83.23148148148147,0)" xlink:href="#ab"/><use transform="matrix(0.06234567901234567,0,0,0.06234567901234567,95.7006172839506,0)" xlink:href="#ac"/><use transform="matrix(0.06234567901234567,0,0,0.06234567901234567,108.16975308641975,0)" xlink:href="#an"/><use transform="matrix(0.06234567901234567,0,0,0.06234567901234567,119.39197530864196,0)" xlink:href="#Z"/><use transform="matrix(0.06234567901234567,0,0,0.06234567901234567,131.8611111111111,0)" xlink:href="#an"/><use transform="matrix(0.06234567901234567,0,0,0.06234567901234567,143.08333333333331,0)" xlink:href="#bc"/><use transform="matrix(0.06234567901234567,0,0,0.06234567901234567,155.55246913580245,0)" xlink:href="#V"/><use transform="matrix(0.06234567901234567,0,0,0.06234567901234567,166.77469135802468,0)" xlink:href="#V"/><use transform="matrix(0.06234567901234567,0,0,0.06234567901234567,177.9969135802469,0)" xlink:href="#af"/><use transform="matrix(0.06234567901234567,0,0,0.06234567901234567,190.46604938271605,0)" xlink:href="#an"/><use transform="matrix(0.06234567901234567,0,0,0.06234567901234567,201.68827160493828,0)" xlink:href="#an"/><use transform="matrix(0.06234567901234567,0,0,0.06234567901234567,212.9104938271605,0)" xlink:href="#al"/><use transform="matrix(0.06234567901234567,0,0,0.06234567901234567,225.37962962962965,0)" xlink:href="#ad"/></g><g id="M"><use transform="matrix(0.06234567901234567,0,0,0.06234567901234567,0,0)" xlink:href="#aq"/><use transform="matrix(0.06234567901234567,0,0,0.06234567901234567,4.925308641975308,0)" xlink:href="#ad"/><use transform="matrix(0.06234567901234567,0,0,0.06234567901234567,12.344444444444441,0)" xlink:href="#ag"/><use transform="matrix(0.06234567901234567,0,0,0.06234567901234567,30.985802469135795,0)" xlink:href="#W"/><use transform="matrix(0.06234567901234567,0,0,0.06234567901234567,37.22037037037036,0)" xlink:href="#bk"/><use transform="matrix(0.06234567901234567,0,0,0.06234567901234567,53.36790123456789,0)" xlink:href="#Y"/><use transform="matrix(0.06234567901234567,0,0,0.06234567901234567,65.83703703703702,0)" xlink:href="#Z"/><use transform="matrix(0.06234567901234567,0,0,0.06234567901234567,78.30617283950616,0)" xlink:href="#ao"/><use transform="matrix(0.06234567901234567,0,0,0.06234567901234567,83.23148148148147,0)" xlink:href="#an"/><use transform="matrix(0.06234567901234567,0,0,0.06234567901234567,94.45370370370368,0)" xlink:href="#Z"/><use transform="matrix(0.06234567901234567,0,0,0.06234567901234567,106.9228395061728,0)" xlink:href="#aq"/><use transform="matrix(0.06234567901234567,0,0,0.06234567901234567,111.84814814814811,0)" xlink:href="#al"/><use transform="matrix(0.06234567901234567,0,0,0.06234567901234567,124.31728395061725,0)" xlink:href="#U"/><use transform="matrix(0.06234567901234567,0,0,0.06234567901234567,136.7864197530864,0)" xlink:href="#ao"/><use transform="matrix(0.06234567901234567,0,0,0.06234567901234567,141.7117283950617,0)" xlink:href="#V"/><use transform="matrix(0.06234567901234567,0,0,0.06234567901234567,152.93395061728393,0)" xlink:href="#ac"/><use transform="matrix(0.06234567901234567,0,0,0.06234567901234567,165.40308641975307,0)" xlink:href="#aq"/><use transform="matrix(0.06234567901234567,0,0,0.06234567901234567,170.32839506172837,0)" xlink:href="#Z"/><use transform="matrix(0.06234567901234567,0,0,0.06234567901234567,182.7975308641975,0)" xlink:href="#an"/><use transform="matrix(0.06234567901234567,0,0,0.06234567901234567,194.01975308641974,0)" xlink:href="#bc"/><use transform="matrix(0.06234567901234567,0,0,0.06234567901234567,206.48888888888888,0)" xlink:href="#V"/><use transform="matrix(0.06234567901234567,0,0,0.06234567901234567,217.7111111111111,0)" xlink:href="#V"/><use transform="matrix(0.06234567901234567,0,0,0.06234567901234567,228.93333333333334,0)" xlink:href="#af"/><use transform="matrix(0.06234567901234567,0,0,0.06234567901234567,241.40246913580248,0)" xlink:href="#an"/><use transform="matrix(0.06234567901234567,0,0,0.06234567901234567,252.6246913580247,0)" xlink:href="#an"/><use transform="matrix(0.06234567901234567,0,0,0.06234567901234567,263.8469135802469,0)" xlink:href="#al"/><use transform="matrix(0.06234567901234567,0,0,0.06234567901234567,276.316049382716,0)" xlink:href="#ad"/><use transform="matrix(0.06234567901234567,0,0,0.06234567901234567,283.7351851851852,0)" xlink:href="#Z"/><use transform="matrix(0.06234567901234567,0,0,0.06234567901234567,296.2043209876543,0)" xlink:href="#al"/><use transform="matrix(0.06234567901234567,0,0,0.06234567901234567,308.6734567901234,0)" xlink:href="#aM"/></g><path fill="#282c33" d="M54-142c48-35 137-8 131 61C196 18 31 33 14-55l32-4c7 23 22 37 52 37 35-1 51-22 54-58 4-55-73-65-99-34H22l8-134h141v27H59" id="bl"/><path fill="#282c33" d="M127-220V0H93v-220H8v-28h204v28h-85" id="bm"/><g id="N"><use transform="matrix(0.06234567901234567,0,0,0.06234567901234567,0,0)" xlink:href="#V"/><use transform="matrix(0.06234567901234567,0,0,0.06234567901234567,11.22222222222222,0)" xlink:href="#ad"/><use transform="matrix(0.06234567901234567,0,0,0.06234567901234567,18.641358024691353,0)" xlink:href="#ag"/><use transform="matrix(0.06234567901234567,0,0,0.06234567901234567,37.28271604938271,0)" xlink:href="#W"/><use transform="matrix(0.06234567901234567,0,0,0.06234567901234567,43.51728395061727,0)" xlink:href="#ah"/><use transform="matrix(0.06234567901234567,0,0,0.06234567901234567,58.48024691358023,0)" xlink:href="#bl"/><use transform="matrix(0.06234567901234567,0,0,0.06234567901234567,70.94938271604937,0)" xlink:href="#bl"/><use transform="matrix(0.06234567901234567,0,0,0.06234567901234567,83.41851851851851,0)" xlink:href="#Z"/><use transform="matrix(0.06234567901234567,0,0,0.06234567901234567,95.88765432098765,0)" xlink:href="#bm"/><use transform="matrix(0.06234567901234567,0,0,0.06234567901234567,108.29444444444444,0)" xlink:href="#ay"/><use transform="matrix(0.06234567901234567,0,0,0.06234567901234567,119.51666666666665,0)" xlink:href="#am"/><use transform="matrix(0.06234567901234567,0,0,0.06234567901234567,131.9858024691358,0)" xlink:href="#af"/></g><g id="O"><use transform="matrix(0.06234567901234567,0,0,0.06234567901234567,0,0)" xlink:href="#al"/><use transform="matrix(0.06234567901234567,0,0,0.06234567901234567,12.469135802469133,0)" xlink:href="#ad"/><use transform="matrix(0.06234567901234567,0,0,0.06234567901234567,19.888271604938268,0)" xlink:href="#ao"/><use transform="matrix(0.06234567901234567,0,0,0.06234567901234567,24.813580246913574,0)" xlink:href="#U"/><use transform="matrix(0.06234567901234567,0,0,0.06234567901234567,37.28271604938271,0)" xlink:href="#ao"/><use transform="matrix(0.06234567901234567,0,0,0.06234567901234567,42.20802469135801,0)" xlink:href="#ap"/><use transform="matrix(0.06234567901234567,0,0,0.06234567901234567,54.677160493827145,0)" xlink:href="#ac"/><use transform="matrix(0.06234567901234567,0,0,0.06234567901234567,67.14629629629627,0)" xlink:href="#aq"/><use transform="matrix(0.06234567901234567,0,0,0.06234567901234567,72.07160493827158,0)" xlink:href="#aa"/><use transform="matrix(0.06234567901234567,0,0,0.06234567901234567,88.21913580246911,0)" xlink:href="#ab"/><use transform="matrix(0.06234567901234567,0,0,0.06234567901234567,100.68827160493825,0)" xlink:href="#ac"/><use transform="matrix(0.06234567901234567,0,0,0.06234567901234567,113.15740740740739,0)" xlink:href="#ad"/><use transform="matrix(0.06234567901234567,0,0,0.06234567901234567,120.57654320987652,0)" xlink:href="#ac"/><use transform="matrix(0.06234567901234567,0,0,0.06234567901234567,133.04567901234566,0)" xlink:href="#V"/><use transform="matrix(0.06234567901234567,0,0,0.06234567901234567,144.2679012345679,0)" xlink:href="#ae"/><use transform="matrix(0.06234567901234567,0,0,0.06234567901234567,150.50246913580244,0)" xlink:href="#af"/><use transform="matrix(0.06234567901234567,0,0,0.06234567901234567,162.97160493827158,0)" xlink:href="#ad"/></g><g id="P"><use transform="matrix(0.06234567901234567,0,0,0.06234567901234567,0,0)" xlink:href="#aM"/><use transform="matrix(0.06234567901234567,0,0,0.06234567901234567,6.234567901234566,0)" xlink:href="#ac"/><use transform="matrix(0.06234567901234567,0,0,0.06234567901234567,18.7037037037037,0)" xlink:href="#ap"/><use transform="matrix(0.06234567901234567,0,0,0.06234567901234567,31.17283950617283,0)" xlink:href="#aM"/><use transform="matrix(0.06234567901234567,0,0,0.06234567901234567,37.4074074074074,0)" xlink:href="#ao"/><use transform="matrix(0.06234567901234567,0,0,0.06234567901234567,42.332716049382704,0)" xlink:href="#V"/><use transform="matrix(0.06234567901234567,0,0,0.06234567901234567,53.554938271604925,0)" xlink:href="#ae"/><use transform="matrix(0.06234567901234567,0,0,0.06234567901234567,59.789506172839495,0)" xlink:href="#ao"/><use transform="matrix(0.06234567901234567,0,0,0.06234567901234567,64.7148148148148,0)" xlink:href="#al"/><use transform="matrix(0.06234567901234567,0,0,0.06234567901234567,77.18395061728393,0)" xlink:href="#ap"/><use transform="matrix(0.06234567901234567,0,0,0.06234567901234567,89.65308641975307,0)" xlink:href="#aa"/><use transform="matrix(0.06234567901234567,0,0,0.06234567901234567,105.8006172839506,0)" xlink:href="#ab"/><use transform="matrix(0.06234567901234567,0,0,0.06234567901234567,118.26975308641974,0)" xlink:href="#ac"/><use transform="matrix(0.06234567901234567,0,0,0.06234567901234567,130.73888888888888,0)" xlink:href="#ad"/><use transform="matrix(0.06234567901234567,0,0,0.06234567901234567,138.158024691358,0)" xlink:href="#ac"/><use transform="matrix(0.06234567901234567,0,0,0.06234567901234567,150.62716049382715,0)" xlink:href="#V"/><use transform="matrix(0.06234567901234567,0,0,0.06234567901234567,161.84938271604938,0)" xlink:href="#ae"/><use transform="matrix(0.06234567901234567,0,0,0.06234567901234567,168.08395061728393,0)" xlink:href="#af"/><use transform="matrix(0.06234567901234567,0,0,0.06234567901234567,180.55308641975307,0)" xlink:href="#ad"/></g><g id="Q"><use transform="matrix(0.06234567901234567,0,0,0.06234567901234567,0,0)" xlink:href="#V"/><use transform="matrix(0.06234567901234567,0,0,0.06234567901234567,11.22222222222222,0)" xlink:href="#ad"/><use transform="matrix(0.06234567901234567,0,0,0.06234567901234567,18.641358024691353,0)" xlink:href="#ag"/><use transform="matrix(0.06234567901234567,0,0,0.06234567901234567,37.28271604938271,0)" xlink:href="#W"/><use transform="matrix(0.06234567901234567,0,0,0.06234567901234567,43.51728395061727,0)" xlink:href="#ak"/><use transform="matrix(0.06234567901234567,0,0,0.06234567901234567,58.48024691358023,0)" xlink:href="#bf"/><use transform="matrix(0.06234567901234567,0,0,0.06234567901234567,70.94938271604937,0)" xlink:href="#Z"/><use transform="matrix(0.06234567901234567,0,0,0.06234567901234567,83.41851851851851,0)" xlink:href="#ab"/><use transform="matrix(0.06234567901234567,0,0,0.06234567901234567,95.88765432098765,0)" xlink:href="#ac"/><use transform="matrix(0.06234567901234567,0,0,0.06234567901234567,108.35679012345679,0)" xlink:href="#an"/><use transform="matrix(0.06234567901234567,0,0,0.06234567901234567,119.579012345679,0)" xlink:href="#Z"/><use transform="matrix(0.06234567901234567,0,0,0.06234567901234567,132.04814814814813,0)" xlink:href="#ae"/><use transform="matrix(0.06234567901234567,0,0,0.06234567901234567,138.28271604938269,0)" xlink:href="#ay"/><use transform="matrix(0.06234567901234567,0,0,0.06234567901234567,149.5049382716049,0)" xlink:href="#am"/><use transform="matrix(0.06234567901234567,0,0,0.06234567901234567,161.97407407407405,0)" xlink:href="#af"/></g><g id="R"><use transform="matrix(0.06234567901234567,0,0,0.06234567901234567,0,0)" xlink:href="#V"/><use transform="matrix(0.06234567901234567,0,0,0.06234567901234567,11.22222222222222,0)" xlink:href="#ad"/><use transform="matrix(0.06234567901234567,0,0,0.06234567901234567,18.641358024691353,0)" xlink:href="#ag"/><use transform="matrix(0.06234567901234567,0,0,0.06234567901234567,37.28271604938271,0)" xlink:href="#W"/><use transform="matrix(0.06234567901234567,0,0,0.06234567901234567,43.51728395061727,0)" xlink:href="#ak"/><use transform="matrix(0.06234567901234567,0,0,0.06234567901234567,58.48024691358023,0)" xlink:href="#bf"/><use transform="matrix(0.06234567901234567,0,0,0.06234567901234567,70.94938271604937,0)" xlink:href="#ao"/><use transform="matrix(0.06234567901234567,0,0,0.06234567901234567,75.87469135802468,0)" xlink:href="#Z"/><use transform="matrix(0.06234567901234567,0,0,0.06234567901234567,88.34382716049382,0)" xlink:href="#ao"/><use transform="matrix(0.06234567901234567,0,0,0.06234567901234567,93.26913580246912,0)" xlink:href="#an"/><use transform="matrix(0.06234567901234567,0,0,0.06234567901234567,104.49135802469134,0)" xlink:href="#Z"/><use transform="matrix(0.06234567901234567,0,0,0.06234567901234567,116.96049382716046,0)" xlink:href="#ae"/><use transform="matrix(0.06234567901234567,0,0,0.06234567901234567,123.19506172839503,0)" xlink:href="#ay"/><use transform="matrix(0.06234567901234567,0,0,0.06234567901234567,134.41728395061725,0)" xlink:href="#am"/><use transform="matrix(0.06234567901234567,0,0,0.06234567901234567,146.8864197530864,0)" xlink:href="#af"/><use transform="matrix(0.06234567901234567,0,0,0.06234567901234567,159.35555555555553,0)" xlink:href="#Z"/><use transform="matrix(0.06234567901234567,0,0,0.06234567901234567,171.82469135802467,0)" xlink:href="#al"/><use transform="matrix(0.06234567901234567,0,0,0.06234567901234567,184.2938271604938,0)" xlink:href="#aM"/></g><g id="S"><use transform="matrix(0.06234567901234567,0,0,0.06234567901234567,0,0)" xlink:href="#ak"/><use transform="matrix(0.06234567901234567,0,0,0.06234567901234567,14.96296296296296,0)" xlink:href="#an"/><use transform="matrix(0.06234567901234567,0,0,0.06234567901234567,26.18518518518518,0)" xlink:href="#ay"/><use transform="matrix(0.06234567901234567,0,0,0.06234567901234567,37.4074074074074,0)" xlink:href="#V"/><use transform="matrix(0.06234567901234567,0,0,0.06234567901234567,48.62962962962962,0)" xlink:href="#ab"/><use transform="matrix(0.06234567901234567,0,0,0.06234567901234567,61.09876543209875,0)" xlink:href="#al"/><use transform="matrix(0.06234567901234567,0,0,0.06234567901234567,73.56790123456788,0)" xlink:href="#aq"/><use transform="matrix(0.06234567901234567,0,0,0.06234567901234567,78.49320987654319,0)" xlink:href="#al"/><use transform="matrix(0.06234567901234567,0,0,0.06234567901234567,90.96234567901232,0)" xlink:href="#U"/><use transform="matrix(0.06234567901234567,0,0,0.06234567901234567,103.43148148148146,0)" xlink:href="#ao"/><use transform="matrix(0.06234567901234567,0,0,0.06234567901234567,108.35679012345676,0)" xlink:href="#V"/><use transform="matrix(0.06234567901234567,0,0,0.06234567901234567,119.57901234567898,0)" xlink:href="#ac"/><use transform="matrix(0.06234567901234567,0,0,0.06234567901234567,132.0481481481481,0)" xlink:href="#aq"/></g><g id="T"><use transform="matrix(0.06234567901234567,0,0,0.06234567901234567,0,0)" xlink:href="#aM"/><use transform="matrix(0.06234567901234567,0,0,0.06234567901234567,6.234567901234566,0)" xlink:href="#af"/><use transform="matrix(0.06234567901234567,0,0,0.06234567901234567,18.7037037037037,0)" xlink:href="#ac"/><use transform="matrix(0.06234567901234567,0,0,0.06234567901234567,31.17283950617283,0)" xlink:href="#ae"/><use transform="matrix(0.06234567901234567,0,0,0.06234567901234567,37.4074074074074,0)" xlink:href="#bc"/><use transform="matrix(0.06234567901234567,0,0,0.06234567901234567,49.87654320987653,0)" xlink:href="#ad"/><use transform="matrix(0.06234567901234567,0,0,0.06234567901234567,57.295679012345666,0)" xlink:href="#af"/><use transform="matrix(0.06234567901234567,0,0,0.06234567901234567,69.7648148148148,0)" xlink:href="#an"/></g></defs></g></svg>