<svg xmlns="http://www.w3.org/2000/svg" xmlns:xlink="http://www.w3.org/1999/xlink" xmlns:lucid="lucid" width="2039.64" height="1323"><g transform="translate(-678.228301587835 2624.416028236674)" lucid:page-tab-id="0_0"><path d="M500-3000h2500v2000H500z" fill="#fff"/><path d="M716.87-2177.42a6 6 0 0 1 6-6h348a6 6 0 0 1 6 6v187a6 6 0 0 1-6 6h-348a6 6 0 0 1-6-6z" stroke="#3a414a" stroke-width="2" fill="#dedeff"/><path d="M716.87-2140.48h360m-360 91.36h360" stroke="#3a414a" stroke-width="2" fill="none"/><use xlink:href="#a" transform="matrix(1,0,0,1,724.8704090027887,-2175.416028236674) translate(86.67993827160495 17.988888888888887)"/><use xlink:href="#b" transform="matrix(1,0,0,1,728.8704090027887,-2132.4826949033404) translate(16.7182098765432 29.022222222222222)"/><use xlink:href="#c" transform="matrix(1,0,0,1,728.8704090027887,-2132.4826949033404) translate(41.65648148148149 55.95555555555555)"/><use xlink:href="#d" transform="matrix(1,0,0,1,728.8704090027887,-2041.1160282366736) translate(58.42746913580248 28.988888888888887)"/><path d="M1498.13-2597.42a6 6 0 0 1 6-6h348a6 6 0 0 1 6 6v160a6 6 0 0 1-6 6h-348a6 6 0 0 1-6-6z" stroke="#3a414a" stroke-width="2" fill="#f8f8fa"/><path d="M1498.13-2560.48h360m-360 64.43h360" stroke="#3a414a" stroke-width="2" fill="none"/><use xlink:href="#e" transform="matrix(1,0,0,1,1506.135304051791,-2595.416028236674) translate(57.59567901234571 17.988888888888887)"/><use xlink:href="#f" transform="matrix(1,0,0,1,1510.135304051791,-2552.4826949033404) translate(16.7182098765432 28.988888888888887)"/><use xlink:href="#g" transform="matrix(1,0,0,1,1510.135304051791,-2488.049361570007) translate(105.71666666666668 28.988888888888887)"/><path d="M1498.13-2177.42a6 6 0 0 1 6-6h348a6 6 0 0 1 6 6v187a6 6 0 0 1-6 6h-348a6 6 0 0 1-6-6z" stroke="#3a414a" stroke-width="2" fill="#dedeff"/><path d="M1498.13-2140.48h360m-360 91.36h360" stroke="#3a414a" stroke-width="2" fill="none"/><use xlink:href="#a" transform="matrix(1,0,0,1,1506.135304051791,-2175.416028236674) translate(86.67993827160495 17.988888888888887)"/><use xlink:href="#b" transform="matrix(1,0,0,1,1510.135304051791,-2132.4826949033404) translate(16.7182098765432 29.022222222222222)"/><use xlink:href="#c" transform="matrix(1,0,0,1,1510.135304051791,-2132.4826949033404) translate(41.65648148148149 55.95555555555555)"/><use xlink:href="#h" transform="matrix(1,0,0,1,1510.135304051791,-2041.1160282366736) translate(67.21820987654323 28.988888888888887)"/><path d="M2336.87-2177.42a6 6 0 0 1 6-6h348a6 6 0 0 1 6 6v187a6 6 0 0 1-6 6h-348a6 6 0 0 1-6-6z" stroke="#3a414a" stroke-width="2" fill="#dedeff"/><path d="M2336.87-2140.48h360m-360 91.36h360" stroke="#3a414a" stroke-width="2" fill="none"/><use xlink:href="#a" transform="matrix(1,0,0,1,2344.8704090027886,-2175.416028236674) translate(86.67993827160495 17.988888888888887)"/><use xlink:href="#b" transform="matrix(1,0,0,1,2348.8704090027886,-2132.4826949033404) translate(16.7182098765432 29.022222222222222)"/><use xlink:href="#c" transform="matrix(1,0,0,1,2348.8704090027886,-2132.4826949033404) translate(41.65648148148149 55.95555555555555)"/><use xlink:href="#h" transform="matrix(1,0,0,1,2348.8704090027886,-2041.1160282366736) translate(67.21820987654323 28.988888888888887)"/><path d="M1648.5-2200.8h-.95v-23.6h.94zm-.05-106.64l.03 56.12h-.95l-.03-56.12v-26.9h.95zm0-53.83h-.95v-68.65h.95z" stroke="#333" stroke-width=".05" fill="#333"/><path d="M1648.45-2429.9h-.95v-.52h.95z" fill="#333"/><path stroke="#333" stroke-width=".05" fill="#333"/><path d="M1648.02-2186.03l-4.63-14.27h9.26z" fill="#333"/><path d="M1648.02-2184.5l-5.3-16.28h10.6zm-3.98-15.32l3.98 12.25 3.98-12.25z" stroke="#333" stroke-width=".05" fill="#333"/><use xlink:href="#i" transform="matrix(1,0,0,1,1451.1664513693013,-2251.3248152569913) translate(0.0049999999999954525 17.955555555555552)"/><path d="M1709.22-2184.92h-.95v-39.47h.95zm0-122.47v56.08h-.95v-83.01h.96zm.05-106.63l-.02 52.76h-.95l.02-52.76z" stroke="#333" stroke-width=".05" fill="#333"/><path d="M1709.22-2184.42h-.95v-.5h.95z" fill="#333"/><path stroke="#333" stroke-width=".05" fill="#333"/><path d="M1713.43-2414.53h-9.27l4.63-14.27z" fill="#333"/><path d="M1714.08-2414.06h-10.57l5.3-16.28zm-9.27-.95h7.98l-4-12.26z" stroke="#333" stroke-width=".05" fill="#333"/><use xlink:href="#j" transform="matrix(1,0,0,1,1560.5364451040814,-2361.2744112224373) translate(0.0049999999999954525 17.955555555555552)"/><path d="M897.35-2200.8h-.96v-93.15h.95zm684.92-118.6l-.16 1.94-.44 1.9-.75 1.8-1.02 1.68-1.27 1.5-1.48 1.26-1.66 1.02-1.8.75-1.92.46-1.93.16H1265.7v-.95h304.1l1.8-.13 1.77-.43 1.67-.7 1.54-.93 1.38-1.17 1.17-1.37.96-1.54.7-1.68.4-1.75.16-1.84v-14.9h.95zm0-41.87h-.95v-68.65h.95z" stroke="#333" stroke-width=".05" fill="#333"/><path d="M1582.27-2429.9h-.95v-.52h.95z" fill="#333"/><path stroke="#333" stroke-width=".05" fill="#333"/><path d="M896.87-2186.03l-4.63-14.27h9.27z" fill="#333"/><path d="M896.87-2184.5l-5.3-16.28h10.6zm-3.98-15.32l3.97 12.25 3.98-12.25z" stroke="#333" stroke-width=".05" fill="#333"/><use xlink:href="#i" transform="matrix(1,0,0,1,871.9691463796615,-2320.8826810607666) translate(0.0049999999999954525 17.955555555555552)"/><path d="M963.03-2272.94h-4.32l-1.8.14-1.76.42-1.68.7-1.54.94-1.37 1.18-1.18 1.37-.94 1.55-.7 1.67-.42 1.76-.13 1.82v76.48h-.95v-76.5l.15-1.95.46-1.9.75-1.8 1.02-1.68 1.27-1.5 1.5-1.26 1.66-1.03 1.8-.75 1.9-.46 1.95-.15h4.35zm651.43-12.46l-.15 1.94-.44 1.9-.75 1.8-1.02 1.68-1.27 1.5-1.48 1.26-1.67 1.02-1.8.75-1.9.46-1.94.16h-342.46v-.95h342.43l1.82-.13 1.75-.43 1.67-.7 1.54-.93 1.38-1.17 1.17-1.37.96-1.54.7-1.68.4-1.75.15-1.84v-48.9h.96zm0-75.87h-.95v-52.76h.96z" stroke="#333" stroke-width=".05" fill="#333"/><path d="M947.17-2184.42h-.95v-.5h.95z" fill="#333"/><path stroke="#333" stroke-width=".05" fill="#333"/><path d="M1618.62-2414.53h-9.27l4.64-14.27z" fill="#333"/><path d="M1619.28-2414.06h-10.58l5.3-16.28zm-9.27-.95h7.97l-3.98-12.26z" stroke="#333" stroke-width=".05" fill="#333"/><use xlink:href="#j" transform="matrix(1,0,0,1,963.0272614139794,-2286.8826949033405) translate(0.0049999999999954525 17.955555555555552)"/><path d="M2504.9-2307.9l1.92.16 1.9.46 1.82.75 1.66 1.02 1.5 1.26 1.26 1.5 1.03 1.66.74 1.8.45 1.9.14 1.95v94.63h-.95v-94.6l-.15-1.82-.42-1.76-.7-1.67-.94-1.54-1.18-1.36-1.38-1.18-1.54-.94-1.67-.7-1.76-.42-1.82-.14h-231.6v-.95zm-756.13-9.7l.42 1.74.68 1.68.94 1.54 1.18 1.37 1.37 1.18 1.55.95 1.67.7 1.75.42 1.82.14h119.36v.96h-119.4l-1.93-.15-1.9-.45-1.82-.75-1.67-1.02-1.47-1.27-1.28-1.48-1.02-1.67-.75-1.8-.45-1.9-.16-1.95v-14.94h.95v14.9zm-.15-43.67h-.95v-68.65h.95z" stroke="#333" stroke-width=".05" fill="#333"/><path d="M1748.62-2429.9h-.95v-.52h.95z" fill="#333"/><path stroke="#333" stroke-width=".05" fill="#333"/><path d="M2516.87-2186.03l-4.63-14.27h9.27z" fill="#333"/><path d="M2516.87-2184.5l-5.3-16.28h10.6zm-3.98-15.32l3.97 12.25 3.98-12.25z" stroke="#333" stroke-width=".05" fill="#333"/><use xlink:href="#i" transform="matrix(1,0,0,1,1879.532448605245,-2320.8827049625866) translate(0.0049999999999954525 17.955555555555552)"/><path d="M2471.4-2273.9l1.94.16 1.9.46 1.8.75 1.68 1.02 1.5 1.26 1.26 1.5 1.03 1.66.76 1.8.45 1.9.16 1.95v76.5h-.95v-76.47l-.13-1.82-.42-1.76-.7-1.67-.94-1.54-1.16-1.36-1.38-1.18-1.54-.94-1.67-.7-1.76-.42-1.83-.14h-226.14v-.95zm-692.23-9.7l.43 1.74.7 1.68.93 1.54 1.18 1.37 1.38 1.18 1.55.95 1.67.7 1.75.42 1.83.14h158.13v.96h-158.16l-1.93-.15-1.9-.45-1.8-.75-1.68-1.02-1.5-1.27-1.26-1.48-1.02-1.67-.75-1.8-.47-1.9-.15-1.95v-48.94h.95v48.9zm-.14-77.67h-.95v-52.76h.95z" stroke="#333" stroke-width=".05" fill="#333"/><path d="M2483.86-2184.42h-.95v-.5h.96z" fill="#333"/><path stroke="#333" stroke-width=".05" fill="#333"/><path d="M1783.2-2414.53h-9.28l4.64-14.27z" fill="#333"/><path d="M1783.85-2414.06h-10.58l5.3-16.28zm-9.27-.95h7.96l-3.98-12.26z" stroke="#333" stroke-width=".05" fill="#333"/><use xlink:href="#j" transform="matrix(1,0,0,1,1948.7149765990366,-2286.8826949033405) translate(0.0049999999999954525 17.955555555555552)"/><path d="M1624.95-1860.8h-.95l.02-14.2h.95zm.08-53.16l-.02 12.04h-.94l.02-12.04v-68.96h.95z" stroke="#333" stroke-width=".05" fill="#333"/><path d="M1625.03-1982.9h-.95v-.52h.95z" fill="#333"/><path stroke="#333" stroke-width=".05" fill="#333"/><path d="M1624.47-1846.03l-4.63-14.27h9.27z" fill="#333"/><path d="M1624.47-1844.5l-5.3-16.28h10.6zm-3.98-15.33l3.97 12.26 3.98-12.26z" stroke="#333" stroke-width=".05" fill="#333"/><use xlink:href="#k" transform="matrix(1,0,0,1,1549.7501522691819,-1901.9242942536669) translate(0.0049999999999954525 17.955555555555552)"/><path d="M1731.92-1913.88v68.96h-.95v-71.72h.95zm-.04-29.7h-.95l-.04-23.45h.94z" stroke="#333" stroke-width=".05" fill="#333"/><path d="M1731.92-1844.42h-.95v-.5h.95z" fill="#333"/><path stroke="#333" stroke-width=".05" fill="#333"/><path d="M1736-1967.53h-9.27l4.64-14.27z" fill="#333"/><path d="M1736.65-1967.06h-10.57l5.3-16.28zm-9.27-.95h7.97l-3.98-12.26z" stroke="#333" stroke-width=".05" fill="#333"/><use xlink:href="#l" transform="matrix(1,0,0,1,1660.447687169564,-1943.5758844410877) translate(0.0049999999999954525 17.955555555555552)"/><path d="M1498.13-1837.42a6 6 0 0 1 6-6h348a6 6 0 0 1 6 6v160a6 6 0 0 1-6 6h-348a6 6 0 0 1-6-6z" stroke="#3a414a" stroke-width="2" fill="#e3fae3"/><path d="M1498.13-1800.48h360m-360 64.43h360" stroke="#3a414a" stroke-width="2" fill="none"/><use xlink:href="#m" transform="matrix(1,0,0,1,1506.135304051791,-1835.4160282366738) translate(41.853395061728406 17.988888888888887)"/><use xlink:href="#n" transform="matrix(1,0,0,1,1510.135304051791,-1792.4826949033404) translate(74.01388888888891 28.988888888888887)"/><use xlink:href="#o" transform="matrix(1,0,0,1,1510.135304051791,-1728.049361570007) translate(67.716975308642 28.988888888888887)"/><use xlink:href="#p" transform="matrix(1,0,0,1,1510.135304051791,-1728.049361570007) translate(198.5182098765432 28.988888888888887)"/><path d="M716.87-1497.42a6 6 0 0 1 6-6h348a6 6 0 0 1 6 6v169a6 6 0 0 1-6 6h-348a6 6 0 0 1-6-6z" stroke="#3a414a" stroke-width="2" fill="#edf5ff"/><path d="M716.87-1379.68h360" stroke="#3a414a" stroke-width="2" fill="none"/><use xlink:href="#q" transform="matrix(1,0,0,1,724.8704090027887,-1495.4160282366738) translate(108.18919753086422 18.0888888888889)"/><use xlink:href="#r" transform="matrix(1,0,0,1,724.8704090027887,-1495.4160282366738) translate(-2.567901234567813 45.022222222222226)"/><use xlink:href="#s" transform="matrix(1,0,0,1,724.8704090027887,-1495.4160282366738) translate(20.7182098765432 71.95555555555556)"/><use xlink:href="#t" transform="matrix(1,0,0,1,724.8704090027887,-1495.4160282366738) translate(99.80370370370373 98.88888888888889)"/><use xlink:href="#u" transform="matrix(1,0,0,1,728.8704090027887,-1371.6826949033405) translate(81.68240740740742 24.988888888888887)"/><path d="M897.35-1769.43l.14 1.82.4 1.74.7 1.68.95 1.54 1.17 1.37 1.38 1.18 1.54.95 1.67.7 1.77.42 1.82.14H1076v.96H908.86l-1.93-.15-1.9-.45-1.8-.75-1.68-1.02-1.5-1.27-1.26-1.48-1.03-1.67-.75-1.8-.45-1.9-.15-1.95v-213.52h.95zm583.4 11.54v.96h-255.3v-.95z" stroke="#333" stroke-width=".05" fill="#333"/><path d="M897.35-1982.9h-.96v-.52h.95z" fill="#333"/><path stroke="#333" stroke-width=".05" fill="#333"/><path d="M1495.52-1757.42l-14.27 4.64v-9.27z" fill="#333"/><path d="M1497.05-1757.42l-16.27 5.3v-10.6zm-15.32 4l12.25-4-12.25-3.98z" stroke="#333" stroke-width=".05" fill="#333"/><use xlink:href="#k" transform="matrix(1,0,0,1,1076.0055355960676,-1770.8826949033405) translate(0.0049999999999954525 17.955555555555552)"/><path d="M1496.63-1787.36v.95H1076.2v-.96zm-561.1-13h-.94v-166.67h.94z" stroke="#333" stroke-width=".05" fill="#333"/><path d="M1497.13-1786.4h-.5v-.96h.5z" fill="#333"/><path stroke="#333" stroke-width=".05" fill="#333"/><path d="M939.7-1967.53h-9.27l4.64-14.27z" fill="#333"/><path d="M940.36-1967.06h-10.58l5.3-16.28zm-9.27-.95h7.95l-3.98-12.26z" stroke="#333" stroke-width=".05" fill="#333"/><use xlink:href="#l" transform="matrix(1,0,0,1,934.3534496838117,-1800.3513494533013) translate(0.0049999999999954525 17.955555555555552)"/><path d="M1954.96-1756.94h-79.44v-.95h79.44zm562.38-12.46l-.15 1.94-.46 1.9-.75 1.8-1.04 1.68-1.27 1.5-1.5 1.26-1.66 1.02-1.8.75-1.92.46-1.93.16h-400.5v-.95h400.45l1.82-.13 1.76-.43 1.67-.7 1.54-.93 1.38-1.17 1.17-1.37.94-1.54.7-1.67.4-1.76.16-1.84v-213.48h.94z" stroke="#333" stroke-width=".05" fill="#333"/><path d="M2517.34-1982.9h-.95v-.52h.94z" fill="#333"/><path stroke="#333" stroke-width=".05" fill="#333"/><path d="M1875.02-1752.78l-14.27-4.64 14.27-4.63z" fill="#333"/><path d="M1875.5-1752.13l-16.28-5.3 16.27-5.27zm-13.2-5.3l12.24 4v-7.97z" stroke="#333" stroke-width=".05" fill="#333"/><use xlink:href="#k" transform="matrix(1,0,0,1,1954.962180692019,-1770.8826949033405) translate(0.0049999999999954525 17.955555555555552)"/><path d="M2203.72-1778.7h-344.08v-.95h344.08zm282.65-12.46l-.15 1.94-.46 1.9-.75 1.8-1 1.68-1.28 1.5-1.5 1.26-1.66 1.02-1.8.75-1.9.45-1.94.15h-128.37v-.95h128.33l1.82-.14 1.76-.42 1.67-.7 1.54-.93 1.38-1.18 1.17-1.37.95-1.54.7-1.67.4-1.77.15-1.83v-175.83h.95z" stroke="#333" stroke-width=".05" fill="#333"/><path d="M1859.65-1778.7h-.52v-.95h.52z" fill="#333"/><path stroke="#333" stroke-width=".05" fill="#333"/><path d="M2490.53-1967.53h-9.27l4.64-14.27z" fill="#333"/><path d="M2491.2-1967.06h-10.6l5.3-16.28zm-9.28-.95h7.96l-3.98-12.26z" stroke="#333" stroke-width=".05" fill="#333"/><use xlink:href="#l" transform="matrix(1,0,0,1,2203.7183516038194,-1792.6427069619199) translate(0.0049999999999954525 17.955555555555552)"/><path d="M836.93-1642.93l.15 1.82.42 1.74.7 1.68.94 1.54 1.17 1.37 1.4 1.18 1.53.95 1.67.7 1.76.42 1.82.14h36.4l1.94.16 1.9.46 1.8.75 1.68 1.02 1.5 1.26 1.26 1.5 1.03 1.66.74 1.8.45 1.9.14 1.95v98.13h-.95v-98.1l-.15-1.82-.42-1.76-.7-1.67-.94-1.54-1.18-1.36-1.38-1.18-1.54-.94-1.67-.7-1.76-.42-1.82-.14h-36.4l-1.94-.15-1.9-.45-1.8-.75-1.67-1.02-1.5-1.27-1.26-1.48-1.03-1.67-.75-1.8-.46-1.9-.16-1.95v-57.34h.95zm0-84.25h-.95v-255.74h.95z" stroke="#333" stroke-width=".05" fill="#333"/><path d="M836.93-1982.9h-.95v-.52h.95z" fill="#333"/><path stroke="#333" stroke-width=".05" fill="#333"/><path d="M896.87-1506.03l-4.63-14.27h9.27z" fill="#333"/><path d="M896.87-1504.5l-5.3-16.28h10.6zm-3.98-15.33l3.97 12.26 3.98-12.26z" stroke="#333" stroke-width=".05" fill="#333"/><use xlink:href="#v" transform="matrix(1,0,0,1,753.0094417841095,-1727.1770482932322) translate(0.0049999999999954525 17.955555555555552)"/><path d="M1496.87-1497.42a6 6 0 0 1 6-6h348a6 6 0 0 1 6 6v169a6 6 0 0 1-6 6h-348a6 6 0 0 1-6-6z" stroke="#3a414a" stroke-width="2" fill="#edf5ff"/><path d="M1496.87-1379.68h360" stroke="#3a414a" stroke-width="2" fill="none"/><use xlink:href="#q" transform="matrix(1,0,0,1,1504.8704090027886,-1495.4160282366738) translate(108.18919753086422 18.0888888888889)"/><use xlink:href="#r" transform="matrix(1,0,0,1,1504.8704090027886,-1495.4160282366738) translate(-2.567901234567813 45.022222222222226)"/><use xlink:href="#s" transform="matrix(1,0,0,1,1504.8704090027886,-1495.4160282366738) translate(20.7182098765432 71.95555555555556)"/><use xlink:href="#t" transform="matrix(1,0,0,1,1504.8704090027886,-1495.4160282366738) translate(99.80370370370373 98.88888888888889)"/><use xlink:href="#u" transform="matrix(1,0,0,1,1508.8704090027886,-1371.6826949033405) translate(81.68240740740742 24.988888888888887)"/><path d="M1388.98-1537.43l.14 1.82.42 1.74.7 1.68.94 1.54 1.17 1.37 1.38 1.18 1.54.95 1.67.7 1.76.42 1.82.14h219.33l.78.07.77.2.74.3.68.4.6.53.53.6.42.7.3.73.2.77.05.76-.95.08-.05-.7-.15-.62-.25-.6-.34-.55-.42-.5-.5-.42-.55-.34-.6-.24-.62-.15-.67-.04H1400.5l-1.93-.15-1.9-.45-1.8-.75-1.68-1.02-1.5-1.27-1.26-1.48-1-1.67-.76-1.8-.46-1.9-.15-1.95v-66.47h.95zm182.27-417.97l-.15 1.94-.46 1.9-.75 1.8-1.03 1.68-1.27 1.5-1.5 1.26-1.66 1.02-1.8.75-1.9.46-1.95.16H1400.5l-1.82.14-1.76.42-1.67.7-1.54.94-1.38 1.18-1.17 1.37-.95 1.55-.7 1.67-.4 1.76-.15 1.82v300.6h-.95v-300.63l.15-1.94.46-1.9.75-1.8 1-1.68 1.28-1.5 1.5-1.26 1.66-1.03 1.8-.75 1.9-.46 1.94-.15h158.28l1.82-.13 1.76-.43 1.67-.7 1.55-.93 1.37-1.17 1.18-1.37.94-1.54.7-1.67.42-1.76.14-1.84v-27.48h.95z" stroke="#333" stroke-width=".05" fill="#333"/><path d="M1571.25-1982.9h-.95v-.52h.95z" fill="#333"/><path stroke="#333" stroke-width=".05" fill="#333"/><path d="M1624.45-1506.03l-4.64-14.27h9.28z" fill="#333"/><path d="M1624.45-1504.5l-5.3-16.28h10.58zm-4-15.33l4 12.26 3.98-12.26z" stroke="#333" stroke-width=".05" fill="#333"/><use xlink:href="#v" transform="matrix(1,0,0,1,1305.053151436422,-1630.8060866197147) translate(0.0049999999999954525 17.955555555555552)"/><path d="M2336.87-1497.42a6 6 0 0 1 6-6h348a6 6 0 0 1 6 6v169a6 6 0 0 1-6 6h-348a6 6 0 0 1-6-6z" stroke="#3a414a" stroke-width="2" fill="#edf5ff"/><path d="M2336.87-1379.68h360" stroke="#3a414a" stroke-width="2" fill="none"/><use xlink:href="#q" transform="matrix(1,0,0,1,2344.8704090027886,-1495.4160282366738) translate(108.18919753086422 18.0888888888889)"/><use xlink:href="#r" transform="matrix(1,0,0,1,2344.8704090027886,-1495.4160282366738) translate(-2.567901234567813 45.022222222222226)"/><use xlink:href="#s" transform="matrix(1,0,0,1,2344.8704090027886,-1495.4160282366738) translate(20.7182098765432 71.95555555555556)"/><use xlink:href="#t" transform="matrix(1,0,0,1,2344.8704090027886,-1495.4160282366738) translate(99.80370370370373 98.88888888888889)"/><use xlink:href="#u" transform="matrix(1,0,0,1,2348.8704090027886,-1371.6826949033405) translate(81.68240740740742 24.988888888888887)"/><path d="M2574.44-1537.4l-.15 1.94-.47 1.9-.75 1.8-1.02 1.68-1.27 1.5-1.5 1.26-1.67 1.02-1.8.75-1.9.46-1.95.16h-40.47l-.66.05-.63.16-.6.25-.55.35-.5.42-.4.5-.35.55-.25.6-.15.63-.06.7-.94-.1.06-.75.18-.77.3-.74.43-.7.52-.6.6-.52.68-.42.73-.3.8-.2.77-.05h40.48l1.82-.13 1.76-.43 1.67-.7 1.54-.93 1.37-1.17 1.2-1.37.93-1.54.7-1.67.42-1.76.14-1.84v-118.34h.94zm0-145.32h-.95v-300.2h.94z" stroke="#333" stroke-width=".05" fill="#333"/><path d="M2574.44-1982.9h-.95v-.52h.94z" fill="#333"/><path stroke="#333" stroke-width=".05" fill="#333"/><path d="M2516.87-1506.03l-4.63-14.27h9.27z" fill="#333"/><path d="M2516.87-1504.5l-5.3-16.28h10.6zm-3.98-15.33l3.97 12.26 3.98-12.26z" stroke="#333" stroke-width=".05" fill="#333"/><use xlink:href="#v" transform="matrix(1,0,0,1,2490.5144949608416,-1682.7175449424117) translate(0.0049999999999954525 17.955555555555552)"/><path d="M2319.5-1464.76v.95h-157.42v-.96zm-461.13.95v-.96h75.83v.95z" stroke="#333" stroke-width=".05" fill="#333"/><path d="M1858.38-1463.8h-.5v-.96h.5z" fill="#333"/><path stroke="#333" stroke-width=".05" fill="#333"/><path d="M2334.25-1464.28l-14.26 4.63v-9.27z" fill="#333"/><path d="M2335.8-1464.28l-16.3 5.3v-10.6zm-15.34 3.98l12.25-3.98-12.24-4z" stroke="#333" stroke-width=".05" fill="#333"/><use xlink:href="#w" transform="matrix(1,0,0,1,1934.2020672049423,-1477.7510162282824) translate(0.0049999999999954525 17.955555555555552)"/><path d="M2335.37-1366.13v.95h-81.05v-.95zm-395.95 0v.95h-65.16v-.95z" stroke="#333" stroke-width=".05" fill="#333"/><path d="M2335.87-1365.18h-.5v-.95h.5z" fill="#333"/><path stroke="#333" stroke-width=".05" fill="#333"/><path d="M1873.76-1361.02l-14.27-4.63 14.26-4.64z" fill="#333"/><path d="M1874.23-1360.37l-16.28-5.3 16.28-5.27zm-13.2-5.3l12.25 4v-7.97z" stroke="#333" stroke-width=".05" fill="#333"/><use xlink:href="#x" transform="matrix(1,0,0,1,1939.4164246220253,-1379.1219870344949) translate(0.0049999999999954525 17.955555555555552)"/><path d="M2336.87-2561.42a6 6 0 0 1 6-6h348a6 6 0 0 1 6 6v88a6 6 0 0 1-6 6h-348a6 6 0 0 1-6-6z" stroke="#3a414a" stroke-width="2" fill="#fcfcca"/><path d="M2336.87-2524.48h360" stroke="#3a414a" stroke-width="2" fill="none"/><use xlink:href="#y" transform="matrix(1,0,0,1,2344.8704090027886,-2559.416028236674) translate(99.77253086419753 17.988888888888887)"/><use xlink:href="#z" transform="matrix(1,0,0,1,2348.8704090027886,-2516.4826949033404) translate(82.80462962962964 24.988888888888887)"/><path d="M716.87-2561.42a6 6 0 0 1 6-6h348a6 6 0 0 1 6 6v88a6 6 0 0 1-6 6h-348a6 6 0 0 1-6-6z" stroke="#3a414a" stroke-width="2" fill="#fcfcca"/><path d="M716.87-2524.48h360" stroke="#3a414a" stroke-width="2" fill="none"/><use xlink:href="#y" transform="matrix(1,0,0,1,724.8704090027887,-2559.416028236674) translate(99.77253086419753 17.988888888888887)"/><use xlink:href="#A" transform="matrix(1,0,0,1,728.8704090027887,-2516.4826949033404) translate(74.0138888888889 24.988888888888887)"/><path d="M821.43-2184.92h-.95v-127.03h.95zm-.1-153.96h-.95v-38.8h.94zm0-65.74h-.96v-47.3h.94z" stroke="#333" stroke-width=".05" fill="#333"/><path d="M821.43-2184.42h-.95v-.5h.95z" fill="#333"/><path stroke="#333" stroke-width=".05" fill="#333"/><path d="M828.34-2452.43h-15l7.5-13z" fill="#333"/><path d="M829.16-2451.95h-16.64l8.32-14.42zm-15-.95h13.36l-6.68-11.57z" stroke="#333" stroke-width=".05" fill="#333"/><use xlink:href="#B" transform="matrix(1,0,0,1,733.6173358043983,-2404.6177280958277) translate(0.0049999999999954525 17.955555555555552)"/><path d="M776.06-2198.9h-.95l-.06-113.05h.95zm-.2-139.98h-.94v-38.8h.95zm0-65.74h-.94v-61.3h.95z" stroke="#333" stroke-width=".05" fill="#333"/><path d="M775.87-2465.9h-.95v-.52h.95z" fill="#333"/><path stroke="#333" stroke-width=".05" fill="#333"/><path d="M775.6-2185.42l-7.5-13h15z" fill="#333"/><path d="M775.6-2184.47l-8.34-14.4h16.65zm-6.7-13.46l6.7 11.56 6.66-11.56z" stroke="#333" stroke-width=".05" fill="#333"/><use xlink:href="#C" transform="matrix(1,0,0,1,680.228301587835,-2338.8826600246307) translate(0.0049999999999954525 17.955555555555552)"/><path d="M2097.98-2126.9l-.15 1.93-.46 1.9-.75 1.8-1.02 1.68-1.28 1.5-1.48 1.27-1.67 1.02-1.8.74-1.9.46-1.95.15h-211.9v-.95h211.86l1.83-.14 1.76-.42 1.67-.7 1.55-.94 1.37-1.18 1.18-1.37.94-1.54.7-1.66.42-1.76.13-1.82v-133h.95zm0-159.98h-.95v-7.07h.95zm0-34h-.95v-81.1h.95zm0-108.03h-.95v-75.05h.95zm237.4-88.04h-118.9v-.95h118.9z" stroke="#333" stroke-width=".05" fill="#333"/><path d="M1873.13-2107.42l-13-7.5 13-7.5z" fill="#333"/><path d="M1873.6-2106.6l-14.4-8.32 14.4-8.33zm-12.5-8.32l11.55 6.67v-13.35z" stroke="#333" stroke-width=".05" fill="#333"/><path d="M2335.87-2516.94h-.5v-.95h.5z" fill="#333"/><path stroke="#333" stroke-width=".05" fill="#333"/><use xlink:href="#C" transform="matrix(1,0,0,1,2025.952105854335,-2530.8826949033405) translate(0.0049999999999954525 17.955555555555552)"/><path d="M2138.34-2095.9l-.15 1.94-.46 1.9-.75 1.8-1.04 1.68-1.27 1.5-1.5 1.26-1.66 1.02-1.8.75-1.92.46-1.93.16h-266.27v-.95h266.22l1.82-.13 1.76-.43 1.67-.7 1.54-.93 1.38-1.17 1.17-1.37.94-1.54.7-1.68.4-1.75.16-1.84v-164h.94zm0-190.98h-.95v-7.07h.94zm0-34h-.95v-81.1h.94zm183.04-166.4h-171.5l-1.8.15-1.77.43-1.66.7-1.54.93-1.38 1.18-1.17 1.38-.95 1.54-.7 1.67-.4 1.75-.16 1.82v46.82h-.95v-46.86l.15-1.94.45-1.9.75-1.8 1.03-1.68 1.27-1.5 1.5-1.26 1.66-1.02 1.82-.75 1.9-.47 1.93-.15h171.53z" stroke="#333" stroke-width=".05" fill="#333"/><path d="M2334.87-2487.74l-13 7.5v-15z" fill="#333"/><path d="M2335.82-2487.74l-14.4 8.32v-16.65zm-13.47 6.67l11.57-6.67-11.57-6.68z" stroke="#333" stroke-width=".05" fill="#333"/><path d="M1859.65-2083.44h-.52v-.95h.52z" fill="#333"/><path stroke="#333" stroke-width=".05" fill="#333"/><use xlink:href="#B" transform="matrix(1,0,0,1,2050.6487540645176,-2428.9059937133734) translate(0.0049999999999954525 17.955555555555552)"/><path d="M2568.82-2184.92h-.95l.08-127.03h.95zm.1-153.96h-.97v-44.5h.96zm0-71.42h-.97v-41.63h.96z" stroke="#333" stroke-width=".05" fill="#333"/><path d="M2575.93-2452.43h-15l7.5-13z" fill="#333"/><path d="M2576.75-2451.95h-16.64l8.33-14.42zm-15-.95h13.36l-6.67-11.57z" stroke="#333" stroke-width=".05" fill="#333"/><path d="M2568.82-2184.42h-.95v-.5h.95z" fill="#333"/><path stroke="#333" stroke-width=".05" fill="#333"/><g><use xlink:href="#B" transform="matrix(1,0,0,1,2481.1678325288317,-2338.8827097076587) translate(0.0049999999999954525 17.955555555555552)"/></g><path d="M2595.3-2198.9h-.96v-113.05h.95zm.1-139.98h-.95v-44.5h.95zm0-127.04v55.62h-.95v-55.62z" stroke="#333" stroke-width=".05" fill="#333"/><path d="M2594.8-2185.42l-7.5-13h15z" fill="#333"/><path d="M2594.8-2184.47l-8.3-14.4h16.64zm-6.66-13.46l6.68 11.56 6.67-11.56z" stroke="#333" stroke-width=".05" fill="#333"/><path d="M2595.4-2465.9h-.94v-.52h.95z" fill="#333"/><path stroke="#333" stroke-width=".05" fill="#333"/><g><use xlink:href="#C" transform="matrix(1,0,0,1,2499.6727824705654,-2410.299475297659) translate(0.0049999999999954525 17.955555555555552)"/></g><defs><path fill="#282c33" d="M177-190C167-65 218 103 67 71c-23-6-38-20-44-43l32-5c15 47 100 32 89-28v-30C133-14 115 1 83 1 29 1 15-40 15-95c0-56 16-97 71-98 29-1 48 16 59 35 1-10 0-23 2-32h30zM94-22c36 0 50-32 50-73 0-42-14-75-50-75-39 0-46 34-46 75s6 73 46 73" id="D"/><path fill="#282c33" d="M96-169c-40 0-48 33-48 73s9 75 48 75c24 0 41-14 43-38l32 2c-6 37-31 61-74 61-59 0-76-41-82-99-10-93 101-131 147-64 4 7 5 14 7 22l-32 3c-4-21-16-35-41-35" id="E"/><path fill="#282c33" d="M33-154v-36h34v36H33zM33 0v-36h34V0H33" id="F"/><path fill="#282c33" d="M143 4C61 4 22-44 18-125c-5-107 100-154 193-111 17 8 29 25 37 43l-32 9c-13-25-37-40-76-40-61 0-88 39-88 99 0 61 29 100 91 101 35 0 62-11 79-27v-45h-74v-28h105v86C228-13 192 4 143 4" id="G"/><path fill="#282c33" d="M27 0v-27h64v-190l-56 39v-29l58-41h29v221h61V0H27" id="H"/><path fill="#282c33" d="M-5 72V49h209v23H-5" id="I"/><path fill="#282c33" d="M212-179c-10-28-35-45-73-45-59 0-87 40-87 99 0 60 29 101 89 101 43 0 62-24 78-52l27 14C228-24 195 4 139 4 59 4 22-46 18-125c-6-104 99-153 187-111 19 9 31 26 39 46" id="J"/><path fill="#282c33" d="M106-169C34-169 62-67 57 0H25v-261h32l-1 103c12-21 28-36 61-36 89 0 53 116 60 194h-32v-121c2-32-8-49-39-48" id="K"/><path fill="#282c33" d="M141-36C126-15 110 5 73 4 37 3 15-17 15-53c-1-64 63-63 125-63 3-35-9-54-41-54-24 1-41 7-42 31l-33-3c5-37 33-52 76-52 45 0 72 20 72 64v82c-1 20 7 32 28 27v20c-31 9-61-2-59-35zM48-53c0 20 12 33 32 33 41-3 63-29 60-74-43 2-92-5-92 41" id="L"/><path fill="#282c33" d="M114-163C36-179 61-72 57 0H25l-1-190h30c1 12-1 29 2 39 6-27 23-49 58-41v29" id="M"/><path fill="#282c33" d="M59-47c-2 24 18 29 38 22v24C64 9 27 4 27-40v-127H5v-23h24l9-43h21v43h35v23H59v120" id="N"/><path fill="#282c33" d="M100-194c63 0 86 42 84 106H49c0 40 14 67 53 68 26 1 43-12 49-29l28 8c-11 28-37 45-77 45C44 4 14-33 15-96c1-61 26-98 85-98zm52 81c6-60-76-77-97-28-3 7-6 17-6 28h103" id="O"/><g id="a"><use transform="matrix(0.06234567901234567,0,0,0.06234567901234567,0,0)" xlink:href="#D"/><use transform="matrix(0.06234567901234567,0,0,0.06234567901234567,12.469135802469133,0)" xlink:href="#E"/><use transform="matrix(0.06234567901234567,0,0,0.06234567901234567,23.691358024691354,0)" xlink:href="#F"/><use transform="matrix(0.06234567901234567,0,0,0.06234567901234567,29.92592592592592,0)" xlink:href="#G"/><use transform="matrix(0.06234567901234567,0,0,0.06234567901234567,47.38271604938271,0)" xlink:href="#H"/><use transform="matrix(0.06234567901234567,0,0,0.06234567901234567,59.85185185185184,0)" xlink:href="#I"/><use transform="matrix(0.06234567901234567,0,0,0.06234567901234567,72.32098765432097,0)" xlink:href="#J"/><use transform="matrix(0.06234567901234567,0,0,0.06234567901234567,88.4685185185185,0)" xlink:href="#K"/><use transform="matrix(0.06234567901234567,0,0,0.06234567901234567,100.93765432098763,0)" xlink:href="#L"/><use transform="matrix(0.06234567901234567,0,0,0.06234567901234567,113.40679012345677,0)" xlink:href="#M"/><use transform="matrix(0.06234567901234567,0,0,0.06234567901234567,120.8259259259259,0)" xlink:href="#L"/><use transform="matrix(0.06234567901234567,0,0,0.06234567901234567,133.29506172839504,0)" xlink:href="#E"/><use transform="matrix(0.06234567901234567,0,0,0.06234567901234567,144.51728395061727,0)" xlink:href="#N"/><use transform="matrix(0.06234567901234567,0,0,0.06234567901234567,150.75185185185182,0)" xlink:href="#O"/><use transform="matrix(0.06234567901234567,0,0,0.06234567901234567,163.22098765432096,0)" xlink:href="#M"/></g><path fill="#282c33" d="M210-169c-67 3-38 105-44 169h-31v-121c0-29-5-50-35-48C34-165 62-65 56 0H25l-1-190h30c1 10-1 24 2 32 10-44 99-50 107 0 11-21 27-35 58-36 85-2 47 119 55 194h-31v-121c0-29-5-49-35-48" id="P"/><path fill="#282c33" d="M30 0v-248h187v28H63v79h144v27H63v87h162V0H30" id="Q"/><path fill="#282c33" d="M134-131c28 9 52 24 51 62-1 50-34 73-85 73S17-19 16-69c0-36 21-54 49-61-75-25-45-126 34-121 46 3 78 18 79 63 0 33-17 51-44 57zm-34-11c31 1 46-15 46-44 0-28-17-43-47-42-29 0-46 13-45 42 1 28 16 44 46 44zm1 122c35 0 51-18 51-52 0-30-18-46-53-46-33 0-51 17-51 47 0 34 19 51 53 51" id="R"/><path fill="#282c33" d="M99-251c64 0 84 50 84 122C183-37 130 33 47-8c-14-7-20-23-25-40l30-5c6 39 69 39 84 7 9-19 16-44 16-74-10 22-31 35-62 35-49 0-73-33-73-83 0-54 28-83 82-83zm-1 141c31-1 51-18 51-49 0-36-14-67-51-67-34 0-49 23-49 58 0 34 15 58 49 58" id="S"/><path fill="#282c33" d="M30-248c87 1 191-15 191 75 0 78-77 80-158 76V0H30v-248zm33 125c57 0 124 11 124-50 0-59-68-47-124-48v98" id="T"/><path fill="#282c33" d="M100-194c62-1 85 37 85 99 1 63-27 99-86 99S16-35 15-95c0-66 28-99 85-99zM99-20c44 1 53-31 53-75 0-43-8-75-51-75s-53 32-53 75 10 74 51 75" id="U"/><path fill="#282c33" d="M115-194c55 1 70 41 70 98S169 2 115 4C84 4 66-9 55-30l1 105H24l-1-265h31l2 30c10-21 28-34 59-34zm-8 174c40 0 45-34 45-75s-6-73-45-74c-42 0-51 32-51 76 0 43 10 73 51 73" id="V"/><path fill="#282c33" d="M135-143c-3-34-86-38-87 0 15 53 115 12 119 90S17 21 10-45l28-5c4 36 97 45 98 0-10-56-113-15-118-90-4-57 82-63 122-42 12 7 21 19 24 35" id="W"/><path fill="#282c33" d="M24-231v-30h32v30H24zM24 0v-190h32V0H24" id="X"/><path fill="#282c33" d="M117-194c89-4 53 116 60 194h-32v-121c0-31-8-49-39-48C34-167 62-67 57 0H25l-1-190h30c1 10-1 24 2 32 11-22 29-35 61-36" id="Y"/><path fill="#282c33" d="M24 0v-261h32V0H24" id="Z"/><path fill="#282c33" d="M140-251c81 0 123 46 123 126C263-46 219 4 140 4 59 4 17-45 17-125s42-126 123-126zm0 227c63 0 89-41 89-101s-29-99-89-99c-61 0-89 39-89 99S79-25 140-24" id="aa"/><path fill="#282c33" d="M115-194c53 0 69 39 70 98 0 66-23 100-70 100C84 3 66-7 56-30L54 0H23l1-261h32v101c10-23 28-34 59-34zm-8 174c40 0 45-34 45-75 0-40-5-75-45-74-42 0-51 32-51 76 0 43 10 73 51 73" id="ab"/><path fill="#282c33" d="M24-231v-30h32v30H24zM-9 49c24 4 33-6 33-30v-209h32V24c2 40-23 58-65 49V49" id="ac"/><g id="b"><use transform="matrix(0.06234567901234567,0,0,0.06234567901234567,0,0)" xlink:href="#E"/><use transform="matrix(0.06234567901234567,0,0,0.06234567901234567,11.22222222222222,0)" xlink:href="#M"/><use transform="matrix(0.06234567901234567,0,0,0.06234567901234567,18.641358024691353,0)" xlink:href="#P"/><use transform="matrix(0.06234567901234567,0,0,0.06234567901234567,37.28271604938271,0)" xlink:href="#F"/><use transform="matrix(0.06234567901234567,0,0,0.06234567901234567,43.51728395061727,0)" xlink:href="#Q"/><use transform="matrix(0.06234567901234567,0,0,0.06234567901234567,58.48024691358023,0)" xlink:href="#R"/><use transform="matrix(0.06234567901234567,0,0,0.06234567901234567,70.94938271604937,0)" xlink:href="#S"/><use transform="matrix(0.06234567901234567,0,0,0.06234567901234567,83.41851851851851,0)" xlink:href="#I"/><use transform="matrix(0.06234567901234567,0,0,0.06234567901234567,95.88765432098765,0)" xlink:href="#T"/><use transform="matrix(0.06234567901234567,0,0,0.06234567901234567,110.85061728395061,0)" xlink:href="#M"/><use transform="matrix(0.06234567901234567,0,0,0.06234567901234567,118.26975308641974,0)" xlink:href="#U"/><use transform="matrix(0.06234567901234567,0,0,0.06234567901234567,130.73888888888888,0)" xlink:href="#V"/><use transform="matrix(0.06234567901234567,0,0,0.06234567901234567,143.20802469135802,0)" xlink:href="#U"/><use transform="matrix(0.06234567901234567,0,0,0.06234567901234567,155.67716049382716,0)" xlink:href="#W"/><use transform="matrix(0.06234567901234567,0,0,0.06234567901234567,166.8993827160494,0)" xlink:href="#X"/><use transform="matrix(0.06234567901234567,0,0,0.06234567901234567,171.8246913580247,0)" xlink:href="#N"/><use transform="matrix(0.06234567901234567,0,0,0.06234567901234567,178.05925925925925,0)" xlink:href="#X"/><use transform="matrix(0.06234567901234567,0,0,0.06234567901234567,182.98456790123456,0)" xlink:href="#U"/><use transform="matrix(0.06234567901234567,0,0,0.06234567901234567,195.4537037037037,0)" xlink:href="#Y"/><use transform="matrix(0.06234567901234567,0,0,0.06234567901234567,207.92283950617283,0)" xlink:href="#L"/><use transform="matrix(0.06234567901234567,0,0,0.06234567901234567,220.39197530864197,0)" xlink:href="#Z"/><use transform="matrix(0.06234567901234567,0,0,0.06234567901234567,225.31728395061728,0)" xlink:href="#I"/><use transform="matrix(0.06234567901234567,0,0,0.06234567901234567,237.78641975308642,0)" xlink:href="#aa"/><use transform="matrix(0.06234567901234567,0,0,0.06234567901234567,255.2432098765432,0)" xlink:href="#ab"/><use transform="matrix(0.06234567901234567,0,0,0.06234567901234567,267.71234567901234,0)" xlink:href="#ac"/><use transform="matrix(0.06234567901234567,0,0,0.06234567901234567,272.6376543209877,0)" xlink:href="#O"/><use transform="matrix(0.06234567901234567,0,0,0.06234567901234567,285.1067901234568,0)" xlink:href="#E"/><use transform="matrix(0.06234567901234567,0,0,0.06234567901234567,296.329012345679,0)" xlink:href="#N"/></g><path fill="#282c33" d="M85-194c31 0 48 13 60 33l-1-100h32l1 261h-30c-2-10 0-23-3-31C134-8 116 4 85 4 32 4 16-35 15-94c0-66 23-100 70-100zm9 24c-40 0-46 34-46 75 0 40 6 74 45 74 42 0 51-32 51-76 0-42-9-74-50-73" id="ad"/><path fill="#282c33" d="M108 0H70L1-190h34L89-25l56-165h34" id="ae"/><path fill="#282c33" d="M16-82v-28h88v28H16" id="af"/><g id="c"><use transform="matrix(0.06234567901234567,0,0,0.06234567901234567,0,0)" xlink:href="#ad"/><use transform="matrix(0.06234567901234567,0,0,0.06234567901234567,12.469135802469133,0)" xlink:href="#Z"/><use transform="matrix(0.06234567901234567,0,0,0.06234567901234567,17.39444444444444,0)" xlink:href="#V"/><use transform="matrix(0.06234567901234567,0,0,0.06234567901234567,29.86358024691357,0)" xlink:href="#F"/><use transform="matrix(0.06234567901234567,0,0,0.06234567901234567,36.09814814814814,0)" xlink:href="#L"/><use transform="matrix(0.06234567901234567,0,0,0.06234567901234567,48.56728395061727,0)" xlink:href="#D"/><use transform="matrix(0.06234567901234567,0,0,0.06234567901234567,61.036419753086406,0)" xlink:href="#O"/><use transform="matrix(0.06234567901234567,0,0,0.06234567901234567,73.50555555555553,0)" xlink:href="#Y"/><use transform="matrix(0.06234567901234567,0,0,0.06234567901234567,85.97469135802467,0)" xlink:href="#N"/><use transform="matrix(0.06234567901234567,0,0,0.06234567901234567,92.20925925925924,0)" xlink:href="#X"/><use transform="matrix(0.06234567901234567,0,0,0.06234567901234567,97.13456790123455,0)" xlink:href="#ae"/><use transform="matrix(0.06234567901234567,0,0,0.06234567901234567,108.35679012345676,0)" xlink:href="#O"/><use transform="matrix(0.06234567901234567,0,0,0.06234567901234567,120.8259259259259,0)" xlink:href="#af"/><use transform="matrix(0.06234567901234567,0,0,0.06234567901234567,128.24506172839503,0)" xlink:href="#W"/><use transform="matrix(0.06234567901234567,0,0,0.06234567901234567,139.46728395061726,0)" xlink:href="#U"/><use transform="matrix(0.06234567901234567,0,0,0.06234567901234567,151.9364197530864,0)" xlink:href="#E"/><use transform="matrix(0.06234567901234567,0,0,0.06234567901234567,163.15864197530863,0)" xlink:href="#X"/><use transform="matrix(0.06234567901234567,0,0,0.06234567901234567,168.08395061728393,0)" xlink:href="#L"/><use transform="matrix(0.06234567901234567,0,0,0.06234567901234567,180.55308641975307,0)" xlink:href="#Z"/><use transform="matrix(0.06234567901234567,0,0,0.06234567901234567,185.47839506172838,0)" xlink:href="#af"/><use transform="matrix(0.06234567901234567,0,0,0.06234567901234567,192.8975308641975,0)" xlink:href="#U"/><use transform="matrix(0.06234567901234567,0,0,0.06234567901234567,205.36666666666665,0)" xlink:href="#ab"/><use transform="matrix(0.06234567901234567,0,0,0.06234567901234567,217.83580246913579,0)" xlink:href="#ac"/><use transform="matrix(0.06234567901234567,0,0,0.06234567901234567,222.7611111111111,0)" xlink:href="#O"/><use transform="matrix(0.06234567901234567,0,0,0.06234567901234567,235.23024691358023,0)" xlink:href="#E"/><use transform="matrix(0.06234567901234567,0,0,0.06234567901234567,246.45246913580246,0)" xlink:href="#N"/></g><path fill="#282c33" d="M101-234c-31-9-42 10-38 44h38v23H63V0H32v-167H5v-23h27c-7-52 17-82 69-68v24" id="ag"/><g id="d"><use transform="matrix(0.06234567901234567,0,0,0.06234567901234567,0,0)" xlink:href="#D"/><use transform="matrix(0.06234567901234567,0,0,0.06234567901234567,12.469135802469133,0)" xlink:href="#ad"/><use transform="matrix(0.06234567901234567,0,0,0.06234567901234567,24.938271604938265,0)" xlink:href="#F"/><use transform="matrix(0.06234567901234567,0,0,0.06234567901234567,31.17283950617283,0)" xlink:href="#ag"/><use transform="matrix(0.06234567901234567,0,0,0.06234567901234567,37.4074074074074,0)" xlink:href="#L"/><use transform="matrix(0.06234567901234567,0,0,0.06234567901234567,49.87654320987653,0)" xlink:href="#Y"/><use transform="matrix(0.06234567901234567,0,0,0.06234567901234567,62.34567901234566,0)" xlink:href="#ag"/><use transform="matrix(0.06234567901234567,0,0,0.06234567901234567,68.58024691358023,0)" xlink:href="#X"/><use transform="matrix(0.06234567901234567,0,0,0.06234567901234567,73.50555555555553,0)" xlink:href="#E"/><use transform="matrix(0.06234567901234567,0,0,0.06234567901234567,84.72777777777775,0)" xlink:href="#N"/><use transform="matrix(0.06234567901234567,0,0,0.06234567901234567,90.96234567901232,0)" xlink:href="#X"/><use transform="matrix(0.06234567901234567,0,0,0.06234567901234567,95.88765432098762,0)" xlink:href="#U"/><use transform="matrix(0.06234567901234567,0,0,0.06234567901234567,108.35679012345676,0)" xlink:href="#Y"/><use transform="matrix(0.06234567901234567,0,0,0.06234567901234567,120.8259259259259,0)" xlink:href="#J"/><use transform="matrix(0.06234567901234567,0,0,0.06234567901234567,136.97345679012344,0)" xlink:href="#K"/><use transform="matrix(0.06234567901234567,0,0,0.06234567901234567,149.44259259259258,0)" xlink:href="#L"/><use transform="matrix(0.06234567901234567,0,0,0.06234567901234567,161.91172839506171,0)" xlink:href="#M"/><use transform="matrix(0.06234567901234567,0,0,0.06234567901234567,169.33086419753084,0)" xlink:href="#L"/><use transform="matrix(0.06234567901234567,0,0,0.06234567901234567,181.79999999999998,0)" xlink:href="#E"/><use transform="matrix(0.06234567901234567,0,0,0.06234567901234567,193.0222222222222,0)" xlink:href="#N"/><use transform="matrix(0.06234567901234567,0,0,0.06234567901234567,199.25679012345677,0)" xlink:href="#O"/><use transform="matrix(0.06234567901234567,0,0,0.06234567901234567,211.7259259259259,0)" xlink:href="#M"/></g><path fill="#282c33" d="M101-251c68 0 85 55 85 127S166 4 100 4C33 4 14-52 14-124c0-73 17-127 87-127zm-1 229c47 0 54-49 54-102s-4-102-53-102c-51 0-55 48-55 102 0 53 5 102 54 102" id="ah"/><path fill="#282c33" d="M185-189c-5-48-123-54-124 2 14 75 158 14 163 119 3 78-121 87-175 55-17-10-28-26-33-46l33-7c5 56 141 63 141-1 0-78-155-14-162-118-5-82 145-84 179-34 5 7 8 16 11 25" id="ai"/><g id="e"><use transform="matrix(0.06234567901234567,0,0,0.06234567901234567,0,0)" xlink:href="#D"/><use transform="matrix(0.06234567901234567,0,0,0.06234567901234567,12.469135802469133,0)" xlink:href="#E"/><use transform="matrix(0.06234567901234567,0,0,0.06234567901234567,23.691358024691354,0)" xlink:href="#F"/><use transform="matrix(0.06234567901234567,0,0,0.06234567901234567,29.92592592592592,0)" xlink:href="#G"/><use transform="matrix(0.06234567901234567,0,0,0.06234567901234567,47.38271604938271,0)" xlink:href="#ah"/><use transform="matrix(0.06234567901234567,0,0,0.06234567901234567,59.85185185185184,0)" xlink:href="#I"/><use transform="matrix(0.06234567901234567,0,0,0.06234567901234567,72.32098765432097,0)" xlink:href="#J"/><use transform="matrix(0.06234567901234567,0,0,0.06234567901234567,88.4685185185185,0)" xlink:href="#K"/><use transform="matrix(0.06234567901234567,0,0,0.06234567901234567,100.93765432098763,0)" xlink:href="#L"/><use transform="matrix(0.06234567901234567,0,0,0.06234567901234567,113.40679012345677,0)" xlink:href="#M"/><use transform="matrix(0.06234567901234567,0,0,0.06234567901234567,120.8259259259259,0)" xlink:href="#L"/><use transform="matrix(0.06234567901234567,0,0,0.06234567901234567,133.29506172839504,0)" xlink:href="#E"/><use transform="matrix(0.06234567901234567,0,0,0.06234567901234567,144.51728395061727,0)" xlink:href="#N"/><use transform="matrix(0.06234567901234567,0,0,0.06234567901234567,150.75185185185182,0)" xlink:href="#O"/><use transform="matrix(0.06234567901234567,0,0,0.06234567901234567,163.22098765432096,0)" xlink:href="#M"/><use transform="matrix(0.06234567901234567,0,0,0.06234567901234567,170.6401234567901,0)" xlink:href="#I"/><use transform="matrix(0.06234567901234567,0,0,0.06234567901234567,183.10925925925923,0)" xlink:href="#ai"/><use transform="matrix(0.06234567901234567,0,0,0.06234567901234567,198.0722222222222,0)" xlink:href="#N"/><use transform="matrix(0.06234567901234567,0,0,0.06234567901234567,204.30679012345675,0)" xlink:href="#U"/><use transform="matrix(0.06234567901234567,0,0,0.06234567901234567,216.7759259259259,0)" xlink:href="#ag"/><use transform="matrix(0.06234567901234567,0,0,0.06234567901234567,222.57407407407402,0)" xlink:href="#ag"/></g><g id="f"><use transform="matrix(0.06234567901234567,0,0,0.06234567901234567,0,0)" xlink:href="#E"/><use transform="matrix(0.06234567901234567,0,0,0.06234567901234567,11.22222222222222,0)" xlink:href="#M"/><use transform="matrix(0.06234567901234567,0,0,0.06234567901234567,18.641358024691353,0)" xlink:href="#P"/><use transform="matrix(0.06234567901234567,0,0,0.06234567901234567,37.28271604938271,0)" xlink:href="#F"/><use transform="matrix(0.06234567901234567,0,0,0.06234567901234567,43.51728395061727,0)" xlink:href="#Q"/><use transform="matrix(0.06234567901234567,0,0,0.06234567901234567,58.48024691358023,0)" xlink:href="#R"/><use transform="matrix(0.06234567901234567,0,0,0.06234567901234567,70.94938271604937,0)" xlink:href="#S"/><use transform="matrix(0.06234567901234567,0,0,0.06234567901234567,83.41851851851851,0)" xlink:href="#I"/><use transform="matrix(0.06234567901234567,0,0,0.06234567901234567,95.88765432098765,0)" xlink:href="#T"/><use transform="matrix(0.06234567901234567,0,0,0.06234567901234567,110.85061728395061,0)" xlink:href="#M"/><use transform="matrix(0.06234567901234567,0,0,0.06234567901234567,118.26975308641974,0)" xlink:href="#U"/><use transform="matrix(0.06234567901234567,0,0,0.06234567901234567,130.73888888888888,0)" xlink:href="#V"/><use transform="matrix(0.06234567901234567,0,0,0.06234567901234567,143.20802469135802,0)" xlink:href="#U"/><use transform="matrix(0.06234567901234567,0,0,0.06234567901234567,155.67716049382716,0)" xlink:href="#W"/><use transform="matrix(0.06234567901234567,0,0,0.06234567901234567,166.8993827160494,0)" xlink:href="#X"/><use transform="matrix(0.06234567901234567,0,0,0.06234567901234567,171.8246913580247,0)" xlink:href="#N"/><use transform="matrix(0.06234567901234567,0,0,0.06234567901234567,178.05925925925925,0)" xlink:href="#X"/><use transform="matrix(0.06234567901234567,0,0,0.06234567901234567,182.98456790123456,0)" xlink:href="#U"/><use transform="matrix(0.06234567901234567,0,0,0.06234567901234567,195.4537037037037,0)" xlink:href="#Y"/><use transform="matrix(0.06234567901234567,0,0,0.06234567901234567,207.92283950617283,0)" xlink:href="#L"/><use transform="matrix(0.06234567901234567,0,0,0.06234567901234567,220.39197530864197,0)" xlink:href="#Z"/><use transform="matrix(0.06234567901234567,0,0,0.06234567901234567,225.31728395061728,0)" xlink:href="#I"/><use transform="matrix(0.06234567901234567,0,0,0.06234567901234567,237.78641975308642,0)" xlink:href="#aa"/><use transform="matrix(0.06234567901234567,0,0,0.06234567901234567,255.2432098765432,0)" xlink:href="#ab"/><use transform="matrix(0.06234567901234567,0,0,0.06234567901234567,267.71234567901234,0)" xlink:href="#ac"/><use transform="matrix(0.06234567901234567,0,0,0.06234567901234567,272.6376543209877,0)" xlink:href="#O"/><use transform="matrix(0.06234567901234567,0,0,0.06234567901234567,285.1067901234568,0)" xlink:href="#E"/><use transform="matrix(0.06234567901234567,0,0,0.06234567901234567,296.329012345679,0)" xlink:href="#N"/></g><g id="g"><use transform="matrix(0.06234567901234567,0,0,0.06234567901234567,0,0)" xlink:href="#D"/><use transform="matrix(0.06234567901234567,0,0,0.06234567901234567,12.469135802469133,0)" xlink:href="#ad"/><use transform="matrix(0.06234567901234567,0,0,0.06234567901234567,24.938271604938265,0)" xlink:href="#F"/><use transform="matrix(0.06234567901234567,0,0,0.06234567901234567,31.17283950617283,0)" xlink:href="#E"/><use transform="matrix(0.06234567901234567,0,0,0.06234567901234567,42.39506172839505,0)" xlink:href="#K"/><use transform="matrix(0.06234567901234567,0,0,0.06234567901234567,54.86419753086418,0)" xlink:href="#L"/><use transform="matrix(0.06234567901234567,0,0,0.06234567901234567,67.33333333333331,0)" xlink:href="#M"/><use transform="matrix(0.06234567901234567,0,0,0.06234567901234567,74.75246913580244,0)" xlink:href="#L"/><use transform="matrix(0.06234567901234567,0,0,0.06234567901234567,87.22160493827158,0)" xlink:href="#E"/><use transform="matrix(0.06234567901234567,0,0,0.06234567901234567,98.4438271604938,0)" xlink:href="#N"/><use transform="matrix(0.06234567901234567,0,0,0.06234567901234567,104.67839506172837,0)" xlink:href="#O"/><use transform="matrix(0.06234567901234567,0,0,0.06234567901234567,117.1475308641975,0)" xlink:href="#M"/></g><g id="h"><use transform="matrix(0.06234567901234567,0,0,0.06234567901234567,0,0)" xlink:href="#D"/><use transform="matrix(0.06234567901234567,0,0,0.06234567901234567,12.469135802469133,0)" xlink:href="#ad"/><use transform="matrix(0.06234567901234567,0,0,0.06234567901234567,24.938271604938265,0)" xlink:href="#F"/><use transform="matrix(0.06234567901234567,0,0,0.06234567901234567,31.17283950617283,0)" xlink:href="#U"/><use transform="matrix(0.06234567901234567,0,0,0.06234567901234567,43.64197530864196,0)" xlink:href="#M"/><use transform="matrix(0.06234567901234567,0,0,0.06234567901234567,51.061111111111096,0)" xlink:href="#X"/><use transform="matrix(0.06234567901234567,0,0,0.06234567901234567,55.9864197530864,0)" xlink:href="#D"/><use transform="matrix(0.06234567901234567,0,0,0.06234567901234567,68.45555555555553,0)" xlink:href="#X"/><use transform="matrix(0.06234567901234567,0,0,0.06234567901234567,73.38086419753084,0)" xlink:href="#Y"/><use transform="matrix(0.06234567901234567,0,0,0.06234567901234567,85.84999999999997,0)" xlink:href="#L"/><use transform="matrix(0.06234567901234567,0,0,0.06234567901234567,98.3191358024691,0)" xlink:href="#Z"/><use transform="matrix(0.06234567901234567,0,0,0.06234567901234567,103.24444444444441,0)" xlink:href="#J"/><use transform="matrix(0.06234567901234567,0,0,0.06234567901234567,119.39197530864195,0)" xlink:href="#K"/><use transform="matrix(0.06234567901234567,0,0,0.06234567901234567,131.8611111111111,0)" xlink:href="#L"/><use transform="matrix(0.06234567901234567,0,0,0.06234567901234567,144.33024691358023,0)" xlink:href="#M"/><use transform="matrix(0.06234567901234567,0,0,0.06234567901234567,151.74938271604935,0)" xlink:href="#L"/><use transform="matrix(0.06234567901234567,0,0,0.06234567901234567,164.2185185185185,0)" xlink:href="#E"/><use transform="matrix(0.06234567901234567,0,0,0.06234567901234567,175.44074074074072,0)" xlink:href="#N"/><use transform="matrix(0.06234567901234567,0,0,0.06234567901234567,181.67530864197528,0)" xlink:href="#O"/><use transform="matrix(0.06234567901234567,0,0,0.06234567901234567,194.14444444444442,0)" xlink:href="#M"/></g><path fill="#282c33" d="M126-127c33 6 58 20 58 59 0 88-139 92-164 29-3-8-5-16-6-25l32-3c6 27 21 44 54 44 32 0 52-15 52-46 0-38-36-46-79-43v-28c39 1 72-4 72-42 0-27-17-43-46-43-28 0-47 15-49 41l-32-3c6-42 35-63 81-64 48-1 79 21 79 65 0 36-21 52-52 59" id="aj"/><path fill="#282c33" d="M84 4C-5 8 30-112 23-190h32v120c0 31 7 50 39 49 72-2 45-101 50-169h31l1 190h-30c-1-10 1-25-2-33-11 22-28 36-60 37" id="ak"/><g id="i"><use transform="matrix(0.06234567901234567,0,0,0.06234567901234567,0,0)" xlink:href="#E"/><use transform="matrix(0.06234567901234567,0,0,0.06234567901234567,11.22222222222222,0)" xlink:href="#M"/><use transform="matrix(0.06234567901234567,0,0,0.06234567901234567,18.641358024691353,0)" xlink:href="#P"/><use transform="matrix(0.06234567901234567,0,0,0.06234567901234567,37.28271604938271,0)" xlink:href="#F"/><use transform="matrix(0.06234567901234567,0,0,0.06234567901234567,43.51728395061727,0)" xlink:href="#T"/><use transform="matrix(0.06234567901234567,0,0,0.06234567901234567,58.48024691358023,0)" xlink:href="#H"/><use transform="matrix(0.06234567901234567,0,0,0.06234567901234567,70.94938271604937,0)" xlink:href="#aj"/><use transform="matrix(0.06234567901234567,0,0,0.06234567901234567,83.41851851851851,0)" xlink:href="#ah"/><use transform="matrix(0.06234567901234567,0,0,0.06234567901234567,95.88765432098765,0)" xlink:href="#I"/><use transform="matrix(0.06234567901234567,0,0,0.06234567901234567,108.35679012345679,0)" xlink:href="#ag"/><use transform="matrix(0.06234567901234567,0,0,0.06234567901234567,114.59135802469136,0)" xlink:href="#O"/><use transform="matrix(0.06234567901234567,0,0,0.06234567901234567,127.06049382716049,0)" xlink:href="#L"/><use transform="matrix(0.06234567901234567,0,0,0.06234567901234567,139.52962962962962,0)" xlink:href="#N"/><use transform="matrix(0.06234567901234567,0,0,0.06234567901234567,145.76419753086418,0)" xlink:href="#ak"/><use transform="matrix(0.06234567901234567,0,0,0.06234567901234567,158.23333333333332,0)" xlink:href="#M"/><use transform="matrix(0.06234567901234567,0,0,0.06234567901234567,165.65246913580245,0)" xlink:href="#O"/><use transform="matrix(0.06234567901234567,0,0,0.06234567901234567,178.1216049382716,0)" xlink:href="#W"/><use transform="matrix(0.06234567901234567,0,0,0.06234567901234567,189.34382716049382,0)" xlink:href="#I"/><use transform="matrix(0.06234567901234567,0,0,0.06234567901234567,201.81296296296296,0)" xlink:href="#L"/><use transform="matrix(0.06234567901234567,0,0,0.06234567901234567,214.2820987654321,0)" xlink:href="#M"/><use transform="matrix(0.06234567901234567,0,0,0.06234567901234567,221.70123456790122,0)" xlink:href="#O"/><use transform="matrix(0.06234567901234567,0,0,0.06234567901234567,234.17037037037036,0)" xlink:href="#I"/><use transform="matrix(0.06234567901234567,0,0,0.06234567901234567,246.6395061728395,0)" xlink:href="#L"/><use transform="matrix(0.06234567901234567,0,0,0.06234567901234567,259.1086419753086,0)" xlink:href="#Z"/><use transform="matrix(0.06234567901234567,0,0,0.06234567901234567,264.03395061728395,0)" xlink:href="#W"/><use transform="matrix(0.06234567901234567,0,0,0.06234567901234567,275.2561728395062,0)" xlink:href="#U"/><use transform="matrix(0.06234567901234567,0,0,0.06234567901234567,287.7253086419753,0)" xlink:href="#I"/><use transform="matrix(0.06234567901234567,0,0,0.06234567901234567,300.1944444444444,0)" xlink:href="#ag"/><use transform="matrix(0.06234567901234567,0,0,0.06234567901234567,306.429012345679,0)" xlink:href="#U"/><use transform="matrix(0.06234567901234567,0,0,0.06234567901234567,318.8981481481481,0)" xlink:href="#ak"/><use transform="matrix(0.06234567901234567,0,0,0.06234567901234567,331.3672839506172,0)" xlink:href="#Y"/><use transform="matrix(0.06234567901234567,0,0,0.06234567901234567,343.8364197530863,0)" xlink:href="#ad"/><use transform="matrix(0.06234567901234567,0,0,0.06234567901234567,356.30555555555543,0)" xlink:href="#I"/><use transform="matrix(0.06234567901234567,0,0,0.06234567901234567,368.77469135802454,0)" xlink:href="#U"/><use transform="matrix(0.06234567901234567,0,0,0.06234567901234567,381.24382716049365,0)" xlink:href="#Y"/></g><path fill="#282c33" d="M206 0h-36l-40-164L89 0H53L-1-190h32L70-26l43-164h34l41 164 42-164h31" id="al"/><g id="j"><use transform="matrix(0.06234567901234567,0,0,0.06234567901234567,0,0)" xlink:href="#E"/><use transform="matrix(0.06234567901234567,0,0,0.06234567901234567,11.22222222222222,0)" xlink:href="#M"/><use transform="matrix(0.06234567901234567,0,0,0.06234567901234567,18.641358024691353,0)" xlink:href="#P"/><use transform="matrix(0.06234567901234567,0,0,0.06234567901234567,37.28271604938271,0)" xlink:href="#F"/><use transform="matrix(0.06234567901234567,0,0,0.06234567901234567,43.51728395061727,0)" xlink:href="#T"/><use transform="matrix(0.06234567901234567,0,0,0.06234567901234567,58.48024691358023,0)" xlink:href="#H"/><use transform="matrix(0.06234567901234567,0,0,0.06234567901234567,70.94938271604937,0)" xlink:href="#aj"/><use transform="matrix(0.06234567901234567,0,0,0.06234567901234567,83.41851851851851,0)" xlink:href="#ah"/><use transform="matrix(0.06234567901234567,0,0,0.06234567901234567,95.88765432098765,0)" xlink:href="#I"/><use transform="matrix(0.06234567901234567,0,0,0.06234567901234567,108.35679012345679,0)" xlink:href="#W"/><use transform="matrix(0.06234567901234567,0,0,0.06234567901234567,119.579012345679,0)" xlink:href="#K"/><use transform="matrix(0.06234567901234567,0,0,0.06234567901234567,132.04814814814813,0)" xlink:href="#U"/><use transform="matrix(0.06234567901234567,0,0,0.06234567901234567,144.51728395061727,0)" xlink:href="#al"/><use transform="matrix(0.06234567901234567,0,0,0.06234567901234567,160.6648148148148,0)" xlink:href="#W"/><use transform="matrix(0.06234567901234567,0,0,0.06234567901234567,171.88703703703703,0)" xlink:href="#I"/><use transform="matrix(0.06234567901234567,0,0,0.06234567901234567,184.35617283950617,0)" xlink:href="#ag"/><use transform="matrix(0.06234567901234567,0,0,0.06234567901234567,190.59074074074073,0)" xlink:href="#O"/><use transform="matrix(0.06234567901234567,0,0,0.06234567901234567,203.05987654320987,0)" xlink:href="#L"/><use transform="matrix(0.06234567901234567,0,0,0.06234567901234567,215.529012345679,0)" xlink:href="#N"/><use transform="matrix(0.06234567901234567,0,0,0.06234567901234567,221.76358024691356,0)" xlink:href="#ak"/><use transform="matrix(0.06234567901234567,0,0,0.06234567901234567,234.2327160493827,0)" xlink:href="#M"/><use transform="matrix(0.06234567901234567,0,0,0.06234567901234567,241.65185185185183,0)" xlink:href="#O"/><use transform="matrix(0.06234567901234567,0,0,0.06234567901234567,254.12098765432097,0)" xlink:href="#W"/><use transform="matrix(0.06234567901234567,0,0,0.06234567901234567,265.3432098765432,0)" xlink:href="#I"/><use transform="matrix(0.06234567901234567,0,0,0.06234567901234567,277.8123456790123,0)" xlink:href="#U"/><use transform="matrix(0.06234567901234567,0,0,0.06234567901234567,290.2814814814814,0)" xlink:href="#ag"/></g><path fill="#282c33" d="M145-31C134-9 116 4 85 4 32 4 16-35 15-94c0-59 17-99 70-100 32-1 48 14 60 33 0-11-1-24 2-32h30l-1 268h-32zM93-21c41 0 51-33 51-76s-8-73-50-73c-40 0-46 35-46 75s5 74 45 74" id="am"/><path fill="#282c33" d="M179-190L93 31C79 59 56 82 12 73V49c39 6 53-20 64-50L1-190h34L92-34l54-156h33" id="an"/><g id="k"><use transform="matrix(0.06234567901234567,0,0,0.06234567901234567,0,0)" xlink:href="#ad"/><use transform="matrix(0.06234567901234567,0,0,0.06234567901234567,12.469135802469133,0)" xlink:href="#Z"/><use transform="matrix(0.06234567901234567,0,0,0.06234567901234567,17.39444444444444,0)" xlink:href="#V"/><use transform="matrix(0.06234567901234567,0,0,0.06234567901234567,29.86358024691357,0)" xlink:href="#F"/><use transform="matrix(0.06234567901234567,0,0,0.06234567901234567,36.09814814814814,0)" xlink:href="#K"/><use transform="matrix(0.06234567901234567,0,0,0.06234567901234567,48.56728395061727,0)" xlink:href="#L"/><use transform="matrix(0.06234567901234567,0,0,0.06234567901234567,61.036419753086406,0)" xlink:href="#W"/><use transform="matrix(0.06234567901234567,0,0,0.06234567901234567,72.25864197530862,0)" xlink:href="#I"/><use transform="matrix(0.06234567901234567,0,0,0.06234567901234567,84.72777777777776,0)" xlink:href="#am"/><use transform="matrix(0.06234567901234567,0,0,0.06234567901234567,97.1969135802469,0)" xlink:href="#ak"/><use transform="matrix(0.06234567901234567,0,0,0.06234567901234567,109.66604938271604,0)" xlink:href="#L"/><use transform="matrix(0.06234567901234567,0,0,0.06234567901234567,122.13518518518518,0)" xlink:href="#Z"/><use transform="matrix(0.06234567901234567,0,0,0.06234567901234567,127.06049382716049,0)" xlink:href="#X"/><use transform="matrix(0.06234567901234567,0,0,0.06234567901234567,131.9858024691358,0)" xlink:href="#N"/><use transform="matrix(0.06234567901234567,0,0,0.06234567901234567,138.22037037037035,0)" xlink:href="#an"/></g><g id="l"><use transform="matrix(0.06234567901234567,0,0,0.06234567901234567,0,0)" xlink:href="#ad"/><use transform="matrix(0.06234567901234567,0,0,0.06234567901234567,12.469135802469133,0)" xlink:href="#Z"/><use transform="matrix(0.06234567901234567,0,0,0.06234567901234567,17.39444444444444,0)" xlink:href="#V"/><use transform="matrix(0.06234567901234567,0,0,0.06234567901234567,29.86358024691357,0)" xlink:href="#F"/><use transform="matrix(0.06234567901234567,0,0,0.06234567901234567,36.09814814814814,0)" xlink:href="#X"/><use transform="matrix(0.06234567901234567,0,0,0.06234567901234567,41.02345679012345,0)" xlink:href="#Y"/><use transform="matrix(0.06234567901234567,0,0,0.06234567901234567,53.49259259259258,0)" xlink:href="#K"/><use transform="matrix(0.06234567901234567,0,0,0.06234567901234567,65.96172839506171,0)" xlink:href="#O"/><use transform="matrix(0.06234567901234567,0,0,0.06234567901234567,78.43086419753084,0)" xlink:href="#M"/><use transform="matrix(0.06234567901234567,0,0,0.06234567901234567,85.84999999999997,0)" xlink:href="#O"/><use transform="matrix(0.06234567901234567,0,0,0.06234567901234567,98.3191358024691,0)" xlink:href="#Y"/><use transform="matrix(0.06234567901234567,0,0,0.06234567901234567,110.78827160493825,0)" xlink:href="#N"/><use transform="matrix(0.06234567901234567,0,0,0.06234567901234567,117.02283950617282,0)" xlink:href="#af"/><use transform="matrix(0.06234567901234567,0,0,0.06234567901234567,124.44197530864194,0)" xlink:href="#X"/><use transform="matrix(0.06234567901234567,0,0,0.06234567901234567,129.36728395061726,0)" xlink:href="#Y"/></g><path fill="#282c33" d="M101-251c82-7 93 87 43 132L82-64C71-53 59-42 53-27h129V0H18c2-99 128-94 128-182 0-28-16-43-45-43s-46 15-49 41l-32-3c6-41 34-60 81-64" id="ao"/><path fill="#282c33" d="M63-220v92h138v28H63V0H30v-248h175v28H63" id="ap"/><g id="m"><use transform="matrix(0.06234567901234567,0,0,0.06234567901234567,0,0)" xlink:href="#D"/><use transform="matrix(0.06234567901234567,0,0,0.06234567901234567,12.469135802469133,0)" xlink:href="#E"/><use transform="matrix(0.06234567901234567,0,0,0.06234567901234567,23.691358024691354,0)" xlink:href="#F"/><use transform="matrix(0.06234567901234567,0,0,0.06234567901234567,29.92592592592592,0)" xlink:href="#G"/><use transform="matrix(0.06234567901234567,0,0,0.06234567901234567,47.38271604938271,0)" xlink:href="#ao"/><use transform="matrix(0.06234567901234567,0,0,0.06234567901234567,59.85185185185184,0)" xlink:href="#I"/><use transform="matrix(0.06234567901234567,0,0,0.06234567901234567,72.32098765432097,0)" xlink:href="#J"/><use transform="matrix(0.06234567901234567,0,0,0.06234567901234567,88.4685185185185,0)" xlink:href="#K"/><use transform="matrix(0.06234567901234567,0,0,0.06234567901234567,100.93765432098763,0)" xlink:href="#L"/><use transform="matrix(0.06234567901234567,0,0,0.06234567901234567,113.40679012345677,0)" xlink:href="#M"/><use transform="matrix(0.06234567901234567,0,0,0.06234567901234567,120.8259259259259,0)" xlink:href="#L"/><use transform="matrix(0.06234567901234567,0,0,0.06234567901234567,133.29506172839504,0)" xlink:href="#E"/><use transform="matrix(0.06234567901234567,0,0,0.06234567901234567,144.51728395061727,0)" xlink:href="#N"/><use transform="matrix(0.06234567901234567,0,0,0.06234567901234567,150.75185185185182,0)" xlink:href="#O"/><use transform="matrix(0.06234567901234567,0,0,0.06234567901234567,163.22098765432096,0)" xlink:href="#M"/><use transform="matrix(0.06234567901234567,0,0,0.06234567901234567,170.6401234567901,0)" xlink:href="#I"/><use transform="matrix(0.06234567901234567,0,0,0.06234567901234567,183.10925925925923,0)" xlink:href="#ap"/><use transform="matrix(0.06234567901234567,0,0,0.06234567901234567,196.76296296296294,0)" xlink:href="#O"/><use transform="matrix(0.06234567901234567,0,0,0.06234567901234567,209.23209876543208,0)" xlink:href="#L"/><use transform="matrix(0.06234567901234567,0,0,0.06234567901234567,221.70123456790122,0)" xlink:href="#N"/><use transform="matrix(0.06234567901234567,0,0,0.06234567901234567,227.93580246913578,0)" xlink:href="#ak"/><use transform="matrix(0.06234567901234567,0,0,0.06234567901234567,240.40493827160492,0)" xlink:href="#M"/><use transform="matrix(0.06234567901234567,0,0,0.06234567901234567,247.82407407407405,0)" xlink:href="#O"/></g><g id="n"><use transform="matrix(0.06234567901234567,0,0,0.06234567901234567,0,0)" xlink:href="#ad"/><use transform="matrix(0.06234567901234567,0,0,0.06234567901234567,12.469135802469133,0)" xlink:href="#Z"/><use transform="matrix(0.06234567901234567,0,0,0.06234567901234567,17.39444444444444,0)" xlink:href="#V"/><use transform="matrix(0.06234567901234567,0,0,0.06234567901234567,29.86358024691357,0)" xlink:href="#F"/><use transform="matrix(0.06234567901234567,0,0,0.06234567901234567,36.09814814814814,0)" xlink:href="#L"/><use transform="matrix(0.06234567901234567,0,0,0.06234567901234567,48.56728395061727,0)" xlink:href="#ab"/><use transform="matrix(0.06234567901234567,0,0,0.06234567901234567,61.036419753086406,0)" xlink:href="#W"/><use transform="matrix(0.06234567901234567,0,0,0.06234567901234567,72.25864197530862,0)" xlink:href="#N"/><use transform="matrix(0.06234567901234567,0,0,0.06234567901234567,78.49320987654319,0)" xlink:href="#M"/><use transform="matrix(0.06234567901234567,0,0,0.06234567901234567,85.91234567901232,0)" xlink:href="#L"/><use transform="matrix(0.06234567901234567,0,0,0.06234567901234567,98.38148148148144,0)" xlink:href="#E"/><use transform="matrix(0.06234567901234567,0,0,0.06234567901234567,109.60370370370366,0)" xlink:href="#N"/><use transform="matrix(0.06234567901234567,0,0,0.06234567901234567,115.83827160493823,0)" xlink:href="#af"/><use transform="matrix(0.06234567901234567,0,0,0.06234567901234567,123.25740740740736,0)" xlink:href="#am"/><use transform="matrix(0.06234567901234567,0,0,0.06234567901234567,135.7265432098765,0)" xlink:href="#ak"/><use transform="matrix(0.06234567901234567,0,0,0.06234567901234567,148.19567901234564,0)" xlink:href="#L"/><use transform="matrix(0.06234567901234567,0,0,0.06234567901234567,160.66481481481478,0)" xlink:href="#Z"/><use transform="matrix(0.06234567901234567,0,0,0.06234567901234567,165.59012345679008,0)" xlink:href="#X"/><use transform="matrix(0.06234567901234567,0,0,0.06234567901234567,170.5154320987654,0)" xlink:href="#N"/><use transform="matrix(0.06234567901234567,0,0,0.06234567901234567,176.74999999999994,0)" xlink:href="#an"/></g><g id="o"><use transform="matrix(0.06234567901234567,0,0,0.06234567901234567,0,0)" xlink:href="#D"/><use transform="matrix(0.06234567901234567,0,0,0.06234567901234567,12.469135802469133,0)" xlink:href="#ad"/><use transform="matrix(0.06234567901234567,0,0,0.06234567901234567,24.938271604938265,0)" xlink:href="#F"/><use transform="matrix(0.06234567901234567,0,0,0.06234567901234567,31.17283950617283,0)" xlink:href="#E"/><use transform="matrix(0.06234567901234567,0,0,0.06234567901234567,42.39506172839505,0)" xlink:href="#K"/><use transform="matrix(0.06234567901234567,0,0,0.06234567901234567,54.86419753086418,0)" xlink:href="#L"/><use transform="matrix(0.06234567901234567,0,0,0.06234567901234567,67.33333333333331,0)" xlink:href="#M"/><use transform="matrix(0.06234567901234567,0,0,0.06234567901234567,74.75246913580244,0)" xlink:href="#L"/><use transform="matrix(0.06234567901234567,0,0,0.06234567901234567,87.22160493827158,0)" xlink:href="#E"/><use transform="matrix(0.06234567901234567,0,0,0.06234567901234567,98.4438271604938,0)" xlink:href="#N"/><use transform="matrix(0.06234567901234567,0,0,0.06234567901234567,104.67839506172837,0)" xlink:href="#O"/><use transform="matrix(0.06234567901234567,0,0,0.06234567901234567,117.1475308641975,0)" xlink:href="#M"/></g><g id="p"><use transform="matrix(0.06234567901234567,0,0,0.06234567901234567,0,0)" xlink:href="#ag"/><use transform="matrix(0.06234567901234567,0,0,0.06234567901234567,6.234567901234566,0)" xlink:href="#O"/><use transform="matrix(0.06234567901234567,0,0,0.06234567901234567,18.7037037037037,0)" xlink:href="#L"/><use transform="matrix(0.06234567901234567,0,0,0.06234567901234567,31.17283950617283,0)" xlink:href="#N"/><use transform="matrix(0.06234567901234567,0,0,0.06234567901234567,37.4074074074074,0)" xlink:href="#ak"/><use transform="matrix(0.06234567901234567,0,0,0.06234567901234567,49.87654320987653,0)" xlink:href="#M"/><use transform="matrix(0.06234567901234567,0,0,0.06234567901234567,57.295679012345666,0)" xlink:href="#O"/></g><path fill="#282c33" d="M266 0h-40l-56-210L115 0H75L2-248h35L96-30l15-64 43-154h32l59 218 59-218h35" id="aq"/><path fill="#282c33" d="M143 0L79-87 56-68V0H24v-261h32v163l83-92h37l-77 82L181 0h-38" id="ar"/><g id="q"><use transform="matrix(0.06234567901234567,0,0,0.06234567901234567,0,0)" xlink:href="#Z"/><use transform="matrix(0.06234567901234567,0,0,0.06234567901234567,4.925308641975308,0)" xlink:href="#M"/><use transform="matrix(0.06234567901234567,0,0,0.06234567901234567,12.344444444444441,0)" xlink:href="#P"/><use transform="matrix(0.06234567901234567,0,0,0.06234567901234567,30.985802469135795,0)" xlink:href="#F"/><use transform="matrix(0.06234567901234567,0,0,0.06234567901234567,37.22037037037036,0)" xlink:href="#ap"/><use transform="matrix(0.06234567901234567,0,0,0.06234567901234567,50.87407407407406,0)" xlink:href="#H"/><use transform="matrix(0.06234567901234567,0,0,0.06234567901234567,63.34320987654319,0)" xlink:href="#I"/><use transform="matrix(0.06234567901234567,0,0,0.06234567901234567,75.81234567901232,0)" xlink:href="#aq"/><use transform="matrix(0.06234567901234567,0,0,0.06234567901234567,96.51111111111108,0)" xlink:href="#U"/><use transform="matrix(0.06234567901234567,0,0,0.06234567901234567,108.9802469135802,0)" xlink:href="#M"/><use transform="matrix(0.06234567901234567,0,0,0.06234567901234567,116.39938271604933,0)" xlink:href="#ar"/></g><g id="r"><use transform="matrix(0.06234567901234567,0,0,0.06234567901234567,0,0)" xlink:href="#I"/><use transform="matrix(0.06234567901234567,0,0,0.06234567901234567,12.469135802469133,0)" xlink:href="#I"/><use transform="matrix(0.06234567901234567,0,0,0.06234567901234567,24.938271604938265,0)" xlink:href="#I"/><use transform="matrix(0.06234567901234567,0,0,0.06234567901234567,37.4074074074074,0)" xlink:href="#I"/><use transform="matrix(0.06234567901234567,0,0,0.06234567901234567,49.87654320987653,0)" xlink:href="#I"/><use transform="matrix(0.06234567901234567,0,0,0.06234567901234567,62.34567901234566,0)" xlink:href="#I"/><use transform="matrix(0.06234567901234567,0,0,0.06234567901234567,74.8148148148148,0)" xlink:href="#I"/><use transform="matrix(0.06234567901234567,0,0,0.06234567901234567,87.28395061728392,0)" xlink:href="#I"/><use transform="matrix(0.06234567901234567,0,0,0.06234567901234567,99.75308641975306,0)" xlink:href="#I"/><use transform="matrix(0.06234567901234567,0,0,0.06234567901234567,112.2222222222222,0)" xlink:href="#I"/><use transform="matrix(0.06234567901234567,0,0,0.06234567901234567,124.69135802469134,0)" xlink:href="#I"/><use transform="matrix(0.06234567901234567,0,0,0.06234567901234567,137.16049382716048,0)" xlink:href="#I"/><use transform="matrix(0.06234567901234567,0,0,0.06234567901234567,149.62962962962962,0)" xlink:href="#I"/><use transform="matrix(0.06234567901234567,0,0,0.06234567901234567,162.09876543209876,0)" xlink:href="#I"/><use transform="matrix(0.06234567901234567,0,0,0.06234567901234567,174.5679012345679,0)" xlink:href="#I"/><use transform="matrix(0.06234567901234567,0,0,0.06234567901234567,187.03703703703704,0)" xlink:href="#I"/><use transform="matrix(0.06234567901234567,0,0,0.06234567901234567,199.50617283950618,0)" xlink:href="#I"/><use transform="matrix(0.06234567901234567,0,0,0.06234567901234567,211.97530864197532,0)" xlink:href="#I"/><use transform="matrix(0.06234567901234567,0,0,0.06234567901234567,224.44444444444446,0)" xlink:href="#I"/><use transform="matrix(0.06234567901234567,0,0,0.06234567901234567,236.9135802469136,0)" xlink:href="#I"/><use transform="matrix(0.06234567901234567,0,0,0.06234567901234567,249.38271604938274,0)" xlink:href="#I"/><use transform="matrix(0.06234567901234567,0,0,0.06234567901234567,261.85185185185185,0)" xlink:href="#I"/><use transform="matrix(0.06234567901234567,0,0,0.06234567901234567,274.32098765432096,0)" xlink:href="#I"/><use transform="matrix(0.06234567901234567,0,0,0.06234567901234567,286.79012345679007,0)" xlink:href="#I"/><use transform="matrix(0.06234567901234567,0,0,0.06234567901234567,299.2592592592592,0)" xlink:href="#I"/><use transform="matrix(0.06234567901234567,0,0,0.06234567901234567,311.7283950617283,0)" xlink:href="#I"/><use transform="matrix(0.06234567901234567,0,0,0.06234567901234567,324.1975308641974,0)" xlink:href="#I"/><use transform="matrix(0.06234567901234567,0,0,0.06234567901234567,336.6666666666665,0)" xlink:href="#I"/></g><g id="s"><use transform="matrix(0.06234567901234567,0,0,0.06234567901234567,0,0)" xlink:href="#E"/><use transform="matrix(0.06234567901234567,0,0,0.06234567901234567,11.22222222222222,0)" xlink:href="#M"/><use transform="matrix(0.06234567901234567,0,0,0.06234567901234567,18.641358024691353,0)" xlink:href="#P"/><use transform="matrix(0.06234567901234567,0,0,0.06234567901234567,37.28271604938271,0)" xlink:href="#F"/><use transform="matrix(0.06234567901234567,0,0,0.06234567901234567,43.51728395061727,0)" xlink:href="#Q"/><use transform="matrix(0.06234567901234567,0,0,0.06234567901234567,58.48024691358023,0)" xlink:href="#R"/><use transform="matrix(0.06234567901234567,0,0,0.06234567901234567,70.94938271604937,0)" xlink:href="#S"/><use transform="matrix(0.06234567901234567,0,0,0.06234567901234567,83.41851851851851,0)" xlink:href="#I"/><use transform="matrix(0.06234567901234567,0,0,0.06234567901234567,95.88765432098765,0)" xlink:href="#T"/><use transform="matrix(0.06234567901234567,0,0,0.06234567901234567,110.85061728395061,0)" xlink:href="#M"/><use transform="matrix(0.06234567901234567,0,0,0.06234567901234567,118.26975308641974,0)" xlink:href="#U"/><use transform="matrix(0.06234567901234567,0,0,0.06234567901234567,130.73888888888888,0)" xlink:href="#V"/><use transform="matrix(0.06234567901234567,0,0,0.06234567901234567,143.20802469135802,0)" xlink:href="#U"/><use transform="matrix(0.06234567901234567,0,0,0.06234567901234567,155.67716049382716,0)" xlink:href="#W"/><use transform="matrix(0.06234567901234567,0,0,0.06234567901234567,166.8993827160494,0)" xlink:href="#X"/><use transform="matrix(0.06234567901234567,0,0,0.06234567901234567,171.8246913580247,0)" xlink:href="#N"/><use transform="matrix(0.06234567901234567,0,0,0.06234567901234567,178.05925925925925,0)" xlink:href="#X"/><use transform="matrix(0.06234567901234567,0,0,0.06234567901234567,182.98456790123456,0)" xlink:href="#U"/><use transform="matrix(0.06234567901234567,0,0,0.06234567901234567,195.4537037037037,0)" xlink:href="#Y"/><use transform="matrix(0.06234567901234567,0,0,0.06234567901234567,207.92283950617283,0)" xlink:href="#L"/><use transform="matrix(0.06234567901234567,0,0,0.06234567901234567,220.39197530864197,0)" xlink:href="#Z"/><use transform="matrix(0.06234567901234567,0,0,0.06234567901234567,225.31728395061728,0)" xlink:href="#I"/><use transform="matrix(0.06234567901234567,0,0,0.06234567901234567,237.78641975308642,0)" xlink:href="#aa"/><use transform="matrix(0.06234567901234567,0,0,0.06234567901234567,255.2432098765432,0)" xlink:href="#ab"/><use transform="matrix(0.06234567901234567,0,0,0.06234567901234567,267.71234567901234,0)" xlink:href="#ac"/><use transform="matrix(0.06234567901234567,0,0,0.06234567901234567,272.6376543209877,0)" xlink:href="#O"/><use transform="matrix(0.06234567901234567,0,0,0.06234567901234567,285.1067901234568,0)" xlink:href="#E"/><use transform="matrix(0.06234567901234567,0,0,0.06234567901234567,296.329012345679,0)" xlink:href="#N"/></g><g id="t"><use transform="matrix(0.06234567901234567,0,0,0.06234567901234567,0,0)" xlink:href="#ad"/><use transform="matrix(0.06234567901234567,0,0,0.06234567901234567,12.469135802469133,0)" xlink:href="#Z"/><use transform="matrix(0.06234567901234567,0,0,0.06234567901234567,17.39444444444444,0)" xlink:href="#V"/><use transform="matrix(0.06234567901234567,0,0,0.06234567901234567,29.86358024691357,0)" xlink:href="#F"/><use transform="matrix(0.06234567901234567,0,0,0.06234567901234567,36.09814814814814,0)" xlink:href="#ad"/><use transform="matrix(0.06234567901234567,0,0,0.06234567901234567,48.56728395061727,0)" xlink:href="#O"/><use transform="matrix(0.06234567901234567,0,0,0.06234567901234567,61.036419753086406,0)" xlink:href="#W"/><use transform="matrix(0.06234567901234567,0,0,0.06234567901234567,72.25864197530862,0)" xlink:href="#E"/><use transform="matrix(0.06234567901234567,0,0,0.06234567901234567,83.48086419753083,0)" xlink:href="#M"/><use transform="matrix(0.06234567901234567,0,0,0.06234567901234567,90.89999999999996,0)" xlink:href="#X"/><use transform="matrix(0.06234567901234567,0,0,0.06234567901234567,95.82530864197527,0)" xlink:href="#V"/><use transform="matrix(0.06234567901234567,0,0,0.06234567901234567,108.2944444444444,0)" xlink:href="#N"/><use transform="matrix(0.06234567901234567,0,0,0.06234567901234567,114.52901234567896,0)" xlink:href="#X"/><use transform="matrix(0.06234567901234567,0,0,0.06234567901234567,119.45432098765427,0)" xlink:href="#U"/><use transform="matrix(0.06234567901234567,0,0,0.06234567901234567,131.9234567901234,0)" xlink:href="#Y"/></g><g id="u"><use transform="matrix(0.06234567901234567,0,0,0.06234567901234567,0,0)" xlink:href="#D"/><use transform="matrix(0.06234567901234567,0,0,0.06234567901234567,12.469135802469133,0)" xlink:href="#ad"/><use transform="matrix(0.06234567901234567,0,0,0.06234567901234567,24.938271604938265,0)" xlink:href="#F"/><use transform="matrix(0.06234567901234567,0,0,0.06234567901234567,31.17283950617283,0)" xlink:href="#ag"/><use transform="matrix(0.06234567901234567,0,0,0.06234567901234567,37.4074074074074,0)" xlink:href="#L"/><use transform="matrix(0.06234567901234567,0,0,0.06234567901234567,49.87654320987653,0)" xlink:href="#Y"/><use transform="matrix(0.06234567901234567,0,0,0.06234567901234567,62.34567901234566,0)" xlink:href="#ag"/><use transform="matrix(0.06234567901234567,0,0,0.06234567901234567,68.58024691358023,0)" xlink:href="#X"/><use transform="matrix(0.06234567901234567,0,0,0.06234567901234567,73.50555555555553,0)" xlink:href="#E"/><use transform="matrix(0.06234567901234567,0,0,0.06234567901234567,84.72777777777775,0)" xlink:href="#N"/><use transform="matrix(0.06234567901234567,0,0,0.06234567901234567,90.96234567901232,0)" xlink:href="#X"/><use transform="matrix(0.06234567901234567,0,0,0.06234567901234567,95.88765432098762,0)" xlink:href="#U"/><use transform="matrix(0.06234567901234567,0,0,0.06234567901234567,108.35679012345676,0)" xlink:href="#Y"/><use transform="matrix(0.06234567901234567,0,0,0.06234567901234567,120.8259259259259,0)" xlink:href="#aq"/><use transform="matrix(0.06234567901234567,0,0,0.06234567901234567,141.52469135802465,0)" xlink:href="#U"/><use transform="matrix(0.06234567901234567,0,0,0.06234567901234567,153.9938271604938,0)" xlink:href="#M"/><use transform="matrix(0.06234567901234567,0,0,0.06234567901234567,161.41296296296292,0)" xlink:href="#ar"/></g><path fill="#282c33" d="M33 0v-248h34V0H33" id="as"/><g id="v"><use transform="matrix(0.06234567901234567,0,0,0.06234567901234567,0,0)" xlink:href="#D"/><use transform="matrix(0.06234567901234567,0,0,0.06234567901234567,12.469135802469133,0)" xlink:href="#U"/><use transform="matrix(0.06234567901234567,0,0,0.06234567901234567,24.938271604938265,0)" xlink:href="#Z"/><use transform="matrix(0.06234567901234567,0,0,0.06234567901234567,29.86358024691357,0)" xlink:href="#O"/><use transform="matrix(0.06234567901234567,0,0,0.06234567901234567,42.332716049382704,0)" xlink:href="#P"/><use transform="matrix(0.06234567901234567,0,0,0.06234567901234567,60.97407407407405,0)" xlink:href="#F"/><use transform="matrix(0.06234567901234567,0,0,0.06234567901234567,67.20864197530862,0)" xlink:href="#L"/><use transform="matrix(0.06234567901234567,0,0,0.06234567901234567,79.67777777777775,0)" xlink:href="#V"/><use transform="matrix(0.06234567901234567,0,0,0.06234567901234567,92.14691358024689,0)" xlink:href="#V"/><use transform="matrix(0.06234567901234567,0,0,0.06234567901234567,104.61604938271603,0)" xlink:href="#O"/><use transform="matrix(0.06234567901234567,0,0,0.06234567901234567,117.08518518518517,0)" xlink:href="#L"/><use transform="matrix(0.06234567901234567,0,0,0.06234567901234567,129.5543209876543,0)" xlink:href="#M"/><use transform="matrix(0.06234567901234567,0,0,0.06234567901234567,136.97345679012344,0)" xlink:href="#W"/><use transform="matrix(0.06234567901234567,0,0,0.06234567901234567,148.19567901234566,0)" xlink:href="#as"/><use transform="matrix(0.06234567901234567,0,0,0.06234567901234567,154.43024691358022,0)" xlink:href="#Y"/></g><path fill="#282c33" d="M233-177c-1 41-23 64-60 70L243 0h-38l-65-103H63V0H30v-248c88 3 205-21 203 71zM63-129c60-2 137 13 137-47 0-61-80-42-137-45v92" id="at"/><g id="w"><use transform="matrix(0.06234567901234567,0,0,0.06234567901234567,0,0)" xlink:href="#Z"/><use transform="matrix(0.06234567901234567,0,0,0.06234567901234567,4.925308641975308,0)" xlink:href="#M"/><use transform="matrix(0.06234567901234567,0,0,0.06234567901234567,12.344444444444441,0)" xlink:href="#P"/><use transform="matrix(0.06234567901234567,0,0,0.06234567901234567,30.985802469135795,0)" xlink:href="#F"/><use transform="matrix(0.06234567901234567,0,0,0.06234567901234567,37.22037037037036,0)" xlink:href="#at"/><use transform="matrix(0.06234567901234567,0,0,0.06234567901234567,53.36790123456789,0)" xlink:href="#H"/><use transform="matrix(0.06234567901234567,0,0,0.06234567901234567,65.83703703703702,0)" xlink:href="#I"/><use transform="matrix(0.06234567901234567,0,0,0.06234567901234567,78.30617283950616,0)" xlink:href="#K"/><use transform="matrix(0.06234567901234567,0,0,0.06234567901234567,90.7753086419753,0)" xlink:href="#L"/><use transform="matrix(0.06234567901234567,0,0,0.06234567901234567,103.24444444444444,0)" xlink:href="#W"/><use transform="matrix(0.06234567901234567,0,0,0.06234567901234567,114.46666666666665,0)" xlink:href="#I"/><use transform="matrix(0.06234567901234567,0,0,0.06234567901234567,126.93580246913578,0)" xlink:href="#W"/><use transform="matrix(0.06234567901234567,0,0,0.06234567901234567,138.158024691358,0)" xlink:href="#ak"/><use transform="matrix(0.06234567901234567,0,0,0.06234567901234567,150.62716049382715,0)" xlink:href="#E"/><use transform="matrix(0.06234567901234567,0,0,0.06234567901234567,161.84938271604938,0)" xlink:href="#E"/><use transform="matrix(0.06234567901234567,0,0,0.06234567901234567,173.0716049382716,0)" xlink:href="#O"/><use transform="matrix(0.06234567901234567,0,0,0.06234567901234567,185.54074074074074,0)" xlink:href="#W"/><use transform="matrix(0.06234567901234567,0,0,0.06234567901234567,196.76296296296297,0)" xlink:href="#W"/><use transform="matrix(0.06234567901234567,0,0,0.06234567901234567,207.9851851851852,0)" xlink:href="#U"/><use transform="matrix(0.06234567901234567,0,0,0.06234567901234567,220.45432098765434,0)" xlink:href="#M"/></g><g id="x"><use transform="matrix(0.06234567901234567,0,0,0.06234567901234567,0,0)" xlink:href="#Z"/><use transform="matrix(0.06234567901234567,0,0,0.06234567901234567,4.925308641975308,0)" xlink:href="#M"/><use transform="matrix(0.06234567901234567,0,0,0.06234567901234567,12.344444444444441,0)" xlink:href="#P"/><use transform="matrix(0.06234567901234567,0,0,0.06234567901234567,30.985802469135795,0)" xlink:href="#F"/><use transform="matrix(0.06234567901234567,0,0,0.06234567901234567,37.22037037037036,0)" xlink:href="#at"/><use transform="matrix(0.06234567901234567,0,0,0.06234567901234567,53.36790123456789,0)" xlink:href="#H"/><use transform="matrix(0.06234567901234567,0,0,0.06234567901234567,65.83703703703702,0)" xlink:href="#I"/><use transform="matrix(0.06234567901234567,0,0,0.06234567901234567,78.30617283950616,0)" xlink:href="#X"/><use transform="matrix(0.06234567901234567,0,0,0.06234567901234567,83.23148148148147,0)" xlink:href="#W"/><use transform="matrix(0.06234567901234567,0,0,0.06234567901234567,94.45370370370368,0)" xlink:href="#I"/><use transform="matrix(0.06234567901234567,0,0,0.06234567901234567,106.9228395061728,0)" xlink:href="#Z"/><use transform="matrix(0.06234567901234567,0,0,0.06234567901234567,111.84814814814811,0)" xlink:href="#U"/><use transform="matrix(0.06234567901234567,0,0,0.06234567901234567,124.31728395061725,0)" xlink:href="#D"/><use transform="matrix(0.06234567901234567,0,0,0.06234567901234567,136.7864197530864,0)" xlink:href="#X"/><use transform="matrix(0.06234567901234567,0,0,0.06234567901234567,141.7117283950617,0)" xlink:href="#E"/><use transform="matrix(0.06234567901234567,0,0,0.06234567901234567,152.93395061728393,0)" xlink:href="#L"/><use transform="matrix(0.06234567901234567,0,0,0.06234567901234567,165.40308641975307,0)" xlink:href="#Z"/><use transform="matrix(0.06234567901234567,0,0,0.06234567901234567,170.32839506172837,0)" xlink:href="#I"/><use transform="matrix(0.06234567901234567,0,0,0.06234567901234567,182.7975308641975,0)" xlink:href="#W"/><use transform="matrix(0.06234567901234567,0,0,0.06234567901234567,194.01975308641974,0)" xlink:href="#ak"/><use transform="matrix(0.06234567901234567,0,0,0.06234567901234567,206.48888888888888,0)" xlink:href="#E"/><use transform="matrix(0.06234567901234567,0,0,0.06234567901234567,217.7111111111111,0)" xlink:href="#E"/><use transform="matrix(0.06234567901234567,0,0,0.06234567901234567,228.93333333333334,0)" xlink:href="#O"/><use transform="matrix(0.06234567901234567,0,0,0.06234567901234567,241.40246913580248,0)" xlink:href="#W"/><use transform="matrix(0.06234567901234567,0,0,0.06234567901234567,252.6246913580247,0)" xlink:href="#W"/><use transform="matrix(0.06234567901234567,0,0,0.06234567901234567,263.8469135802469,0)" xlink:href="#U"/><use transform="matrix(0.06234567901234567,0,0,0.06234567901234567,276.316049382716,0)" xlink:href="#M"/><use transform="matrix(0.06234567901234567,0,0,0.06234567901234567,283.7351851851852,0)" xlink:href="#I"/><use transform="matrix(0.06234567901234567,0,0,0.06234567901234567,296.2043209876543,0)" xlink:href="#U"/><use transform="matrix(0.06234567901234567,0,0,0.06234567901234567,308.6734567901234,0)" xlink:href="#ag"/></g><path fill="#282c33" d="M54-142c48-35 137-8 131 61C196 18 31 33 14-55l32-4c7 23 22 37 52 37 35-1 51-22 54-58 4-55-73-65-99-34H22l8-134h141v27H59" id="au"/><path fill="#282c33" d="M127-220V0H93v-220H8v-28h204v28h-85" id="av"/><g id="y"><use transform="matrix(0.06234567901234567,0,0,0.06234567901234567,0,0)" xlink:href="#E"/><use transform="matrix(0.06234567901234567,0,0,0.06234567901234567,11.22222222222222,0)" xlink:href="#M"/><use transform="matrix(0.06234567901234567,0,0,0.06234567901234567,18.641358024691353,0)" xlink:href="#P"/><use transform="matrix(0.06234567901234567,0,0,0.06234567901234567,37.28271604938271,0)" xlink:href="#F"/><use transform="matrix(0.06234567901234567,0,0,0.06234567901234567,43.51728395061727,0)" xlink:href="#Q"/><use transform="matrix(0.06234567901234567,0,0,0.06234567901234567,58.48024691358023,0)" xlink:href="#au"/><use transform="matrix(0.06234567901234567,0,0,0.06234567901234567,70.94938271604937,0)" xlink:href="#au"/><use transform="matrix(0.06234567901234567,0,0,0.06234567901234567,83.41851851851851,0)" xlink:href="#I"/><use transform="matrix(0.06234567901234567,0,0,0.06234567901234567,95.88765432098765,0)" xlink:href="#av"/><use transform="matrix(0.06234567901234567,0,0,0.06234567901234567,108.29444444444444,0)" xlink:href="#an"/><use transform="matrix(0.06234567901234567,0,0,0.06234567901234567,119.51666666666665,0)" xlink:href="#V"/><use transform="matrix(0.06234567901234567,0,0,0.06234567901234567,131.9858024691358,0)" xlink:href="#O"/></g><g id="z"><use transform="matrix(0.06234567901234567,0,0,0.06234567901234567,0,0)" xlink:href="#U"/><use transform="matrix(0.06234567901234567,0,0,0.06234567901234567,12.469135802469133,0)" xlink:href="#M"/><use transform="matrix(0.06234567901234567,0,0,0.06234567901234567,19.888271604938268,0)" xlink:href="#X"/><use transform="matrix(0.06234567901234567,0,0,0.06234567901234567,24.813580246913574,0)" xlink:href="#D"/><use transform="matrix(0.06234567901234567,0,0,0.06234567901234567,37.28271604938271,0)" xlink:href="#X"/><use transform="matrix(0.06234567901234567,0,0,0.06234567901234567,42.20802469135801,0)" xlink:href="#Y"/><use transform="matrix(0.06234567901234567,0,0,0.06234567901234567,54.677160493827145,0)" xlink:href="#L"/><use transform="matrix(0.06234567901234567,0,0,0.06234567901234567,67.14629629629627,0)" xlink:href="#Z"/><use transform="matrix(0.06234567901234567,0,0,0.06234567901234567,72.07160493827158,0)" xlink:href="#J"/><use transform="matrix(0.06234567901234567,0,0,0.06234567901234567,88.21913580246911,0)" xlink:href="#K"/><use transform="matrix(0.06234567901234567,0,0,0.06234567901234567,100.68827160493825,0)" xlink:href="#L"/><use transform="matrix(0.06234567901234567,0,0,0.06234567901234567,113.15740740740739,0)" xlink:href="#M"/><use transform="matrix(0.06234567901234567,0,0,0.06234567901234567,120.57654320987652,0)" xlink:href="#L"/><use transform="matrix(0.06234567901234567,0,0,0.06234567901234567,133.04567901234566,0)" xlink:href="#E"/><use transform="matrix(0.06234567901234567,0,0,0.06234567901234567,144.2679012345679,0)" xlink:href="#N"/><use transform="matrix(0.06234567901234567,0,0,0.06234567901234567,150.50246913580244,0)" xlink:href="#O"/><use transform="matrix(0.06234567901234567,0,0,0.06234567901234567,162.97160493827158,0)" xlink:href="#M"/></g><g id="A"><use transform="matrix(0.06234567901234567,0,0,0.06234567901234567,0,0)" xlink:href="#ag"/><use transform="matrix(0.06234567901234567,0,0,0.06234567901234567,6.234567901234566,0)" xlink:href="#L"/><use transform="matrix(0.06234567901234567,0,0,0.06234567901234567,18.7037037037037,0)" xlink:href="#Y"/><use transform="matrix(0.06234567901234567,0,0,0.06234567901234567,31.17283950617283,0)" xlink:href="#ag"/><use transform="matrix(0.06234567901234567,0,0,0.06234567901234567,37.4074074074074,0)" xlink:href="#X"/><use transform="matrix(0.06234567901234567,0,0,0.06234567901234567,42.332716049382704,0)" xlink:href="#E"/><use transform="matrix(0.06234567901234567,0,0,0.06234567901234567,53.554938271604925,0)" xlink:href="#N"/><use transform="matrix(0.06234567901234567,0,0,0.06234567901234567,59.789506172839495,0)" xlink:href="#X"/><use transform="matrix(0.06234567901234567,0,0,0.06234567901234567,64.7148148148148,0)" xlink:href="#U"/><use transform="matrix(0.06234567901234567,0,0,0.06234567901234567,77.18395061728393,0)" xlink:href="#Y"/><use transform="matrix(0.06234567901234567,0,0,0.06234567901234567,89.65308641975307,0)" xlink:href="#J"/><use transform="matrix(0.06234567901234567,0,0,0.06234567901234567,105.8006172839506,0)" xlink:href="#K"/><use transform="matrix(0.06234567901234567,0,0,0.06234567901234567,118.26975308641974,0)" xlink:href="#L"/><use transform="matrix(0.06234567901234567,0,0,0.06234567901234567,130.73888888888888,0)" xlink:href="#M"/><use transform="matrix(0.06234567901234567,0,0,0.06234567901234567,138.158024691358,0)" xlink:href="#L"/><use transform="matrix(0.06234567901234567,0,0,0.06234567901234567,150.62716049382715,0)" xlink:href="#E"/><use transform="matrix(0.06234567901234567,0,0,0.06234567901234567,161.84938271604938,0)" xlink:href="#N"/><use transform="matrix(0.06234567901234567,0,0,0.06234567901234567,168.08395061728393,0)" xlink:href="#O"/><use transform="matrix(0.06234567901234567,0,0,0.06234567901234567,180.55308641975307,0)" xlink:href="#M"/></g><g id="B"><use transform="matrix(0.06234567901234567,0,0,0.06234567901234567,0,0)" xlink:href="#E"/><use transform="matrix(0.06234567901234567,0,0,0.06234567901234567,11.22222222222222,0)" xlink:href="#M"/><use transform="matrix(0.06234567901234567,0,0,0.06234567901234567,18.641358024691353,0)" xlink:href="#P"/><use transform="matrix(0.06234567901234567,0,0,0.06234567901234567,37.28271604938271,0)" xlink:href="#F"/><use transform="matrix(0.06234567901234567,0,0,0.06234567901234567,43.51728395061727,0)" xlink:href="#T"/><use transform="matrix(0.06234567901234567,0,0,0.06234567901234567,58.48024691358023,0)" xlink:href="#ao"/><use transform="matrix(0.06234567901234567,0,0,0.06234567901234567,70.94938271604937,0)" xlink:href="#I"/><use transform="matrix(0.06234567901234567,0,0,0.06234567901234567,83.41851851851851,0)" xlink:href="#K"/><use transform="matrix(0.06234567901234567,0,0,0.06234567901234567,95.88765432098765,0)" xlink:href="#L"/><use transform="matrix(0.06234567901234567,0,0,0.06234567901234567,108.35679012345679,0)" xlink:href="#W"/><use transform="matrix(0.06234567901234567,0,0,0.06234567901234567,119.579012345679,0)" xlink:href="#I"/><use transform="matrix(0.06234567901234567,0,0,0.06234567901234567,132.04814814814813,0)" xlink:href="#N"/><use transform="matrix(0.06234567901234567,0,0,0.06234567901234567,138.28271604938269,0)" xlink:href="#an"/><use transform="matrix(0.06234567901234567,0,0,0.06234567901234567,149.5049382716049,0)" xlink:href="#V"/><use transform="matrix(0.06234567901234567,0,0,0.06234567901234567,161.97407407407405,0)" xlink:href="#O"/></g><g id="C"><use transform="matrix(0.06234567901234567,0,0,0.06234567901234567,0,0)" xlink:href="#E"/><use transform="matrix(0.06234567901234567,0,0,0.06234567901234567,11.22222222222222,0)" xlink:href="#M"/><use transform="matrix(0.06234567901234567,0,0,0.06234567901234567,18.641358024691353,0)" xlink:href="#P"/><use transform="matrix(0.06234567901234567,0,0,0.06234567901234567,37.28271604938271,0)" xlink:href="#F"/><use transform="matrix(0.06234567901234567,0,0,0.06234567901234567,43.51728395061727,0)" xlink:href="#T"/><use transform="matrix(0.06234567901234567,0,0,0.06234567901234567,58.48024691358023,0)" xlink:href="#ao"/><use transform="matrix(0.06234567901234567,0,0,0.06234567901234567,70.94938271604937,0)" xlink:href="#X"/><use transform="matrix(0.06234567901234567,0,0,0.06234567901234567,75.87469135802468,0)" xlink:href="#I"/><use transform="matrix(0.06234567901234567,0,0,0.06234567901234567,88.34382716049382,0)" xlink:href="#X"/><use transform="matrix(0.06234567901234567,0,0,0.06234567901234567,93.26913580246912,0)" xlink:href="#W"/><use transform="matrix(0.06234567901234567,0,0,0.06234567901234567,104.49135802469134,0)" xlink:href="#I"/><use transform="matrix(0.06234567901234567,0,0,0.06234567901234567,116.96049382716046,0)" xlink:href="#N"/><use transform="matrix(0.06234567901234567,0,0,0.06234567901234567,123.19506172839503,0)" xlink:href="#an"/><use transform="matrix(0.06234567901234567,0,0,0.06234567901234567,134.41728395061725,0)" xlink:href="#V"/><use transform="matrix(0.06234567901234567,0,0,0.06234567901234567,146.8864197530864,0)" xlink:href="#O"/><use transform="matrix(0.06234567901234567,0,0,0.06234567901234567,159.35555555555553,0)" xlink:href="#I"/><use transform="matrix(0.06234567901234567,0,0,0.06234567901234567,171.82469135802467,0)" xlink:href="#U"/><use transform="matrix(0.06234567901234567,0,0,0.06234567901234567,184.2938271604938,0)" xlink:href="#ag"/></g></defs></g></svg>